<svg width="2115" height="1098" viewBox="0 0 2115 1098" fill="none" xmlns="http://www.w3.org/2000/svg">
<path fill-rule="evenodd" clip-rule="evenodd" d="M1243.15 187.279C1243.15 290.711 1159.3 374.558 1055.87 374.558C952.436 374.558 868.588 290.711 868.588 187.279C868.588 83.8477 952.436 0 1055.87 0C1159.3 0 1243.15 83.8477 1243.15 187.279ZM494.029 268.003C422.993 245.4 348.727 229.255 274.461 222.797C214.069 218.483 152.235 219.933 90.8864 221.371H90.8862L90.8848 221.371C60.3915 222.085 30.0178 222.797 0 222.797V280.918C0 732.971 364.871 1097.84 816.925 1097.84H1026.81V1094.61V975.143V781.406C1039.72 506.945 710.369 342.268 494.029 268.003ZM1837.27 222.797C1763.01 229.255 1688.74 245.4 1617.7 268.003C1401.36 342.268 1072.01 506.945 1088.16 778.177V971.914V1091.39V1094.61H1298.04C1750.09 1094.61 2114.96 729.743 2114.96 277.689V222.797C2083.63 222.797 2052.29 222.074 2021.08 221.354C1959.02 219.921 1897.43 218.5 1837.27 222.797Z" fill="white"/>
</svg>
