<svg width="32" height="32" viewBox="0 0 32 32" fill="none" xmlns="http://www.w3.org/2000/svg">
<path d="M15.6 2.80005C22.6 2.80005 28.3 8.50005 28.3 15.5C28.3 22.5 22.6 28.2001 15.6 28.2001C8.59999 28.2001 2.79999 22.6 2.79999 15.6C2.79999 8.60005 8.59999 2.80005 15.6 2.80005ZM15.6 0.300049C7.09999 0.300049 0.299988 7.10005 0.299988 15.6C0.299988 24 7.09999 30.9 15.6 30.9C24 30.9 30.9 24.1 30.9 15.6C30.9 7.10005 24 0.300049 15.6 0.300049ZM13 10.5C13 11.2 12.4 11.8 11.7 11.8C11 11.8 10.4 11.2 10.4 10.5C10.4 9.80005 11 9.20005 11.7 9.20005C12.5 9.20005 13 9.80005 13 10.5ZM13 13H10.5V20.6H13V13ZM16.9 13H14.4V20.6H16.9C16.9 20.6 16.9 18.3 16.9 17C16.9 14.8 19.5 14.6 19.5 17C19.5 18.2001 19.5 20.6 19.5 20.6H22C22 20.6 22 18.6 22 16.3C22 12.1 18 12.3 16.9 14.3V13Z" fill="#57984C"/>
</svg>
