<svg width="28" height="32" viewBox="0 0 28 32" fill="none" xmlns="http://www.w3.org/2000/svg">
<path fill-rule="evenodd" clip-rule="evenodd" d="M24.0334 9.04598V13.176H27.5945V28.2232H24.0337V29.9314C24.0337 31.0738 23.2268 32 22.2314 32H1.80267C0.832267 32 0.0435172 31.1199 0.0039561 30.0178V26.9045H26.2753V14.4945H0.00379127V8.43525H0V2.06855C0 0.925895 0.806882 0 1.8025 0H15.7753V6.11846C15.7753 7.73271 16.9203 9.04598 18.3267 9.04598H24.0334ZM18.3266 7.32747H23.1303C21.689 5.30392 18.8686 2.09733 17.2732 0.695216V6.11855C17.273 6.78515 17.7456 7.32747 18.3266 7.32747ZM0.623168 17.587C1.08801 17.508 1.74077 17.4485 2.6604 17.4485C3.59009 17.4485 4.25273 17.6265 4.69763 17.9824C5.12291 18.3187 5.40973 18.8724 5.40973 19.525C5.40973 20.1779 5.19215 20.7316 4.79654 21.1076C4.28224 21.5922 3.52069 21.81 2.63056 21.81C2.43276 21.81 2.25473 21.7999 2.11627 21.7801V24.1635H0.623168V17.587ZM2.1166 20.6132C2.24517 20.6431 2.40342 20.6526 2.621 20.6526C3.42212 20.6526 3.91663 20.2473 3.91663 19.5647C3.91663 18.9517 3.49135 18.5859 2.73969 18.5859C2.43309 18.5859 2.22539 18.6157 2.1166 18.6449V20.6132ZM6.36941 17.587C6.92326 17.4978 7.64526 17.4485 8.40664 17.4485C9.6726 17.4485 10.4935 17.6758 11.1365 18.1604C11.8288 18.6744 12.2639 19.4958 12.2639 20.6724C12.2639 21.9479 11.799 22.8282 11.1561 23.3723C10.4539 23.9557 9.38594 24.2327 8.08043 24.2327C7.2991 24.2327 6.74524 24.1833 6.36957 24.1337V17.587H6.36941ZM7.88262 23.0263C8.0112 23.056 8.21889 23.056 8.40681 23.056C9.77167 23.0662 10.6618 22.3142 10.6618 20.7222C10.6717 19.3379 9.86068 18.6057 8.56505 18.6057C8.22878 18.6057 8.0112 18.6357 7.88262 18.6648V23.0263ZM17.3273 17.4979H13.2529L13.2527 24.1636H14.7659V21.4835H17.1592V20.2573H14.7659V18.7342H17.3273V17.4979Z" fill="#57984C"/>
</svg>
