<svg width="1449" height="1333" viewBox="0 0 1449 1333" fill="none" xmlns="http://www.w3.org/2000/svg">
<path opacity="0.8" fill-rule="evenodd" clip-rule="evenodd" d="M478.939 333.925C367.044 332.849 282.196 287.991 239.383 259.384L239.398 259.393C237.414 258.066 235.71 256.362 234.384 254.377C233.058 252.392 232.136 250.166 231.671 247.824C231.205 245.483 231.205 243.073 231.671 240.732C232.137 238.391 233.06 236.164 234.386 234.18C235.713 232.195 237.417 230.491 239.402 229.165C241.387 227.839 243.613 226.917 245.955 226.452C248.296 225.986 250.706 225.986 253.047 226.452C255.388 226.918 257.615 227.841 259.599 229.167C303.094 258.251 393.943 305.659 513.193 296.431C661.079 285.034 752.612 191.286 782.689 160.479C785.716 157.377 788.185 154.85 790.084 153.033C793.49 149.756 797.291 145.944 801.503 141.721L801.508 141.715L801.509 141.714L801.624 141.599C843.373 99.7376 930.26 12.6272 1075.49 1.54826C1136.06 -3.09597 1259.66 15.6385 1387.74 67.643C1392.21 69.4565 1395.77 72.9701 1397.65 77.411C1399.52 81.8519 1399.56 86.8563 1397.74 91.3232C1395.93 95.7901 1392.42 99.3537 1387.98 101.23C1383.54 103.106 1378.53 103.142 1374.06 101.328C1260.85 55.3554 1157.58 38.7234 1101.21 37.3722C1017.05 111.841 1041.95 214.308 1071.56 279.46C1098.89 252.949 1128.7 256.784 1160.09 260.865L1160.22 260.882C1174.62 262.745 1188.4 264.529 1201.35 262.892C1178.38 284.689 1149.48 286.57 1138.01 286.352H1137.66C1133.04 286.354 1128.6 288.112 1125.23 291.269C1121.87 294.425 1119.83 298.745 1119.53 303.351C1117.43 335.491 1136.9 350.366 1152.55 362.317C1158.02 366.313 1163.23 370.654 1168.15 375.314C1165.27 376.101 1162.23 376.95 1159.04 377.859C1153.7 379.509 1148.29 380.889 1142.82 381.994C1122.21 383.984 1108.88 369.979 1098.16 358.706C1089.8 349.908 1080.32 339.935 1066.5 343.952C1063.51 344.819 1060.8 346.436 1058.62 348.648C1056.44 350.861 1054.86 353.596 1054.04 356.591C1044.95 389.685 1024.16 404.678 1008.97 415.63L1008.97 415.634C1005.17 418.266 1001.51 421.097 998.002 424.116C995.551 426.367 993.32 428.847 991.338 431.52C990.93 425.641 991.151 419.736 991.998 413.904C994.487 397.416 1001.72 382.009 1012.82 369.564C1015.63 366.422 1017.27 362.401 1017.44 358.188C1017.61 353.974 1016.32 349.832 1013.77 346.469C1011.23 343.107 1007.59 340.733 1003.49 339.756C999.391 338.778 995.077 339.257 991.289 341.111C970.345 351.292 946.869 355.091 923.782 352.035C920.551 351.58 917.349 350.939 914.191 350.117C922.928 346.833 931.262 342.564 939.033 337.393C946.822 332.179 954.618 325.88 962.87 319.211L962.927 319.165C983.203 302.781 1005.82 284.541 1032.11 279.957C1013.27 234.333 1005 190.823 1007.58 150.227C1009.69 110.752 1023.72 72.8436 1047.82 41.5044C934.395 60.0723 865.677 128.891 827.39 167.329C822.933 171.801 818.91 175.83 815.311 179.29C813.785 180.758 811.852 182.737 809.506 185.14L809.494 185.151L809.493 185.153L808.731 185.933C788.228 207.41 766.058 227.231 742.427 245.209C659.87 345.858 696.803 434.468 743.512 546.49C772.268 615.457 804.453 692.709 810.767 782.686C834.733 752.378 858.7 755.123 886.235 758.307C899.531 759.852 913.2 761.428 926.494 758.75C905.439 782.465 876.752 786.779 865.298 787.53C860.633 787.835 856.266 789.926 853.103 793.367C849.939 796.808 848.224 801.336 848.311 806.01C848.917 838.175 869.539 851.35 886.125 861.948L886.18 861.983C891.969 865.506 897.527 869.394 902.821 873.622C900.02 874.648 897.062 875.749 893.948 876.924C888.775 879.02 883.499 880.851 878.14 882.411C857.773 886.139 843.325 873.306 831.699 862.98L831.688 862.971C822.615 854.906 812.318 845.784 798.885 850.934C795.986 852.048 793.421 853.886 791.435 856.273C789.448 858.659 788.106 861.515 787.536 864.567C781.265 898.313 761.81 915.008 747.601 927.193C744.034 930.13 740.626 933.256 737.392 936.557C735.137 938.998 733.12 941.649 731.369 944.473C730.468 938.65 730.191 932.748 730.542 926.866C731.631 910.225 737.544 894.261 747.559 880.926C750.098 877.559 751.387 873.414 751.205 869.201C751.024 864.988 749.383 860.969 746.564 857.833C743.746 854.697 739.924 852.638 735.754 852.009C731.584 851.381 727.326 852.222 723.708 854.388C703.693 866.291 680.623 872.053 657.361 870.959C654.103 870.779 650.858 870.41 647.643 869.854C656.075 865.845 664.023 860.887 671.331 855.076C679.218 848.762 688.047 839.983 698.266 829.822L698.267 829.821L698.293 829.794C719.485 808.73 747.074 781.322 773.28 770.719C765.288 693.203 737.222 625.884 709.939 560.447C671.603 468.517 635.007 380.694 673.648 288.2C634.064 308.423 591.508 322.205 547.584 329.029C467.581 371.103 475.685 416.47 486.936 479.023C493.326 514.538 500.324 553.461 490.505 594.629C518.225 599.7 539.717 618.52 560.59 636.824C570.031 645.494 580.019 653.548 590.494 660.936C601.541 668.259 613.56 673.996 626.2 677.98C619.915 680.122 613.447 681.685 606.878 682.648C579.85 686.225 552.367 681.779 527.847 669.861C524.059 668.007 519.745 667.528 515.643 668.506C511.541 669.484 507.907 671.857 505.363 675.219C502.818 678.582 501.522 682.724 501.696 686.938C501.87 691.151 503.503 695.173 506.316 698.314C519.402 712.994 527.929 731.168 530.855 750.615C532.208 759.938 532.208 769.407 530.855 778.729C527.721 773.562 523.894 768.848 519.483 764.718C515.534 761.323 511.409 758.138 507.125 755.178L507.118 755.173C489.369 742.371 465.062 724.838 454.378 685.941C453.555 682.946 451.978 680.211 449.797 677.998C447.616 675.786 444.905 674.169 441.921 673.302C439.901 672.706 437.807 672.4 435.702 672.393C424.538 672.393 415.964 681.409 408.263 689.51C395.56 702.885 379.695 719.502 354.808 717.079C348.364 715.805 341.992 714.187 335.722 712.231C330.372 710.714 325.439 709.332 320.877 708.145C327.439 701.355 334.6 695.17 342.271 689.665C360.63 675.641 381.44 659.739 379.138 624.294C378.856 619.62 376.774 615.236 373.327 612.066C369.881 608.896 365.339 607.186 360.658 607.295C346.919 607.577 312.258 605.272 285.017 578.627C283.435 577.066 281.948 575.412 280.563 573.674C297.372 577.875 317.031 577.228 337.717 576.546L337.724 576.546C374.166 575.346 415.086 574.013 451.837 597.371C464.412 559.253 457.702 521.857 451.152 485.461C442.263 436.043 432.46 381.488 478.939 333.925ZM578.484 881.665C594.943 891.343 612.665 898.69 631.143 903.495C577.448 980.139 560.18 1072.6 583.559 1156.84C523.802 1207.41 446.268 1234.12 365.228 1234.12C325.111 1234.05 285.256 1227.66 247.126 1215.19C159.098 1186.55 86.4772 1128.75 42.6342 1052.46C-0.863463 976.758 -10.7609 891.898 14.7627 813.467C49.6324 706.314 145.662 629.297 266.457 610.808C287.338 628.209 312.815 639.183 339.805 642.403C336.427 648.111 330.168 653.152 320.207 660.759L320.191 660.771C304.831 672.505 285.718 687.107 273.371 715.475C271.986 718.655 271.541 722.165 272.087 725.59C272.633 729.015 274.147 732.212 276.451 734.805C278.755 737.397 281.753 739.276 285.09 740.22C288.428 741.164 291.966 741.133 295.286 740.132H295.356C300.961 740.132 316.921 744.663 325.709 747.158L325.712 747.159L325.713 747.16L325.79 747.182C334.118 749.859 342.642 751.885 351.284 753.241C388.477 756.873 413.416 736.072 428.615 720.77C444.852 755.084 469.795 773.07 485.87 784.661L485.87 784.661L485.872 784.663C489.777 787.471 493.149 789.913 495.146 791.712C500.244 796.308 506.157 809.109 510.474 818.455L510.475 818.457L510.56 818.641C513.134 824.198 515.562 829.441 518.049 833.726C519.645 836.476 521.935 838.759 524.69 840.348C527.445 841.936 530.568 842.774 533.748 842.778H533.769C536.946 842.778 540.068 841.945 542.823 840.363C545.578 838.78 547.87 836.503 549.471 833.759C565.013 807.094 571.137 775.978 566.857 745.412C565.48 735.987 563.103 726.735 559.765 717.814C570.461 719.619 581.303 720.417 592.148 720.195C619.78 748.646 642.263 781.678 658.594 817.821C654.916 821.308 651.565 824.34 648.618 826.697C622.727 847.398 588.236 848.004 587.958 848.004C584.004 848.014 580.161 849.314 577.012 851.705C573.863 854.097 571.58 857.45 570.508 861.256C569.437 865.063 569.636 869.114 571.076 872.797C572.515 876.48 575.116 879.593 578.484 881.665ZM66.9458 1009C71.6733 1009.94 76.5815 1008.97 80.5909 1006.29C82.5772 1004.97 84.2828 1003.26 85.6102 1001.28C86.9375 999.292 87.8607 997.064 88.3269 994.722C88.7931 992.38 88.7931 989.969 88.3271 987.627C87.8611 985.285 86.938 983.057 85.6108 981.072C39.2745 911.648 83.9022 837.479 85.9289 834.189C88.4799 830.098 89.3014 825.161 88.2125 820.465C87.1237 815.768 84.2138 811.697 80.1229 809.146C76.032 806.595 71.0952 805.773 66.3987 806.862C61.7021 807.951 57.6305 810.861 55.0794 814.952C52.6376 818.89 -4.22016 911.969 55.3824 1001.27C58.0589 1005.28 62.2184 1008.06 66.9458 1009ZM1437.11 469.063C1407.12 376.884 1324.62 310.508 1220.75 294.26C1203.4 308.504 1182.5 317.775 1160.3 321.087C1164.65 325.682 1169.45 329.825 1174.64 333.45C1188.24 343.835 1205.16 356.777 1216.17 382.044C1217.54 385.192 1217.99 388.665 1217.46 392.059C1216.94 395.453 1215.47 398.63 1213.22 401.222C1210.97 403.814 1208.02 405.714 1204.74 406.704C1201.45 407.693 1197.95 407.731 1194.64 406.813C1189.72 406.964 1176.34 410.766 1168.99 412.854C1161.61 415.251 1154.05 417.039 1146.37 418.201C1114.73 421.306 1093.1 404.828 1079.4 391.502C1064.77 420.255 1043.12 435.866 1030.27 445.14L1030.26 445.145L1030.12 445.243L1030.12 445.246C1026.96 447.523 1024 449.662 1022.38 451.125C1018.3 454.806 1013.06 466.155 1009.59 473.665C1007.31 478.618 1005.14 483.296 1002.89 487.167C1001.3 489.918 999.007 492.201 996.251 493.788C993.496 495.376 990.372 496.214 987.192 496.217H987.174C983.997 496.216 980.876 495.383 978.122 493.801C975.367 492.218 973.076 489.942 971.475 487.198C957.671 463.516 952.229 435.881 956.025 408.733C957.037 401.661 958.679 394.694 960.932 387.915C953.107 389.029 945.206 389.536 937.302 389.429C866.242 463.237 840.225 563.929 869.475 653.793C877.64 678.889 889.851 702.482 905.626 723.639C911.706 724.346 917.867 723.701 923.669 721.751C928.997 718.397 933.982 714.526 938.55 710.194C944.407 704.64 950.869 699.762 957.815 695.652C960.886 694.061 964.347 693.379 967.791 693.686C971.236 693.993 974.522 695.277 977.263 697.386C980.004 699.495 982.086 702.342 983.265 705.594C984.445 708.845 984.672 712.365 983.92 715.741C980.908 728.912 976.681 741.776 971.293 754.167C1037.79 762.841 1097.32 790.394 1142.95 832.222C1174.63 831.365 1206.03 825.932 1236.17 816.093C1392.67 765.167 1482.81 609.49 1437.11 469.063ZM890.404 820.192C912.252 815.026 932.29 804.033 948.386 788.382C1053.26 795.826 1141.04 855.016 1178.7 944.329C1206.35 1009.92 1204 1083.66 1172.08 1151.95C1139.87 1220.87 1081.49 1275.95 1007.71 1307.06C856.07 1370.97 686.021 1312.3 628.645 1176.22C591.934 1089.13 609.378 986.618 673.964 907.082C681.849 906.525 689.68 905.358 697.385 903.592C695.708 910.526 694.656 917.597 694.24 924.719C692.736 952.097 700.486 979.185 716.244 1001.62C717.92 1004.01 720.147 1005.96 722.735 1007.3C725.323 1008.65 728.196 1009.35 731.112 1009.35C731.36 1009.35 731.608 1009.34 731.856 1009.33C732.126 1009.32 732.398 1009.31 732.669 1009.28C735.838 1009.01 738.88 1007.91 741.491 1006.1C744.103 1004.28 746.192 1001.81 747.55 998.936C749.436 994.943 751.171 990.175 753.01 985.123L753.076 984.94C755.9 977.157 760.171 965.4 763.928 961.385C765.443 959.771 768.272 957.338 771.275 954.766L771.336 954.714C783.373 944.374 803.587 927.011 815.72 897.172C830.495 909.296 853.411 923.868 884.708 918.136C892.255 916.332 899.642 913.912 906.794 910.902C913.931 908.205 926.949 903.289 931.838 902.722C935.213 903.36 938.699 903.028 941.893 901.766C945.088 900.503 947.859 898.362 949.886 895.589C951.913 892.817 953.113 889.527 953.347 886.101C953.581 882.674 952.84 879.252 951.209 876.229C938.119 851.967 920.164 840.512 905.738 831.309L905.736 831.307C900.264 828.128 895.128 824.404 890.404 820.192Z" fill="white"/>
</svg>
