<svg width="32" height="32" viewBox="0 0 32 32" fill="none" xmlns="http://www.w3.org/2000/svg">
<path d="M10.9 7.90005H11.8L12.4 10.3L13 7.90005H14L12.9 11.4V13.8H12V11.4L10.9 7.90005ZM15.1 9.50005C14.4 9.50005 13.9 10 13.9 10.7V12.8C13.9 13.6 14.3 14 15.1 14C15.8 14 16.3 13.6 16.3 12.8V10.7C16.3 9.90005 15.8 9.50005 15.1 9.50005ZM15.4 12.7C15.4 12.9 15.3 13.1 15.1 13.1C14.9 13.1 14.7 12.9 14.7 12.7V10.7C14.7 10.5 14.8 10.3 15 10.3C15.2 10.3 15.4 10.5 15.4 10.7V12.7ZM18.5 9.50005V12.8C18.4 12.9 18.2 13.1 18 13.1C17.8 13.1 17.8 13 17.8 12.8V9.50005H17V13.1C17 13.5 17.1 13.9 17.6 13.9C17.8 13.9 18.2 13.8 18.5 13.4V13.9H19.3V9.50005H18.5ZM19.9 18.3C19.6 18.3 19.6 18.5 19.6 18.8V19.2001H20.3V18.8C20.2 18.5 20.1 18.3 19.9 18.3ZM16.9 18.3C16.8 18.3 16.8 18.4 16.7 18.4V21C16.8 21.1 16.8 21.1 16.9 21.1C17 21.2001 17.2 21.2001 17.3 21.1C17.3 21 17.4 20.9 17.4 20.8V18.7001C17.4 18.6 17.4 18.5 17.3 18.4C17.2 18.3 17 18.3 16.9 18.3ZM19.9 15C18.2 14.9 12.8 14.9 11.2 15C9.39999 15.1 9.19999 16.2001 9.19999 19.1C9.19999 21.9 9.39999 23 11.2 23.2001C12.9 23.3001 18.2 23.3001 19.9 23.2001C21.7 23.1 21.9 22 21.9 19.1C21.9 16.2001 21.7 15.2 19.9 15ZM12.1 21.8H11.2V17H10.3V16.2H13V17H12.1V21.8ZM15.2 21.8H14.4V21.3C14.3 21.5 14.1 21.6 14 21.7001C13.6 21.9001 13 21.9 13 21.1V17.6H13.8V20.8C13.8 21 13.8 21.1 14 21.1C14.2 21.1 14.4 20.9 14.5 20.8V17.7001H15.3V21.8H15.2ZM18.1 21C18.1 21.5 17.9 21.9 17.4 21.9C17.1 21.9 16.9 21.8 16.7 21.5V21.8H15.9V16.2H16.7V18C16.9 17.8 17.1 17.6 17.4 17.6C18 17.6 18.2 18.1 18.2 18.6V21H18.1ZM21 19.9H19.5V20.7001C19.5 21 19.5 21.3 19.8 21.3C20.1 21.3 20.1 21.1 20.1 20.7001V20.4H21V20.7001C21 21.5 20.7 22 19.8 22C19.1 22 18.7 21.5 18.7 20.7001V18.8C18.7 18.1 19.2 17.6 19.9 17.6C20.6 17.6 21 18.1 21 18.8V19.9ZM15.6 2.80005C22.6 2.80005 28.3 8.50005 28.3 15.5C28.3 22.5 22.6 28.2001 15.6 28.2001C8.59999 28.2001 2.89999 22.5 2.89999 15.5C2.79999 8.60005 8.59999 2.80005 15.6 2.80005ZM15.6 0.300049C7.09999 0.300049 0.299988 7.10005 0.299988 15.6C0.299988 24 7.09999 30.9 15.6 30.9C24 30.9 30.9 24.1 30.9 15.6C30.9 7.10005 24 0.300049 15.6 0.300049Z" fill="#57984C"/>
</svg>
