<svg width="42" height="54" viewBox="0 0 42 54" fill="none" xmlns="http://www.w3.org/2000/svg">
<mask id="path-1-inside-1_1_570" fill="white">
<path d="M30.1304 43.0935C28.5166 43.0951 26.9269 43.4842 25.4964 44.2279C24.0658 44.9715 22.8366 46.0478 21.913 47.3652V39.8342L24.3947 37.3676L28.8312 39.1962L30.628 34.88L30.6655 34.9172H35.6087V30.0875L40.0872 28.2415L38.1954 23.6971L38.146 23.6771L41.465 20.3716L38.0739 16.9914L39.9119 12.5761L35.5758 10.7875L35.6087 10.7502V5.82954H30.7614L28.906 1.37149L24.3408 3.25469L24.3207 3.30377L21 0L17.6053 3.37557L13.1688 1.55054L11.372 5.8668L11.3345 5.82954H6.3913V10.6557L1.91283 12.5016L3.80465 17.046L3.85396 17.066L0.535044 20.3716L3.92609 23.7517L2.08813 28.1679L6.42417 29.9566L6.3913 29.9929V34.9136H11.2387L13.094 39.3716L17.6592 37.4884L17.6793 37.4394L20.087 39.8342V47.3652C19.1634 46.0478 17.9342 44.9715 16.5036 44.2279C15.0731 43.4842 13.4834 43.0951 11.8696 43.0935H0V44.0024C0.00290014 46.653 1.06198 49.1943 2.94487 51.0686C4.82776 52.9429 7.38067 53.9971 10.0435 54H31.9565C34.6193 53.9971 37.1722 52.9429 39.0551 51.0686C40.938 49.1943 41.9971 46.653 42 44.0024V43.0935H30.1304ZM10.0435 52.1822C8.02281 52.1798 6.07367 51.4374 4.5675 50.0965C3.06132 48.7556 2.10341 46.9099 1.8763 44.9112H11.8696C13.8902 44.9137 15.8394 45.6561 17.3455 46.997C18.8517 48.3379 19.8096 50.1835 20.0367 52.1822H10.0435ZM22.397 30.2601C22.166 30.2929 21.9578 30.3129 21.7533 30.331C21.5487 30.3492 21.3159 30.3619 21.094 30.3647C21.0575 30.3647 21.0192 30.3647 20.9827 30.3647C20.7033 30.3647 20.4275 30.3456 20.1536 30.3229C19.9327 30.301 19.7053 30.2729 19.456 30.232L18.9593 30.1547L18.4882 30.0338C17.5607 29.7955 16.6726 29.4251 15.8513 28.9341C15.7007 28.8432 15.5464 28.7596 15.4012 28.6614L15.2944 28.5833C15.2095 28.5251 15.13 28.4606 15.0479 28.4015C13.9816 27.6149 13.0818 26.6265 12.4 25.4931C11.7111 24.352 11.2593 23.0848 11.0716 21.7667V21.7585C11.0396 21.5304 11.0186 21.3259 11.0013 21.1223C10.9757 20.8796 10.9565 20.6279 10.9565 20.3716C10.9565 20.1153 10.9757 19.8399 10.9967 19.5772C11.0186 19.3427 11.0469 19.0991 11.088 18.8328L11.1638 18.3457C11.1976 18.1812 11.2469 18.0221 11.2889 17.8612C11.5291 16.9398 11.9015 16.0576 12.3946 15.2419C12.4859 15.091 12.5717 14.9365 12.6685 14.7874L12.7013 14.7429C12.7735 14.6384 12.8547 14.5402 12.9305 14.4384C13.7186 13.3777 14.7089 12.4821 15.845 11.8027C16.6672 11.3099 17.557 10.9386 18.4864 10.7002L18.9785 10.5739C19.1611 10.5366 19.3437 10.5166 19.5263 10.4903L19.5967 10.4803C19.8231 10.4484 20.0267 10.4275 20.2276 10.4094C20.4713 10.3912 20.7151 10.373 20.9635 10.3721H20.9982C21.284 10.3721 21.5661 10.3912 21.8455 10.4148C22.0646 10.4366 22.2901 10.4648 22.5357 10.5057L23.0324 10.583L23.5036 10.7038C24.433 10.9422 25.3227 11.3136 26.145 11.8063C26.2938 11.8972 26.4472 11.9799 26.5906 12.079L26.6974 12.1571C26.7823 12.2153 26.8617 12.2798 26.9439 12.3389C28.0102 13.1255 28.91 14.1139 29.5917 15.2473C30.2807 16.3884 30.7324 17.6556 30.9202 18.9737V18.9819C30.9522 19.21 30.9732 19.4145 30.9905 19.6181C31.0097 19.8699 31.0289 20.1216 31.0289 20.3779C31.0289 20.6342 31.0097 20.9096 30.9887 21.1723C30.9668 21.4068 30.9385 21.6504 30.8974 21.9167L30.8216 22.4038C30.7878 22.5683 30.7385 22.7274 30.6965 22.8882C30.4563 23.8097 30.0839 24.6919 29.5908 25.5076C29.4995 25.6585 29.4137 25.813 29.3169 25.9621L29.284 26.0066C29.2119 26.1111 29.1307 26.2093 29.0549 26.3111C28.2647 27.3725 27.2718 28.2682 26.1331 28.9468C25.3119 29.4378 24.4238 29.8082 23.4963 30.0466L23.0041 30.1729C22.8215 30.2102 22.6389 30.2301 22.4563 30.2565L22.397 30.2601ZM28.8312 34.441L27.8478 36.8177L25.462 35.8343L24.6522 33.8984V31.6089C25.3049 31.3985 25.9379 31.1318 26.544 30.8118L27.8697 32.1315L28.8312 34.441ZM33.7826 33.0958H31.4215L29.4174 31.1018L28.6869 29.3549C28.7015 29.3422 28.7152 29.3276 28.7298 29.3149C29.2355 28.8846 29.7043 28.4131 30.1313 27.9052L31.4845 28.4633L33.7826 30.7455V33.0958ZM35.5174 28.157L32.5208 26.9218L31.4845 25.8903C31.8072 25.287 32.0763 24.6569 32.2889 24.0071H34.1798L36.7957 25.0868L37.6996 27.2581L35.5174 28.157ZM37.0568 22.1893H34.5432L32.8139 21.4768C32.8477 21.1132 32.8705 20.7451 32.8705 20.3716C32.8705 20.0707 32.8559 19.7626 32.8257 19.4309L34.9522 18.5538H37.0568L38.8829 20.3716L37.0568 22.1893ZM35.1394 12.5752L37.5215 13.555L36.5336 15.929L34.5888 16.7361H32.2889C32.0772 16.0863 31.809 15.4562 31.4872 14.8529L32.813 13.5332L35.1394 12.5752ZM33.7826 7.64729V9.99764L31.7785 11.9917L30.0245 12.7188C30.0053 12.697 29.9843 12.677 29.9652 12.6552C29.5378 12.1598 29.0703 11.7001 28.5673 11.281L29.1279 9.93402L31.4215 7.64729H33.7826ZM27.9181 3.74639L28.8211 5.92042L27.5803 8.90336L26.544 9.93493C25.938 9.61375 25.305 9.34583 24.6522 9.13421V7.25193L25.736 4.64799L27.9181 3.74639ZM19.1739 4.38806L21 2.5703L22.8261 4.38806V6.89019L22.1093 8.61252C21.7441 8.57889 21.3789 8.55616 21 8.55616C20.696 8.55616 20.3864 8.57071 20.055 8.6007L19.1739 6.48302V4.38806ZM13.1679 6.2967L14.1522 3.92544L16.538 4.90884L17.3478 6.84475V9.13421C16.6951 9.34495 16.0621 9.61196 15.456 9.9322L14.1303 8.61252L13.1679 6.2967ZM8.21739 7.64729H10.5785L12.5827 9.64136L13.3131 11.3882C13.2985 11.4009 13.2848 11.4155 13.2702 11.4282C12.7645 11.8585 12.2957 12.3301 11.8687 12.8379L10.511 12.2826L8.21739 9.99764V7.64729ZM6.48261 12.5861L9.47922 13.8213L10.5155 14.8529C10.1928 15.4561 9.92368 16.0862 9.71113 16.7361H7.82022L5.20435 15.6563L4.30044 13.485L6.48261 12.5861ZM4.94322 18.5538H7.45683L9.18613 19.2664C9.15235 19.6299 9.12952 19.998 9.12952 20.3716C9.12952 20.6724 9.14413 20.9805 9.17426 21.3122L7.04778 22.1893H4.94322L3.11713 20.3716L4.94322 18.5538ZM6.86061 28.1679L4.47848 27.1881L5.46639 24.8132L7.41117 24.0071H9.71113C9.9228 24.6568 10.191 25.2869 10.5128 25.8903L9.18704 27.2099L6.86061 28.1679ZM8.21739 33.0958V30.7455L10.2215 28.7514L11.9755 28.0243C11.9947 28.0461 12.0157 28.0661 12.0348 28.0879C12.4622 28.5834 12.9297 29.043 13.4327 29.4621L12.8739 30.8127L10.5785 33.0958H8.21739ZM14.0819 36.9967L13.1789 34.8227L14.4197 31.8398L15.456 30.8082C16.062 31.1294 16.695 31.3973 17.3478 31.6089V33.4912L16.2631 36.0951L14.0819 36.9967ZM19.1739 33.8529L19.8907 32.1306C20.0386 32.1442 20.1892 32.1452 20.338 32.1533C20.549 32.167 20.7644 32.1842 20.9699 32.1851L21 32.187C21.147 32.187 21.2903 32.1706 21.4364 32.1651C21.6053 32.1579 21.767 32.1588 21.945 32.1424L22.8261 34.2601V36.3505L21 38.1683L19.1739 36.3505V33.8529ZM31.9565 52.1822H21.9633C22.1904 50.1835 23.1483 48.3379 24.6545 46.997C26.1606 45.6561 28.1098 44.9137 30.1304 44.9112H40.1237C39.8966 46.9099 38.9387 48.7556 37.4325 50.0965C35.9263 51.4374 33.9772 52.1798 31.9565 52.1822Z"/>
</mask>
<path d="M30.1304 43.0935C28.5166 43.0951 26.9269 43.4842 25.4964 44.2279C24.0658 44.9715 22.8366 46.0478 21.913 47.3652V39.8342L24.3947 37.3676L28.8312 39.1962L30.628 34.88L30.6655 34.9172H35.6087V30.0875L40.0872 28.2415L38.1954 23.6971L38.146 23.6771L41.465 20.3716L38.0739 16.9914L39.9119 12.5761L35.5758 10.7875L35.6087 10.7502V5.82954H30.7614L28.906 1.37149L24.3408 3.25469L24.3207 3.30377L21 0L17.6053 3.37557L13.1688 1.55054L11.372 5.8668L11.3345 5.82954H6.3913V10.6557L1.91283 12.5016L3.80465 17.046L3.85396 17.066L0.535044 20.3716L3.92609 23.7517L2.08813 28.1679L6.42417 29.9566L6.3913 29.9929V34.9136H11.2387L13.094 39.3716L17.6592 37.4884L17.6793 37.4394L20.087 39.8342V47.3652C19.1634 46.0478 17.9342 44.9715 16.5036 44.2279C15.0731 43.4842 13.4834 43.0951 11.8696 43.0935H0V44.0024C0.00290014 46.653 1.06198 49.1943 2.94487 51.0686C4.82776 52.9429 7.38067 53.9971 10.0435 54H31.9565C34.6193 53.9971 37.1722 52.9429 39.0551 51.0686C40.938 49.1943 41.9971 46.653 42 44.0024V43.0935H30.1304ZM10.0435 52.1822C8.02281 52.1798 6.07367 51.4374 4.5675 50.0965C3.06132 48.7556 2.10341 46.9099 1.8763 44.9112H11.8696C13.8902 44.9137 15.8394 45.6561 17.3455 46.997C18.8517 48.3379 19.8096 50.1835 20.0367 52.1822H10.0435ZM22.397 30.2601C22.166 30.2929 21.9578 30.3129 21.7533 30.331C21.5487 30.3492 21.3159 30.3619 21.094 30.3647C21.0575 30.3647 21.0192 30.3647 20.9827 30.3647C20.7033 30.3647 20.4275 30.3456 20.1536 30.3229C19.9327 30.301 19.7053 30.2729 19.456 30.232L18.9593 30.1547L18.4882 30.0338C17.5607 29.7955 16.6726 29.4251 15.8513 28.9341C15.7007 28.8432 15.5464 28.7596 15.4012 28.6614L15.2944 28.5833C15.2095 28.5251 15.13 28.4606 15.0479 28.4015C13.9816 27.6149 13.0818 26.6265 12.4 25.4931C11.7111 24.352 11.2593 23.0848 11.0716 21.7667V21.7585C11.0396 21.5304 11.0186 21.3259 11.0013 21.1223C10.9757 20.8796 10.9565 20.6279 10.9565 20.3716C10.9565 20.1153 10.9757 19.8399 10.9967 19.5772C11.0186 19.3427 11.0469 19.0991 11.088 18.8328L11.1638 18.3457C11.1976 18.1812 11.2469 18.0221 11.2889 17.8612C11.5291 16.9398 11.9015 16.0576 12.3946 15.2419C12.4859 15.091 12.5717 14.9365 12.6685 14.7874L12.7013 14.7429C12.7735 14.6384 12.8547 14.5402 12.9305 14.4384C13.7186 13.3777 14.7089 12.4821 15.845 11.8027C16.6672 11.3099 17.557 10.9386 18.4864 10.7002L18.9785 10.5739C19.1611 10.5366 19.3437 10.5166 19.5263 10.4903L19.5967 10.4803C19.8231 10.4484 20.0267 10.4275 20.2276 10.4094C20.4713 10.3912 20.7151 10.373 20.9635 10.3721H20.9982C21.284 10.3721 21.5661 10.3912 21.8455 10.4148C22.0646 10.4366 22.2901 10.4648 22.5357 10.5057L23.0324 10.583L23.5036 10.7038C24.433 10.9422 25.3227 11.3136 26.145 11.8063C26.2938 11.8972 26.4472 11.9799 26.5906 12.079L26.6974 12.1571C26.7823 12.2153 26.8617 12.2798 26.9439 12.3389C28.0102 13.1255 28.91 14.1139 29.5917 15.2473C30.2807 16.3884 30.7324 17.6556 30.9202 18.9737V18.9819C30.9522 19.21 30.9732 19.4145 30.9905 19.6181C31.0097 19.8699 31.0289 20.1216 31.0289 20.3779C31.0289 20.6342 31.0097 20.9096 30.9887 21.1723C30.9668 21.4068 30.9385 21.6504 30.8974 21.9167L30.8216 22.4038C30.7878 22.5683 30.7385 22.7274 30.6965 22.8882C30.4563 23.8097 30.0839 24.6919 29.5908 25.5076C29.4995 25.6585 29.4137 25.813 29.3169 25.9621L29.284 26.0066C29.2119 26.1111 29.1307 26.2093 29.0549 26.3111C28.2647 27.3725 27.2718 28.2682 26.1331 28.9468C25.3119 29.4378 24.4238 29.8082 23.4963 30.0466L23.0041 30.1729C22.8215 30.2102 22.6389 30.2301 22.4563 30.2565L22.397 30.2601ZM28.8312 34.441L27.8478 36.8177L25.462 35.8343L24.6522 33.8984V31.6089C25.3049 31.3985 25.9379 31.1318 26.544 30.8118L27.8697 32.1315L28.8312 34.441ZM33.7826 33.0958H31.4215L29.4174 31.1018L28.6869 29.3549C28.7015 29.3422 28.7152 29.3276 28.7298 29.3149C29.2355 28.8846 29.7043 28.4131 30.1313 27.9052L31.4845 28.4633L33.7826 30.7455V33.0958ZM35.5174 28.157L32.5208 26.9218L31.4845 25.8903C31.8072 25.287 32.0763 24.6569 32.2889 24.0071H34.1798L36.7957 25.0868L37.6996 27.2581L35.5174 28.157ZM37.0568 22.1893H34.5432L32.8139 21.4768C32.8477 21.1132 32.8705 20.7451 32.8705 20.3716C32.8705 20.0707 32.8559 19.7626 32.8257 19.4309L34.9522 18.5538H37.0568L38.8829 20.3716L37.0568 22.1893ZM35.1394 12.5752L37.5215 13.555L36.5336 15.929L34.5888 16.7361H32.2889C32.0772 16.0863 31.809 15.4562 31.4872 14.8529L32.813 13.5332L35.1394 12.5752ZM33.7826 7.64729V9.99764L31.7785 11.9917L30.0245 12.7188C30.0053 12.697 29.9843 12.677 29.9652 12.6552C29.5378 12.1598 29.0703 11.7001 28.5673 11.281L29.1279 9.93402L31.4215 7.64729H33.7826ZM27.9181 3.74639L28.8211 5.92042L27.5803 8.90336L26.544 9.93493C25.938 9.61375 25.305 9.34583 24.6522 9.13421V7.25193L25.736 4.64799L27.9181 3.74639ZM19.1739 4.38806L21 2.5703L22.8261 4.38806V6.89019L22.1093 8.61252C21.7441 8.57889 21.3789 8.55616 21 8.55616C20.696 8.55616 20.3864 8.57071 20.055 8.6007L19.1739 6.48302V4.38806ZM13.1679 6.2967L14.1522 3.92544L16.538 4.90884L17.3478 6.84475V9.13421C16.6951 9.34495 16.0621 9.61196 15.456 9.9322L14.1303 8.61252L13.1679 6.2967ZM8.21739 7.64729H10.5785L12.5827 9.64136L13.3131 11.3882C13.2985 11.4009 13.2848 11.4155 13.2702 11.4282C12.7645 11.8585 12.2957 12.3301 11.8687 12.8379L10.511 12.2826L8.21739 9.99764V7.64729ZM6.48261 12.5861L9.47922 13.8213L10.5155 14.8529C10.1928 15.4561 9.92368 16.0862 9.71113 16.7361H7.82022L5.20435 15.6563L4.30044 13.485L6.48261 12.5861ZM4.94322 18.5538H7.45683L9.18613 19.2664C9.15235 19.6299 9.12952 19.998 9.12952 20.3716C9.12952 20.6724 9.14413 20.9805 9.17426 21.3122L7.04778 22.1893H4.94322L3.11713 20.3716L4.94322 18.5538ZM6.86061 28.1679L4.47848 27.1881L5.46639 24.8132L7.41117 24.0071H9.71113C9.9228 24.6568 10.191 25.2869 10.5128 25.8903L9.18704 27.2099L6.86061 28.1679ZM8.21739 33.0958V30.7455L10.2215 28.7514L11.9755 28.0243C11.9947 28.0461 12.0157 28.0661 12.0348 28.0879C12.4622 28.5834 12.9297 29.043 13.4327 29.4621L12.8739 30.8127L10.5785 33.0958H8.21739ZM14.0819 36.9967L13.1789 34.8227L14.4197 31.8398L15.456 30.8082C16.062 31.1294 16.695 31.3973 17.3478 31.6089V33.4912L16.2631 36.0951L14.0819 36.9967ZM19.1739 33.8529L19.8907 32.1306C20.0386 32.1442 20.1892 32.1452 20.338 32.1533C20.549 32.167 20.7644 32.1842 20.9699 32.1851L21 32.187C21.147 32.187 21.2903 32.1706 21.4364 32.1651C21.6053 32.1579 21.767 32.1588 21.945 32.1424L22.8261 34.2601V36.3505L21 38.1683L19.1739 36.3505V33.8529ZM31.9565 52.1822H21.9633C22.1904 50.1835 23.1483 48.3379 24.6545 46.997C26.1606 45.6561 28.1098 44.9137 30.1304 44.9112H40.1237C39.8966 46.9099 38.9387 48.7556 37.4325 50.0965C35.9263 51.4374 33.9772 52.1798 31.9565 52.1822Z" fill="#324950" stroke="#EFEDEB" stroke-width="0.6" mask="url(#path-1-inside-1_1_570)"/>
</svg>
