<svg width="910" height="910" viewBox="0 0 910 910" fill="none" xmlns="http://www.w3.org/2000/svg">
<path opacity="0.8" fill-rule="evenodd" clip-rule="evenodd" d="M312.813 369.688V14.2188C312.813 6.36646 306.446 0 298.594 0C290.742 0 284.375 6.36646 284.375 14.2188V369.688C284.375 377.54 290.742 383.907 298.594 383.907C306.446 383.907 312.813 377.54 312.813 369.688ZM463.836 253.476C554.103 353.515 494.447 431.048 467.367 457.764C464.416 460.676 460.302 462.11 456.165 462.11C451.964 462.11 447.736 460.631 444.691 457.715C355.734 372.573 416.868 283.955 443.119 253.535C445.833 250.39 449.621 248.828 453.425 248.828C457.227 248.828 461.049 250.387 463.836 253.476ZM304.782 419.454C305.258 419.454 305.74 419.482 306.229 419.534C345.032 423.79 447.181 446.507 440.465 567.675C440.017 575.784 432.747 582.97 424.781 582.97C424.652 582.97 424.524 582.97 424.395 582.963C387.46 581.936 293.708 566.21 291.483 433.43C291.354 425.727 297.398 419.454 304.782 419.454ZM306.229 583.046C305.747 582.99 305.268 582.97 304.796 582.97C297.405 582.97 291.354 589.232 291.483 596.952C293.708 729.726 387.46 745.451 424.395 746.479C424.524 746.486 424.652 746.486 424.781 746.486C432.747 746.486 440.017 739.3 440.465 731.19C447.181 610.019 345.032 587.302 306.229 583.046ZM304.796 746.485C305.268 746.485 305.747 746.506 306.229 746.561C345.032 750.818 447.181 773.535 440.465 894.706C440.017 902.816 432.747 910.001 424.781 910.001C424.652 910.001 424.524 910.001 424.395 909.994C387.46 908.967 293.708 893.242 291.483 760.468C291.354 752.748 297.405 746.485 304.796 746.485ZM604.298 0C612.15 0 618.516 6.36646 618.516 14.2188V383.907C618.516 391.759 612.15 398.126 604.298 398.126C596.445 398.126 590.079 391.759 590.079 383.907V14.2188C590.079 6.36646 596.445 0 604.298 0ZM440.782 14.2188V206.172C440.782 214.025 447.148 220.391 455.001 220.391C462.853 220.391 469.219 214.025 469.219 206.172V14.2188C469.219 6.36646 462.853 0 455.001 0C447.148 0 440.782 6.36646 440.782 14.2188ZM603.77 419.534C604.26 419.482 604.742 419.454 605.218 419.454C612.602 419.454 618.645 425.727 618.517 433.43C616.292 566.21 522.54 581.936 485.605 582.963C485.514 582.968 485.423 582.969 485.333 582.97C485.295 582.97 485.257 582.97 485.219 582.97C477.253 582.97 469.983 575.784 469.535 567.675C462.818 446.507 564.967 423.79 603.77 419.534ZM605.204 582.97C604.732 582.97 604.253 582.99 603.77 583.046C564.967 587.302 462.818 610.019 469.535 731.19C469.983 739.3 477.253 746.486 485.219 746.486C485.348 746.486 485.476 746.486 485.605 746.479C522.54 745.451 616.292 729.726 618.517 596.952C618.645 589.232 612.595 582.97 605.204 582.97ZM469.535 894.706C462.818 773.535 564.967 750.818 603.77 746.561C604.253 746.506 604.732 746.485 605.204 746.485C612.595 746.485 618.645 752.748 618.517 760.468C616.292 893.242 522.54 908.967 485.605 909.994C485.587 909.995 485.57 909.996 485.553 909.997L485.499 909.999C485.476 909.999 485.452 910 485.429 910C485.359 910.001 485.289 910.001 485.219 910.001C477.253 910.001 469.983 902.816 469.535 894.706ZM149.823 583.046C149.34 582.99 148.862 582.97 148.39 582.97C140.999 582.97 134.948 589.232 135.077 596.952C137.302 729.726 231.053 745.451 267.989 746.479C268.117 746.486 268.245 746.486 268.374 746.486C276.341 746.486 283.61 739.3 284.058 731.19C290.775 610.019 188.626 587.302 149.823 583.046ZM268.374 910.001C268.245 910.001 268.117 910.001 267.989 909.994C231.053 908.967 137.302 893.242 135.077 760.468C134.948 752.748 140.999 746.485 148.39 746.485C148.862 746.485 149.34 746.506 149.823 746.561C188.626 750.818 290.775 773.535 284.058 894.706C283.61 902.816 276.341 910.001 268.374 910.001ZM23.8614 465.88C18.0919 460.562 9.09414 460.916 3.76901 466.686C-1.55608 472.455 -1.19506 481.453 4.57438 486.777L96.9967 572.09C99.7281 574.61 103.186 575.86 106.636 575.86C110.465 575.86 114.284 574.319 117.089 571.285C122.414 565.515 122.053 556.518 116.283 551.193L23.8614 465.88ZM3.76901 630.202C9.09414 624.432 18.0919 624.078 23.8614 629.396L116.283 714.709C122.053 720.034 122.414 729.032 117.089 734.801C114.284 737.835 110.465 739.377 106.636 739.377C103.186 739.377 99.7281 738.127 96.9967 735.607L4.57438 650.294C-1.19506 644.969 -1.55608 635.971 3.76901 630.202ZM761.61 582.97C761.138 582.97 760.66 582.99 760.177 583.046C721.374 587.302 619.225 610.019 625.942 731.19C626.39 739.3 633.659 746.486 641.626 746.486C641.755 746.486 641.882 746.486 642.011 746.479C678.947 745.451 772.698 729.726 774.923 596.952C775.052 589.232 769.001 582.97 761.61 582.97ZM760.177 746.561C760.66 746.506 761.138 746.485 761.61 746.485C769.001 746.485 775.052 752.748 774.923 760.468C772.698 893.242 678.947 908.967 642.011 909.994C641.882 910.001 641.755 910.001 641.626 910.001C633.659 910.001 626.39 902.816 625.942 894.706C619.225 773.535 721.374 750.818 760.177 746.561ZM886.139 465.88L793.717 551.193C787.947 556.517 787.586 565.515 792.911 571.284C795.716 574.319 799.534 575.86 803.363 575.86C806.811 575.86 810.272 574.61 813.003 572.09L905.425 486.777C911.195 481.452 911.556 472.455 906.23 466.685C900.902 460.923 891.904 460.565 886.139 465.88ZM793.717 714.709L886.139 629.396C891.904 624.072 900.902 624.439 906.23 630.202C911.556 635.971 911.195 644.969 905.425 650.294L813.003 735.607C810.272 738.127 806.811 739.377 803.363 739.377C799.534 739.377 795.716 737.835 792.911 734.801C787.586 729.032 787.947 720.034 793.717 714.709Z" fill="white"/>
</svg>
