<?xml version="1.0" encoding="iso-8859-1"?>
<!-- Generator: Adobe Illustrator 18.0.0, SVG Export Plug-In . SVG Version: 6.00 Build 0)  -->
<!DOCTYPE svg PUBLIC "-//W3C//DTD SVG 1.1//EN" "http://www.w3.org/Graphics/SVG/1.1/DTD/svg11.dtd">
<svg version="1.1" id="Capa_1" xmlns="http://www.w3.org/2000/svg" xmlns:xlink="http://www.w3.org/1999/xlink" x="0px" y="0px"
	 viewBox="0 0 295.521 295.521" style="enable-background:new 0 0 295.521 295.521;" xml:space="preserve">
<g>
	<polygon style="fill:none;" points="106.783,217.615 134.384,198.188 134.384,198.188 	"/>
	<path style="fill:none;" d="M85.203,193.231c-0.003,0.386-0.018,0.769-0.018,1.158C85.184,194.001,85.2,193.618,85.203,193.231
		L85.203,193.231z"/>
	<path style="fill:none;" d="M210.336,194.39c0-0.419-0.015-0.833-0.02-1.251l0,0C210.32,193.557,210.336,193.97,210.336,194.39z"/>
	<path style="fill:#FDBD1D;" d="M154.115,37.805c0.029,0.26,0.055,0.517,0.079,0.771C154.171,38.322,154.144,38.065,154.115,37.805z
		"/>
	<path style="fill:#FDBD1D;" d="M154.216,38.809c0.023,0.256,0.044,0.508,0.062,0.757C154.26,39.317,154.239,39.064,154.216,38.809z
		"/>
	<path style="fill:#FDBD1D;" d="M153.988,36.762c0.036,0.27,0.068,0.535,0.099,0.798C154.056,37.297,154.024,37.032,153.988,36.762z
		"/>
	<path style="fill:#FDBD1D;" d="M153.833,35.676c0.044,0.284,0.083,0.563,0.121,0.839C153.916,36.239,153.876,35.96,153.833,35.676z
		"/>
	<path style="fill:#FDBD1D;" d="M152.384,28.831c0.084,0.321,0.168,0.641,0.246,0.954C152.552,29.472,152.468,29.152,152.384,28.831
		z"/>
	<path style="fill:#FDBD1D;" d="M154.291,39.763c0.017,0.257,0.032,0.512,0.045,0.761C154.324,40.274,154.309,40.02,154.291,39.763z
		"/>
	<path style="fill:#FDBD1D;" d="M152.03,27.53c0.087,0.312,0.174,0.622,0.256,0.927C152.204,28.152,152.117,27.841,152.03,27.53z"/>
	<path style="fill:#FDBD1D;" d="M153.648,34.549c0.054,0.312,0.104,0.617,0.152,0.921C153.752,35.166,153.702,34.861,153.648,34.549
		z"/>
	<path style="fill:#FDBD1D;" d="M152.686,30.014c0.39,1.58,0.705,3.072,0.951,4.477C153.391,33.086,153.076,31.595,152.686,30.014z"
		/>
	<path style="fill:#FDBD1D;" d="M154.343,40.665c0.012,0.265,0.022,0.527,0.029,0.784C154.364,41.192,154.354,40.93,154.343,40.665z
		"/>
	<path style="fill:#FDBD1D;" d="M141.173,43.937c-0.003-0.058-0.004-0.119-0.006-0.177C141.168,43.818,141.17,43.879,141.173,43.937
		z"/>
	<path style="fill:#FDBD1D;" d="M141.252,45.083c-0.011-0.121-0.022-0.24-0.031-0.363C141.23,44.843,141.241,44.962,141.252,45.083z
		"/>
	<path style="fill:#FDBD1D;" d="M141.144,43.098c-0.002-0.095-0.002-0.194-0.003-0.29C141.142,42.905,141.142,43.003,141.144,43.098
		z"/>
	<path style="fill:#AFDC02;" d="M153.543,49.256c-0.934-5.068-2.727-11.218-5.785-18.677c-3.056,7.457-4.85,13.605-5.783,18.672
		c0.147,0.535,0.307,1.037,0.479,1.502c1.348,3.636,3.492,5.562,5.306,6.578c1.814-1.017,3.957-2.943,5.306-6.579
		c0.825-2.227,1.401-5.236,1.305-9.256C154.448,44.68,154.101,47.228,153.543,49.256z"/>
	<path style="fill:#FDBD1D;" d="M141.333,45.876c-0.015-0.131-0.031-0.261-0.045-0.394
		C141.301,45.616,141.317,45.745,141.333,45.876z"/>
	<path style="fill:#FDBD1D;" d="M151.635,26.165c0.093,0.311,0.184,0.62,0.27,0.924C151.819,26.785,151.728,26.476,151.635,26.165z"
		/>
	<path style="fill:#FDBD1D;" d="M141.807,48.596c-0.031-0.129-0.06-0.26-0.09-0.392C141.747,48.336,141.776,48.467,141.807,48.596z"
		/>
	<path style="fill:#FDBD1D;" d="M141.429,46.612c-0.02-0.133-0.039-0.266-0.057-0.403C141.39,46.346,141.41,46.479,141.429,46.612z"
		/>
	<path style="fill:#FDBD1D;" d="M141.96,49.196c-0.035-0.129-0.069-0.261-0.102-0.394C141.891,48.935,141.925,49.067,141.96,49.196z
		"/>
	<path style="fill:#FDBD1D;" d="M141.541,47.306c-0.023-0.132-0.046-0.265-0.068-0.4C141.495,47.041,141.517,47.173,141.541,47.306z
		"/>
	<path style="fill:#FDBD1D;" d="M141.667,47.965c-0.027-0.13-0.053-0.26-0.078-0.394C141.614,47.705,141.64,47.835,141.667,47.965z"
		/>
	<path style="fill:#FDBD1D;" d="M149.651,20.189c0.129,0.354,0.253,0.703,0.376,1.05C149.905,20.892,149.781,20.544,149.651,20.189z
		"/>
	<path style="fill:#FDBD1D;" d="M141.617,36.145c0.016-0.108,0.031-0.214,0.047-0.324C141.648,35.93,141.633,36.037,141.617,36.145z
		"/>
	<path style="fill:#FDBD1D;" d="M141.809,34.919c0.013-0.078,0.025-0.154,0.038-0.232C141.833,34.765,141.822,34.841,141.809,34.919
		z"/>
	<path style="fill:#FDBD1D;" d="M142.059,33.522c0.001-0.005,0.002-0.01,0.003-0.014C142.06,33.512,142.059,33.517,142.059,33.522z"
		/>
	<path style="fill:#FDBD1D;" d="M142.609,30.941c0.003-0.015,0.007-0.03,0.01-0.044C142.616,30.911,142.612,30.926,142.609,30.941z"
		/>
	<path style="fill:#FDBD1D;" d="M142.926,29.633c0.02-0.079,0.042-0.16,0.062-0.24C142.968,29.472,142.947,29.554,142.926,29.633z"
		/>
	<path style="fill:#FDBD1D;" d="M141.255,39.379c0.009-0.12,0.019-0.242,0.029-0.364C141.274,39.138,141.264,39.259,141.255,39.379z
		"/>
	<path style="fill:#FDBD1D;" d="M141.191,40.368c0.006-0.118,0.014-0.239,0.021-0.359C141.204,40.129,141.197,40.249,141.191,40.368
		z"/>
	<path style="fill:#FDBD1D;" d="M141.151,41.316c0.003-0.116,0.008-0.234,0.013-0.351C141.16,41.082,141.154,41.2,141.151,41.316z"
		/>
	<path style="fill:#FDBD1D;" d="M143.28,28.283c0.029-0.11,0.061-0.222,0.092-0.333C143.341,28.061,143.309,28.173,143.28,28.283z"
		/>
	<path style="fill:#FDBD1D;" d="M141.466,37.276c0.015-0.117,0.029-0.235,0.044-0.354C141.494,37.042,141.48,37.159,141.466,37.276z
		"/>
	<path style="fill:#FDBD1D;" d="M141.346,38.352c0.012-0.121,0.024-0.242,0.038-0.365C141.37,38.11,141.358,38.231,141.346,38.352z"
		/>
	<path style="fill:#FDBD1D;" d="M146.321,18.966c0.024-0.063,0.046-0.125,0.07-0.188C146.367,18.84,146.344,18.903,146.321,18.966z"
		/>
	<path style="fill:#FDBD1D;" d="M147.76,15.303c0,0,0,0.001-0.001,0.002c0.411,1.001,0.795,1.977,1.161,2.932
		C148.554,17.28,148.171,16.306,147.76,15.303z"/>
	<path style="fill:#FDBD1D;" d="M149.053,18.579c0.146,0.385,0.286,0.763,0.425,1.14C149.339,19.342,149.199,18.964,149.053,18.579z
		"/>
	<path style="fill:#FDBD1D;" d="M150.21,21.758c0.117,0.336,0.23,0.668,0.341,0.997C150.44,22.425,150.327,22.094,150.21,21.758z"/>
	<path style="fill:#FDBD1D;" d="M151.199,24.741c0.1,0.317,0.197,0.631,0.292,0.941C151.396,25.372,151.299,25.057,151.199,24.741z"
		/>
	<path style="fill:#FDBD1D;" d="M150.724,23.272c0.108,0.326,0.213,0.648,0.315,0.967C150.937,23.92,150.832,23.598,150.724,23.272z
		"/>
	<path style="fill:#FDBD1D;" d="M144.576,23.938c0.044-0.137,0.089-0.274,0.134-0.413C144.665,23.664,144.62,23.801,144.576,23.938z
		"/>
	<path style="fill:#FDBD1D;" d="M144.104,25.434c0.041-0.132,0.082-0.266,0.124-0.4C144.186,25.168,144.144,25.302,144.104,25.434z"
		/>
	<path style="fill:#FDBD1D;" d="M143.672,26.883c0.036-0.124,0.073-0.25,0.11-0.376C143.745,26.632,143.708,26.758,143.672,26.883z"
		/>
	<path style="fill:#FDBD1D;" d="M145.096,22.377c0.045-0.131,0.089-0.262,0.135-0.395C145.185,22.115,145.141,22.246,145.096,22.377
		z"/>
	<path style="fill:#FDBD1D;" d="M145.671,20.733c0.04-0.11,0.078-0.22,0.119-0.331C145.75,20.513,145.711,20.622,145.671,20.733z"/>
	<path style="fill:#FDBD1D;" d="M141.136,42.224c0-0.107,0.003-0.217,0.004-0.325C141.139,42.007,141.137,42.117,141.136,42.224z"/>
	<path style="fill:#FDBD1D;" d="M105.831,56.576c-0.405-0.217-0.814-0.432-1.227-0.645
		C105.017,56.144,105.426,56.359,105.831,56.576z"/>
	<path style="fill:#FDBD1D;" d="M107.592,57.549c-0.355-0.202-0.712-0.402-1.074-0.601C106.88,57.147,107.237,57.348,107.592,57.549
		z"/>
	<path style="fill:#FDBD1D;" d="M109.497,58.664c-0.395-0.239-0.792-0.477-1.197-0.712
		C108.705,58.187,109.102,58.425,109.497,58.664z"/>
	<path style="fill:#FDBD1D;" d="M183.121,60.497c-0.124,0.082-0.248,0.165-0.371,0.247C182.873,60.662,182.996,60.58,183.121,60.497
		z"/>
	<path style="fill:#FDBD1D;" d="M104.018,55.63c-0.616-0.312-1.239-0.621-1.875-0.923C102.779,55.009,103.401,55.318,104.018,55.63z
		"/>
	<path style="fill:#FDBD1D;" d="M189.001,56.949c-0.36,0.198-0.716,0.397-1.069,0.598C188.286,57.347,188.641,57.147,189.001,56.949
		z"/>
	<path style="fill:#FDBD1D;" d="M187.218,57.953c-0.382,0.222-0.756,0.446-1.129,0.671
		C186.463,58.399,186.836,58.175,187.218,57.953z"/>
	<path style="fill:#FDBD1D;" d="M190.917,55.931c-0.413,0.213-0.823,0.428-1.227,0.645
		C190.094,56.359,190.504,56.144,190.917,55.931z"/>
	<path style="fill:#FDBD1D;" d="M193.378,54.706c-0.636,0.303-1.259,0.611-1.875,0.923
		C192.119,55.318,192.742,55.009,193.378,54.706z"/>
	<path style="fill:#FDBD1D;" d="M112.794,60.76c-0.137-0.092-0.274-0.183-0.412-0.274C112.52,60.576,112.657,60.668,112.794,60.76z"
		/>
	<path style="fill:#FDBD1D;" d="M184.699,59.48c-0.169,0.107-0.34,0.213-0.508,0.32C184.359,59.693,184.529,59.587,184.699,59.48z"
		/>
	<path style="fill:#AFDC02;" d="M138.178,88.829h19.164c2.778-5.556,9.93-17.363,24.273-27.314c-0.001,0-0.001,0.001-0.002,0.001
		c-16.325,0.894-26.139,6.623-29.189,17.071c-0.605,2.074-2.506,3.498-4.666,3.498c-2.16,0-4.061-1.425-4.666-3.498
		c-3.05-10.448-12.863-16.176-29.188-17.071c-0.007-0.005-0.015-0.01-0.022-0.015C128.241,71.454,135.398,83.27,138.178,88.829z"/>
	<path style="fill:#FDBD1D;" d="M111.338,59.806c-0.179-0.114-0.361-0.228-0.542-0.341C110.978,59.578,111.16,59.692,111.338,59.806
		z"/>
	<path style="fill:#FDBD1D;" d="M83.346,85.119c-0.203-0.063-0.403-0.126-0.608-0.188C82.943,84.993,83.143,85.056,83.346,85.119z"
		/>
	<path style="fill:#FDBD1D;" d="M89.19,87.133c-0.038-0.015-0.075-0.029-0.113-0.044C89.116,87.103,89.152,87.118,89.19,87.133z"/>
	<path style="fill:#FDBD1D;" d="M91.226,87.944c-0.139-0.057-0.276-0.114-0.417-0.171C90.95,87.829,91.087,87.887,91.226,87.944z"/>
	<path style="fill:#FDBD1D;" d="M87.257,86.418c-0.153-0.054-0.31-0.108-0.465-0.162C86.946,86.31,87.104,86.364,87.257,86.418z"/>
	<path style="fill:#FDBD1D;" d="M92.905,88.659c-0.129-0.057-0.259-0.113-0.389-0.169C92.646,88.546,92.777,88.602,92.905,88.659z"
		/>
	<path style="fill:#FDBD1D;" d="M85.378,85.772c-0.209-0.069-0.42-0.139-0.632-0.208C84.958,85.633,85.169,85.702,85.378,85.772z"/>
	<path style="fill:#FDBD1D;" d="M94.461,89.362c-0.042-0.019-0.085-0.038-0.126-0.058C94.376,89.323,94.419,89.342,94.461,89.362z"
		/>
	<path style="fill:#AFDC02;" d="M112.462,102.928c0.012,0.009,0.023,0.017,0.034,0.026l-0.011,0.005l17.7-7.592l-3.158,1.354
		c-9.407-4.439-18.746-6.685-27.916-6.685c-1.053,0-2.076,0.03-3.071,0.086l-0.003-0.002
		C105.03,94.593,109.9,99.454,112.462,102.928z"/>
	<path style="fill:#FFFFFF;" d="M112.462,102.928c0.008,0.01,0.016,0.021,0.023,0.031l0.011-0.005
		C112.485,102.945,112.474,102.937,112.462,102.928z"/>
	<path style="fill:#FDBD1D;" d="M203.354,83.093c-0.006,0-0.011,0-0.017,0c1.018,0,2.008,0.03,2.972,0.083
		C205.35,83.123,204.366,83.093,203.354,83.093z"/>
	<path style="fill:#FDBD1D;" d="M206.477,83.183c0.126,0.007,0.248,0.018,0.373,0.026C206.724,83.202,206.603,83.191,206.477,83.183
		z"/>
	<path style="fill:#AFDC02;" d="M196.369,90.036c-9.163,0-18.496,2.243-27.895,6.676l14.565,6.247
		c3.733-5.08,12.414-13.152,31.758-18.621c-0.007-0.002-0.015-0.003-0.023-0.005c-6.118,1.728-11.167,3.717-15.333,5.789
		C198.446,90.067,197.422,90.036,196.369,90.036z"/>
	<polygon style="fill:#FDBD1D;" points="120.03,227.122 147.759,247.02 175.489,227.122 147.76,207.604 	"/>
	<path style="fill:#FDBD1D;" d="M206.552,163.09c0.014,0.053,0.025,0.109,0.038,0.163
		C206.578,163.199,206.566,163.144,206.552,163.09z"/>
	<path style="fill:#FDBD1D;" d="M205.701,159.878c0.272,0.972,0.531,1.954,0.78,2.942
		C206.231,161.832,205.973,160.85,205.701,159.878L205.701,159.878z"/>
	<path style="fill:#FDBD1D;" d="M202.762,168.889l-1.026-0.731l5.257,3.745c-0.4-1.715-0.825-3.415-1.292-5.083L202.762,168.889z"/>
	<polygon style="fill:#FDBD1D;" points="119.387,168.801 147.761,188.772 176.135,168.802 147.76,148.59 	"/>
	<path style="fill:#FDBD1D;" d="M181.606,124.482l-20.594,14.669l28.454,20.268l10.848-7.635
		C195.474,140.865,189.088,131.537,181.606,124.482z"/>
	<path style="fill:#FDBD1D;" d="M113.914,124.482c-7.481,7.055-13.866,16.381-18.706,27.299l10.849,7.636l33.326-23.739
		l-4.874,3.472L113.914,124.482z"/>
	<path style="fill:#FDBD1D;" d="M201.252,241.76c0.369-0.887,0.731-1.782,1.08-2.688
		C201.984,239.978,201.623,240.874,201.252,241.76z"/>
	<path style="fill:#FDBD1D;" d="M188.791,236.485l-27.857,19.99l20.632,14.807c7.966-7.499,14.692-17.572,19.635-29.399
		c-0.361,0.861-0.731,1.713-1.11,2.555L188.791,236.485z"/>
	<path style="fill:#FDBD1D;" d="M207.106,223.341l-5.068,3.636l-4.885-3.438l8.394,5.909c1.301-4.555,2.356-9.295,3.141-14.185
		l-0.001,0.001C208.247,218.006,207.712,220.697,207.106,223.341z"/>
	<path style="fill:#FDBD1D;" d="M94.271,241.766c-0.371-0.889-0.734-1.787-1.083-2.696C93.537,239.98,93.9,240.877,94.271,241.766z"
		/>
	<path style="fill:#FDBD1D;" d="M134.585,256.474l-27.857-19.991l-11.299,7.953c-0.383-0.853-0.758-1.716-1.123-2.587
		c4.945,11.841,11.675,21.923,19.648,29.43l25.469-18.277L134.585,256.474z"/>
	<path style="fill:#FDBD1D;" d="M147.759,265.928l-20.59,14.777c6.452,3.295,13.38,5.095,20.591,5.095
		c7.717,0,15.109-2.06,21.94-5.809c-0.448,0.245-0.898,0.483-1.351,0.714L147.759,265.928z"/>
	<path style="fill:#FDBD1D;" d="M124.159,279.038c-0.318-0.19-0.637-0.38-0.953-0.577
		C123.522,278.659,123.84,278.848,124.159,279.038z"/>
	<path style="fill:#FDBD1D;" d="M172.314,278.462c-0.335,0.209-0.673,0.411-1.011,0.612
		C171.641,278.872,171.979,278.671,172.314,278.462z"/>
	<path style="fill:#FDBD1D;" d="M125.744,279.949c-0.405-0.223-0.808-0.451-1.21-0.685
		C124.935,279.498,125.339,279.725,125.744,279.949z"/>
	<path style="fill:#FDBD1D;" d="M170.998,279.257c-0.427,0.249-0.856,0.492-1.287,0.728
		C170.142,279.748,170.571,279.507,170.998,279.257z"/>
	<path style="fill:#FDBD1D;" d="M127.157,280.698c-0.439-0.224-0.876-0.455-1.31-0.693
		C126.281,280.243,126.718,280.474,127.157,280.698z"/>
	<path style="fill:#FDBD1D;" d="M89.82,166.82c-0.468,1.668-0.892,3.368-1.292,5.083l9.134-6.506l-4.903,3.492L89.82,166.82z"/>
	<path style="fill:#FDBD1D;" d="M189.432,178.273l-28.295,19.915l-4.932-3.472l32.532,22.899l21.363-15.33
		c0.153-2.604,0.236-5.236,0.236-7.895c0-0.42-0.016-0.833-0.02-1.251L189.432,178.273z"/>
	<path style="fill:#FDBD1D;" d="M87.556,219.311c-0.262-1.337-0.505-2.687-0.723-4.049
		C87.051,216.625,87.295,217.973,87.556,219.311z"/>
	<path style="fill:#FDBD1D;" d="M98.365,223.539l-4.885,3.438l-5.067-3.636c-0.295-1.286-0.571-2.585-0.83-3.894
		c0.668,3.417,1.463,6.756,2.389,9.999L98.365,223.539z"/>
	<path style="fill:#FDBD1D;" d="M134.384,198.188l-28.294-19.916l-20.886,14.958c-0.003,0.387-0.019,0.77-0.019,1.159
		c0,2.659,0.083,5.292,0.236,7.894l21.362,15.331L134.384,198.188z"/>
	<path style="fill:#FDBD1D;" d="M127.148,115.03l20.612,14.682l20.612-14.682c-6.458-3.302-13.392-5.107-20.612-5.107
		C140.541,109.924,133.606,111.728,127.148,115.03z"/>
	<path style="fill:#B74B00;" d="M234.043,81.813c-0.48-0.344-11.97-8.441-30.689-8.441c-8.937,0-17.944,1.821-26.949,5.4
		c7.647-8.035,19.761-16.856,38.122-21.185c2.177-0.513,3.723-2.446,3.745-4.683c0.022-2.237-1.485-4.2-3.651-4.756
		c-0.545-0.14-13.513-3.424-28.325-3.424c-9.332,0-16.735,1.286-22.602,3.388c1.684-11.412-1.974-26.663-10.924-45.469
		c-1.538-3.524-8.481-3.524-10.02,0.001c-8.949,18.806-12.607,34.057-10.923,45.468c-5.867-2.103-13.269-3.388-22.602-3.388
		c-14.813,0-27.779,3.285-28.324,3.424c-2.167,0.556-3.674,2.519-3.652,4.756c0.022,2.237,1.568,4.17,3.745,4.683
		c18.55,4.373,30.678,13.212,38.288,21.25c-9.061-3.622-18.122-5.465-27.114-5.465c-18.719,0-30.21,8.096-30.69,8.441
		c-1.6,1.15-2.349,3.152-1.894,5.07c0.454,1.918,2.022,3.371,3.969,3.679c35.008,5.546,41.91,19.278,42.341,20.217
		c0.081,0.26,0.186,0.503,0.306,0.736c-3.586,3.529-6.969,7.537-10.104,12.012c-13.305,18.992-20.631,44.159-20.631,70.864
		c0,26.703,7.327,51.869,20.631,70.862c13.673,19.519,32.021,30.27,51.665,30.27c19.645,0,37.993-10.75,51.666-30.27
		c13.304-18.993,20.631-44.159,20.631-70.862c0-26.705-7.327-51.871-20.631-70.864c-3.134-4.474-6.517-8.481-10.102-12.01
		c0.12-0.233,0.226-0.477,0.307-0.738c0.431-0.939,7.332-14.671,42.337-20.217c1.946-0.308,3.514-1.761,3.969-3.679
		C236.392,84.965,235.644,82.963,234.043,81.813z M141.151,41.316c0.003-0.116,0.008-0.233,0.013-0.351
		c0.007-0.197,0.016-0.395,0.026-0.597c0.006-0.118,0.014-0.239,0.021-0.359c0.013-0.207,0.027-0.417,0.043-0.63
		c0.009-0.12,0.019-0.242,0.029-0.364c0.019-0.219,0.039-0.44,0.061-0.664c0.012-0.121,0.024-0.242,0.038-0.365
		c0.025-0.234,0.053-0.471,0.082-0.711c0.015-0.117,0.029-0.235,0.044-0.354c0.033-0.256,0.069-0.516,0.107-0.778
		c0.016-0.108,0.031-0.214,0.047-0.324c0.045-0.296,0.094-0.598,0.145-0.903c0.013-0.078,0.025-0.154,0.038-0.232
		c0.066-0.382,0.136-0.77,0.212-1.164c0.001-0.005,0.002-0.01,0.003-0.014c0.159-0.827,0.341-1.682,0.547-2.567
		c0.003-0.015,0.007-0.03,0.01-0.044c0.097-0.415,0.199-0.836,0.307-1.264c0.02-0.079,0.042-0.16,0.062-0.24
		c0.093-0.366,0.19-0.735,0.292-1.111c0.029-0.11,0.061-0.222,0.092-0.333c0.096-0.352,0.196-0.707,0.3-1.067
		c0.036-0.124,0.073-0.25,0.11-0.376c0.104-0.354,0.211-0.711,0.322-1.072c0.041-0.133,0.082-0.266,0.124-0.4
		c0.113-0.361,0.229-0.727,0.349-1.096c0.044-0.137,0.089-0.274,0.134-0.413c0.124-0.378,0.253-0.761,0.385-1.148
		c0.045-0.131,0.089-0.262,0.135-0.395c0.142-0.411,0.29-0.829,0.441-1.25c0.04-0.11,0.078-0.22,0.119-0.331
		c0.171-0.472,0.348-0.951,0.531-1.436c0.024-0.063,0.046-0.125,0.07-0.188c0.426-1.125,0.881-2.282,1.369-3.472
		c0-0.001,0-0.001,0-0.001c0.411,1.002,0.794,1.976,1.161,2.933c0.044,0.114,0.089,0.229,0.132,0.342
		c0.146,0.385,0.286,0.763,0.425,1.14c0.058,0.157,0.117,0.315,0.174,0.47c0.129,0.354,0.253,0.703,0.376,1.05
		c0.061,0.173,0.123,0.347,0.183,0.518c0.117,0.336,0.23,0.668,0.341,0.997c0.058,0.173,0.117,0.346,0.173,0.517
		c0.108,0.326,0.213,0.648,0.315,0.967c0.054,0.168,0.107,0.335,0.159,0.501c0.1,0.317,0.197,0.631,0.292,0.941
		c0.049,0.162,0.097,0.323,0.145,0.483c0.093,0.311,0.183,0.619,0.27,0.924c0.042,0.148,0.083,0.294,0.124,0.44
		c0.087,0.312,0.174,0.622,0.256,0.927c0.034,0.126,0.065,0.249,0.098,0.374c0.084,0.321,0.168,0.641,0.246,0.954
		c0.019,0.077,0.037,0.152,0.056,0.229c0.39,1.58,0.705,3.072,0.951,4.477c0.003,0.019,0.007,0.039,0.011,0.058
		c0.054,0.312,0.104,0.617,0.152,0.921c0.011,0.068,0.023,0.139,0.033,0.206c0.044,0.284,0.083,0.563,0.121,0.839
		c0.011,0.082,0.023,0.165,0.034,0.246c0.036,0.27,0.068,0.535,0.099,0.798c0.009,0.082,0.019,0.164,0.029,0.246
		c0.029,0.26,0.055,0.517,0.079,0.771c0.007,0.078,0.015,0.156,0.021,0.233c0.023,0.256,0.044,0.508,0.062,0.757
		c0.005,0.066,0.009,0.132,0.014,0.198c0.017,0.257,0.032,0.511,0.045,0.761c0.002,0.047,0.004,0.094,0.006,0.141
		c0.012,0.265,0.022,0.527,0.029,0.784c0,0.016,0,0.032,0.001,0.048c0.096,4.019-0.48,7.029-1.305,9.256
		c-1.349,3.636-3.492,5.561-5.306,6.579c-1.814-1.016-3.958-2.942-5.306-6.578c-0.172-0.465-0.333-0.967-0.479-1.502
		c-0.005-0.019-0.011-0.036-0.016-0.056c-0.035-0.129-0.069-0.261-0.102-0.394c-0.017-0.069-0.034-0.137-0.05-0.206
		c-0.031-0.129-0.06-0.26-0.09-0.392c-0.017-0.079-0.034-0.158-0.051-0.239c-0.027-0.13-0.053-0.26-0.078-0.394
		c-0.016-0.088-0.032-0.177-0.048-0.266c-0.023-0.132-0.046-0.265-0.068-0.4c-0.015-0.096-0.029-0.195-0.044-0.293
		c-0.019-0.133-0.039-0.266-0.057-0.403c-0.014-0.109-0.027-0.222-0.04-0.333c-0.015-0.131-0.031-0.26-0.045-0.394
		c-0.013-0.131-0.024-0.266-0.036-0.399c-0.011-0.121-0.022-0.24-0.031-0.363c-0.019-0.256-0.036-0.517-0.048-0.783
		c-0.003-0.058-0.004-0.119-0.006-0.177c-0.009-0.217-0.018-0.436-0.022-0.661c-0.002-0.095-0.002-0.194-0.003-0.29
		c-0.002-0.193-0.005-0.386-0.004-0.584c0-0.107,0.003-0.217,0.004-0.325C141.143,41.706,141.146,41.513,141.151,41.316z
		 M113.884,61.501c-0.358-0.249-0.723-0.495-1.09-0.741c-0.137-0.092-0.274-0.183-0.412-0.274c-0.344-0.227-0.691-0.454-1.043-0.679
		c-0.179-0.114-0.361-0.228-0.542-0.341c-0.428-0.269-0.859-0.536-1.299-0.801c-0.395-0.239-0.792-0.477-1.197-0.712
		c-0.233-0.135-0.472-0.269-0.709-0.403c-0.355-0.202-0.712-0.402-1.074-0.601c-0.228-0.125-0.457-0.249-0.687-0.373
		c-0.405-0.217-0.814-0.432-1.227-0.645c-0.195-0.101-0.389-0.202-0.586-0.301c-0.616-0.312-1.239-0.621-1.875-0.923
		c2.278-0.163,4.66-0.262,7.082-0.262c19.143,0,30.539,5.786,33.87,17.198c0.605,2.074,2.506,3.498,4.666,3.498
		c2.16,0,4.06-1.425,4.666-3.498c3.332-11.412,14.727-17.198,33.87-17.198c2.423,0,4.804,0.099,7.082,0.262
		c-0.636,0.303-1.259,0.611-1.875,0.923c-0.197,0.1-0.391,0.201-0.585,0.301c-0.413,0.213-0.823,0.428-1.227,0.645
		c-0.231,0.124-0.461,0.248-0.689,0.373c-0.361,0.198-0.715,0.398-1.069,0.598c-0.238,0.135-0.479,0.269-0.714,0.406
		c-0.382,0.222-0.755,0.446-1.129,0.671c-0.471,0.283-0.933,0.569-1.39,0.856c-0.17,0.107-0.34,0.213-0.508,0.32
		c-0.361,0.231-0.717,0.463-1.07,0.697c-0.124,0.082-0.248,0.165-0.371,0.247c-0.382,0.256-0.761,0.512-1.133,0.77
		c-14.344,9.951-21.495,21.758-24.273,27.314h-19.164C135.398,83.27,128.241,71.454,113.884,61.501z M173.716,111.223l-5.344,3.807
		l-20.612,14.682l-20.612-14.682l-5.344-3.807c7.911-5.29,16.702-8.243,25.956-8.243
		C157.014,102.98,165.805,105.933,173.716,111.223z M167.807,102.954c0.012-0.009,0.024-0.018,0.035-0.027
		c-0.008,0.01-0.016,0.021-0.024,0.032L167.807,102.954z M176.135,168.802l-28.374,19.97l-28.374-19.971l-4.904-3.451l33.277-23.703
		l33.278,23.704L176.135,168.802z M175.489,227.122l-27.729,19.899l-27.729-19.899l-4.885-3.506l32.615-22.955l32.613,22.955
		L175.489,227.122z M96.037,90.121c-0.512-0.255-1.038-0.508-1.577-0.759c-0.042-0.019-0.085-0.038-0.126-0.058
		c-0.466-0.217-0.943-0.432-1.429-0.645c-0.129-0.057-0.259-0.113-0.389-0.169c-0.422-0.183-0.852-0.365-1.29-0.546
		c-0.139-0.057-0.276-0.114-0.417-0.171c-0.529-0.215-1.068-0.429-1.619-0.639c-0.038-0.015-0.075-0.029-0.113-0.044
		c-0.593-0.226-1.201-0.45-1.821-0.671c-0.153-0.054-0.31-0.108-0.465-0.162c-0.464-0.163-0.935-0.324-1.414-0.484
		c-0.209-0.069-0.42-0.139-0.632-0.208c-0.46-0.15-0.927-0.298-1.401-0.445c-0.203-0.063-0.403-0.126-0.608-0.188
		c-0.672-0.204-1.354-0.406-2.054-0.604c3.3-0.73,7.148-1.234,11.484-1.234c12.446,0,25.203,4.123,38.018,12.274l-17.7,7.592
		c-0.008-0.01-0.016-0.021-0.023-0.031C109.9,99.454,105.03,94.593,96.037,90.121z M113.914,117.538l25.469,18.141l-33.326,23.739
		l-10.849-7.636l-2.217-1.56C98.018,136.972,105.23,125.728,113.914,117.538z M97.662,165.397l-9.134,6.506l-1.619,1.153
		c0.745-4.533,1.722-8.935,2.911-13.179 M85.184,194.39c0-0.389,0.015-0.772,0.018-1.158c0.022-2.422,0.098-4.825,0.246-7.2
		l20.641-14.702l33.227,23.387l-4.932,3.472l-27.601,19.427L85.42,202.284C85.267,199.681,85.184,197.049,85.184,194.39z
		 M87.556,219.311c-0.26-1.339-0.505-2.687-0.723-4.049l11.533,8.277l-8.393,5.907c-0.925-3.243-1.721-6.582-2.389-9.999
		C87.575,219.402,87.564,219.357,87.556,219.311z M94.306,241.849c-0.012-0.028-0.024-0.055-0.035-0.083
		c-0.371-0.89-0.733-1.787-1.083-2.696l13.541-9.531l32.695,23.463l-25.469,18.277C105.981,263.772,99.25,253.69,94.306,241.849z
		 M172.314,278.462c-0.335,0.21-0.673,0.411-1.011,0.612c-0.102,0.061-0.203,0.123-0.305,0.183c-0.426,0.25-0.856,0.492-1.287,0.728
		c-0.003,0.002-0.007,0.004-0.01,0.006c-6.831,3.749-14.223,5.809-21.94,5.809c-7.212,0-14.139-1.8-20.591-5.095
		c-0.004-0.002-0.008-0.005-0.012-0.007c-0.439-0.224-0.876-0.455-1.31-0.693c-0.034-0.019-0.068-0.038-0.102-0.057
		c-0.405-0.223-0.809-0.45-1.21-0.685c-0.126-0.074-0.251-0.15-0.376-0.225c-0.318-0.19-0.637-0.379-0.953-0.577
		c-0.457-0.286-0.912-0.577-1.363-0.878l25.917-18.598l25.917,18.6C173.225,277.885,172.771,278.176,172.314,278.462z
		 M201.2,241.882c-4.943,11.827-11.669,21.9-19.635,29.399l-20.632-14.807l-4.837-3.472l32.695-23.461l13.542,9.531
		c-0.349,0.906-0.711,1.801-1.08,2.688C201.235,241.801,201.217,241.841,201.2,241.882z M205.547,229.447l-8.394-5.909l11.534-8.277
		c0,0,0,0,0,0.001l0.001-0.001C207.904,220.152,206.848,224.892,205.547,229.447z M210.316,193.139
		c0.004,0.418,0.02,0.831,0.02,1.251c0,2.659-0.083,5.292-0.236,7.895l-21.363,15.33l-32.532-22.899l33.227-23.387l20.64,14.702
		C210.218,188.375,210.292,190.748,210.316,193.139z M205.701,159.878L205.701,159.878c0.273,0.972,0.531,1.954,0.78,2.942
		c0.023,0.09,0.049,0.179,0.072,0.27c0.014,0.053,0.025,0.109,0.038,0.163c0.794,3.19,1.471,6.46,2.021,9.803l-1.619-1.153
		l-5.257-3.745l-3.876-2.76 M202.53,150.223l-2.217,1.56l-10.848,7.635l-28.454-20.268l-4.874-3.472l25.469-18.141
		C190.291,125.728,197.504,136.974,202.53,150.223z M214.797,84.338c-19.344,5.469-28.024,13.541-31.758,18.621l-14.565-6.247
		c-0.007,0.003-0.014,0.006-0.021,0.01l-3.158-1.354c12.815-8.151,25.572-12.274,38.018-12.274c0.008,0,0.016,0,0.025,0
		c0.006,0,0.011,0,0.017,0c1.012,0,1.996,0.03,2.956,0.083c0.055,0.003,0.112,0.005,0.167,0.008
		c0.126,0.007,0.248,0.018,0.373,0.026c2.916,0.188,5.575,0.592,7.947,1.117c-0.008,0.002-0.015,0.005-0.023,0.007
		C214.782,84.335,214.789,84.337,214.797,84.338z"/>
	<path style="fill:#FFFFFF;" d="M167.807,102.954l0.012,0.005c0.008-0.011,0.016-0.022,0.024-0.032
		C167.831,102.936,167.819,102.945,167.807,102.954z"/>
</g>
<g>
</g>
<g>
</g>
<g>
</g>
<g>
</g>
<g>
</g>
<g>
</g>
<g>
</g>
<g>
</g>
<g>
</g>
<g>
</g>
<g>
</g>
<g>
</g>
<g>
</g>
<g>
</g>
<g>
</g>
</svg>
