<svg class="svg-icon" style="width: 1em; height: 1em;vertical-align: middle;fill: currentColor;overflow: hidden;" viewBox="0 0 1024 1024" version="1.1" xmlns="http://www.w3.org/2000/svg"><path d="M494.8 470.4c-3.8-39.8-28.1-245.4-128.5-316-3.1-2.2-2.8-6.9 0.6-8.7C413.2 120.8 483.1 111 552 298.8c52.1 144.8 30.2 146.1 30.2 146.1l-80.5 29.9c-3.2 1.2-6.6-1-6.9-4.4z" fill="#DFF487" /><path d="M529.8 453s21.9-1.3-30.2-146.1C456.9 190.6 413.8 150.1 376.2 142c-2.4 1.1-4.8 2.4-7.1 3.6-3.4 1.8-3.7 6.5-0.6 8.7 96.8 68 122.8 261.5 128 311l33.3-12.3z" fill="#7DC700" opacity=".74" /><path d="M494.9 467.8l-0.2-2.3c-5.8-55.8-32.2-242.9-127.2-309.8-2-1.4-3.1-3.6-2.9-6 0.1-2.4 1.5-4.6 3.7-5.7 2.3-1.3 4.7-2.5 7.2-3.6l0.5-0.3 0.6 0.1c45.9 9.8 87.9 65.7 124.7 166 39.5 109.6 37.1 138.5 32.2 145.9-1.2 1.8-2.5 2.3-3.2 2.5l-35.4 13.2zM376.4 143.9c-2.2 1.1-4.4 2.2-6.5 3.3-1.1 0.6-1.7 1.6-1.8 2.8-0.1 1.2 0.4 2.2 1.4 2.9 95 66.8 122.2 251.2 128.5 310l31.6-11.7c0.2-0.1 0.7-0.4 1.3-1.6 3.2-6.3 6.3-32.9-33-142.1-36.2-98.6-77.1-153.7-121.5-163.6z" fill="#7DC700" opacity=".74" /><path d="M499.9 478.7c-1.6 0-3.2-0.5-4.6-1.3-2.3-1.4-3.8-3.8-4-6.6-3.8-40.1-28-243.9-127-313.5-2.5-1.7-3.8-4.6-3.7-7.6 0.2-3.1 1.9-5.8 4.6-7.2 27.5-14.8 52.2-17.6 75.6-8.8 42 15.9 80.5 71 114.6 163.8 29.9 83 40.9 134 32 147.5-1.5 2.2-3.1 3-4.2 3.2l-80.3 29.9c-1 0.4-2 0.6-3 0.6z m-86.4-342.9c-14 0-28.8 4.3-44.9 13-0.7 0.4-0.9 1.1-0.9 1.3 0 0.3 0 0.9 0.6 1.3 101.5 71.4 126.1 277.9 130 318.6 0.1 0.7 0.5 1 0.7 1.2 0.2 0.2 0.7 0.4 1.4 0.1l80.8-30c1.4-1.4 12-17.4-32.6-141.4-33.3-90.7-70.4-144.4-110.4-159.5-8.1-3-16.3-4.6-24.7-4.6z" fill="#141010" /><path d="M497.1 300.7s-18.5-149-75.6-225.2c-1.5-2-0.1-5 2.4-5.1 30.9-1.4 98.3-3.1 142.4 158.9-17 31.5-4.9 99.1-4.9 99.1l-64.3-27.7z" fill="#DFF487" /><path d="M546.3 320.9c-12.2-173.1-77.7-230-123.2-247.3 0 0.6 0.2 1.3 0.6 1.9 57.1 76.2 75.6 225.2 75.6 225.2l47 20.2z" fill="#7DC700" opacity=".74" /><path d="M548.3 323.7l-50.6-21.8-0.1-1c-0.2-1.5-19.1-149.4-75.3-224.3-0.6-0.9-1-1.9-1-2.9V71l2.4 0.9c41 15.5 111.7 68.5 124.4 248.8l0.2 3zM501 299.4l43.4 18.7C531.7 148.9 467.6 94.6 427.2 77.2c52.7 73.1 72 209.1 73.8 222.2z" fill="#7DC700" opacity=".74" /><path d="M566.1 334.2l-72.3-31.1-0.3-2c-0.2-1.5-19-149-74.9-223.5-1.5-2-1.8-4.6-0.7-6.9 1.1-2.3 3.3-3.8 5.8-3.9 30.1-1.4 100.7-4.7 146.1 161.5l0.4 1.4-0.7 1.3c-16.2 30-4.7 96.1-4.5 96.7l1.1 6.5z m-65.7-36l56.5 24.3c-2.6-17.7-8-66.6 5.6-93.6C518.7 69.5 452.4 72.7 424.1 74c54.3 71.5 73.8 205.3 76.3 224.2z" fill="#141010" /><path d="M434.1 445c31.7-159.4 97.7-355.9 228.8-333.7 0.6 0.1 1.2 0.4 1.5 0.9 9.9 14.6-98.9 92.3-105.7 338.8-1.5 53.1-71.2 89.8-72.9 88.8 0 0-70.8 0.8-51.7-94.8z" fill="#DFF487" /><path d="M663.2 117c-0.3-0.5-0.9-0.8-1.5-0.9-5.4-0.9-10.7-1.4-15.9-1.6-95.1 78.8-150.4 261.3-181.5 417.5-0.5 2.6-0.9 5.1-1.3 7.6 11.5 5 21.6 4.9 21.6 4.9 1.8 1 71.5-35.7 72.9-88.8 6.9-246.4 115.7-324.1 105.7-338.7z" fill="#7DC700" opacity=".74" /><path d="M484.6 546.4h-0.4c-1.9 0-11.3-0.4-22-5.1l-1.3-0.6 0.5-2.9c0.3-2 0.7-4.1 1.1-6.2 29.1-146.2 84.3-337.5 182.1-418.6l0.5-0.4h0.7c5.4 0.2 10.8 0.8 16.1 1.6 1.2 0.2 2.1 0.8 2.7 1.6 3.3 4.8-2 12.6-12.5 28.1-26.2 39.1-87.7 130.1-92.8 312-1.4 49.5-59.7 83.2-66.3 86.9-5.4 2.9-7.4 3.6-8.4 3.6z m-19.7-7.8c10.6 4.3 19.6 4.4 19.6 4.2h0.1c5.3-1.4 69.7-37.1 71-87 5.1-182.9 67.1-274.5 93.5-313.7 8.3-12.3 14.3-21.2 12.5-24-5.3-1-10.4-1.5-15.4-1.7C549.8 197 495 387 466 532.4c-0.4 2.1-0.8 4.1-1.1 6.1v0.1z" fill="#7DC700" opacity=".74" /><path d="M485.7 547c-0.2 0-0.4 0-0.6-0.1-4.4-0.1-27.4-1.6-43.2-20.6-14.5-17.4-18.3-43.8-11.4-78.5 33-165.9 100.2-358.9 233-336.5 1.7 0.3 3.1 1.1 3.9 2.4 3.9 5.8-1.5 13.9-12.5 30.1-26.2 38.7-87.6 129.5-92.6 310.8-1.4 50.5-60.6 84.7-67.3 88.5-5.4 3.1-7.8 3.9-9.3 3.9z m-48.1-97.7c-6.4 32.4-3.1 56.7 9.8 72.4 14.3 17.3 36.2 18.1 38.2 18.1 6.8-2.3 68.2-36.5 69.5-85.3 5.1-183.4 67.3-275.4 93.8-314.6 5.9-8.7 12.5-18.5 12.6-21.6-126.1-20.6-191.6 168.5-223.9 331z" fill="#141010" /><path d="M523.9 198.3c-8.4 0.3-16.6 0.4-24.6 1.1-8.4 0.8-16.4 2.3-24.4 3.7-8.3 1.4-16.4 2.7-24.2 4.8-8.1 2.1-15.8 4.9-23.4 7.6-7.9 2.8-15.6 5.5-22.9 8.9-7.5 3.5-14.6 7.7-21.6 11.9-7.1 4.2-14.2 8.5-20.7 13.3-6.6 4.9-12.7 10.5-18.7 16s-12.1 11.1-17.6 17.3c-5.4 6.1-10.3 12.7-15.2 19.4-4.8 6.6-9.7 13.2-14 20.2-4.2 6.9-7.8 14.3-11.5 21.7-3.6 7.2-7.4 14.6-10.6 22.2-3.1 7.5-5.6 15.3-8.2 23.2-2.6 7.7-5.3 15.4-7.5 23.5-2.1 7.8-3.6 15.9-5.4 24-1.7 7.9-3.6 15.9-4.9 24.1-1.3 8-2 16.2-2.9 24.5-0.9 8.1-2.1 16.2-2.7 24.5-0.6 8.1-0.6 16.3-0.9 24.6-0.3 8.1-0.8 16.3-0.8 24.6 0 7.8 0.5 15.4 0.6 22.9 0.2 7.8 0 15.5 0.4 22.9 0.4 7.8 1.3 15.4 1.9 22.8 0.7 7.8 1 15.4 2 22.8 1 7.8 2.5 15.3 3.8 22.6 1.4 7.7 2.6 15.3 4.3 22.5 1.9 7.6 4.4 14.8 6.7 21.9 2.5 7.4 4.9 14.7 7.9 21.5 3.2 7.1 7.1 13.7 10.9 20.1 4 6.6 8 13.1 12.7 19 4.8 6 10.3 11.3 15.8 16.5 5.5 5.2 11.2 10.3 17.5 14.7 6.1 4.3 12.8 7.9 19.7 11.6 6.5 3.5 13.3 7 20.6 10 6.9 2.8 14.2 4.9 21.7 7.2 7.1 2.1 14.3 4.4 22 6.2 7.2 1.6 14.8 2.7 22.6 3.9 7.3 1.2 14.8 2.6 22.6 3.5 7.4 0.8 15 1.2 22.8 1.7 7.4 0.5 15 1.4 22.8 1.7 7.4 0.3 15.1 0.1 22.9 0.2 7.8-0.1 15.5 0.1 22.9-0.2 7.8-0.3 15.4-1.2 22.8-1.7 7.8-0.6 15.5-0.9 22.8-1.7 7.8-0.9 15.3-2.3 22.6-3.5 7.8-1.3 15.4-2.3 22.6-3.9 7.7-1.7 15-4 22.1-6.2 7.6-2.3 14.9-4.4 21.7-7.2 7.3-2.9 14.1-6.5 20.6-10 6.9-3.7 13.6-7.3 19.7-11.6 6.3-4.5 12-9.6 17.5-14.7 5.6-5.2 11.1-10.6 15.8-16.5 4.7-5.9 8.8-12.4 12.7-19 3.9-6.4 7.7-13 10.9-20.1 3.1-6.8 5.4-14 7.9-21.5 2.4-7 4.9-14.3 6.7-21.9 1.8-7.2 3-14.7 4.3-22.5 1.3-7.3 2.8-14.8 3.8-22.6 0.9-7.4 1.3-15 2-22.8 0.6-7.4 1.5-15 1.9-22.8 0.4-7.4 0.2-15.1 0.4-22.9 0.2-7.5 0.6-15.1 0.6-22.9 0-8.3-0.5-16.5-0.8-24.6-0.3-8.3-0.3-16.5-0.9-24.6-0.6-8.3-1.8-16.4-2.7-24.5-0.9-8.3-1.7-16.5-2.9-24.5-1.3-8.2-3.2-16.2-4.9-24.1-1.7-8.1-3.3-16.2-5.4-24-2.2-8-4.9-15.8-7.5-23.5-2.6-7.9-5.1-15.7-8.2-23.2-3.2-7.7-6.9-15-10.6-22.2-3.7-7.4-7.3-14.8-11.5-21.8-4.3-7.1-9.2-13.7-14-20.2-4.9-6.7-9.7-13.3-15.2-19.4-5.5-6.1-11.5-11.7-17.6-17.2-6-5.5-12.1-11.1-18.7-16-6.5-4.9-13.6-9.1-20.7-13.3-7-4.2-14.1-8.3-21.6-11.9-7.3-3.4-15.1-6.2-22.9-8.9-7.6-2.7-15.3-5.5-23.4-7.6-7.8-2-15.9-3.3-24.2-4.8-7.9-1.4-16-2.8-24.4-3.7-7.1-0.8-15.3-0.9-23.7-1.1z" fill="#FEF12F" /><path d="M521.7 194.2C429.5 304.5 374.8 442 374.8 591c0 92.1 21 179.8 58.7 259.4 25 3.7 52.9 5.8 84.1 6.2 226.2-3 282.5-89.9 282.5-298.6 0-206.8-86.2-355.9-278.4-363.8z" fill="#FEDF00" /><path d="M561.1 500.5c-24.7 24.7-64.9 24.7-89.6 0-11.7-11.7-30.7-11.7-42.4 0s-11.7 30.7 0 42.4c11.8 11.8 25.5 20.9 40.8 27.1 14.8 6 30.4 9 46.4 9s31.7-3.1 46.4-9c15.3-6.2 29-15.3 40.8-27.1 11.7-11.7 11.7-30.7 0-42.4s-30.7-11.7-42.4 0z" fill="#ED4A5E" /><path d="M515 194.2c-5.9 0-11.7 0.1-17.5 0.4 135.3 47 197 184 197 361.8 0 176.3-44.9 271.2-180.3 299.8h0.7c228.3 7.5 294.5-86.2 294.5-298.3 0.1-212.2-90.8-363.7-294.4-363.7z" fill="#FFC200" /><path d="M646.9 757.4c-1 0-2-0.2-3-0.7-3.6-1.7-5.1-5.9-3.5-9.5 6.6-14.1 11.9-29.6 16.3-47.2 0.9-3.8 4.8-6.2 8.7-5.2 3.8 0.9 6.2 4.8 5.2 8.7-4.6 18.6-10.2 34.9-17.2 49.8-1.2 2.5-3.8 4.1-6.5 4.1zM669.7 679.4c-0.4 0-0.8 0-1.2-0.1-3.9-0.6-6.5-4.3-5.9-8.2 3.6-22.1 5.9-46.5 7-74.5 0.2-3.9 3.6-7.2 7.4-6.9 4 0.1 7 3.5 6.9 7.4-1.1 28.6-3.4 53.5-7.1 76.3-0.7 3.5-3.7 6-7.1 6z" fill="#FFFFFF" /><path d="M561.1 498.8c-24.7 24.7-64.9 24.7-89.6 0-10.9-10.9-28.2-11.6-40-2.2 11.2 10.7 24.1 26.7 38.4 32.5 14.8 6 30.4 9 46.4 9s31.7-3.1 46.4-9c14.3-5.8 27.2-21.9 38.4-32.5-11.7-9.5-29.1-8.8-40 2.2z" fill="#CC3B54" /><path d="M539.1 538.9v-24.5c-14.6 6-30.9 6.3-45.6 1v23.5c0 7.8 6.3 14.1 14.1 14.1H525c7.8 0 14.1-6.3 14.1-14.1z" fill="#FFFFFF" /><path d="M525 556.5h-17.4c-9.7 0-17.7-7.9-17.7-17.7v-28.5l4.8 1.7c14.1 5 29.3 4.7 43.1-1l4.9-2v29.8c0 9.8-7.9 17.7-17.7 17.7z m-27.9-36.2v18.6c0 5.8 4.7 10.5 10.5 10.5H525c5.8 0 10.5-4.7 10.5-10.5v-19.3c-12.4 3.9-25.8 4.2-38.4 0.7z" fill="#211919" /><path d="M603.6 500.5c-11.7-11.7-30.7-11.7-42.4 0-4 4-8.4 7.3-13.1 10 1.4 8.3 2.2 17 2.2 25.9 0 13.8-1.8 27-5 39.3 6-1.4 11.9-3.3 17.6-5.6 15.3-6.2 29-15.3 40.8-27.1 11.6-11.8 11.6-30.8-0.1-42.5z" fill="#CC3B54" /><path d="M516.3 582.6c-16.5 0-32.5-3.1-47.8-9.3-15.8-6.4-29.9-15.8-42-27.9-6.3-6.3-9.8-14.8-9.8-23.7 0-9 3.5-17.4 9.8-23.7 12.7-12.7 34.8-12.7 47.5 0 23.3 23.3 61.2 23.3 84.6 0 12.7-12.7 34.8-12.7 47.5 0 13.1 13.1 13.1 34.4 0 47.5-12.1 12.1-26.2 21.5-42 27.9-15.3 6.1-31.3 9.2-47.8 9.2z m-66-87.3c-7.1 0-13.7 2.8-18.7 7.7-5 5-7.7 11.6-7.7 18.7s2.8 13.7 7.7 18.7c11.4 11.4 24.8 20.3 39.6 26.3 28.7 11.6 61.4 11.7 90.2 0 14.9-6 28.2-14.9 39.6-26.3 10.3-10.3 10.3-27.1 0-37.4-10-10-27.4-10-37.4 0-26.1 26.1-68.6 26.1-94.7 0-4.9-5-11.5-7.7-18.6-7.7zM438.8 334.1s33.2-3.9 79.8-3.9 76.8 3.9 76.8 3.9" fill="#211919" /><path d="M438.8 348.4c-7.2 0-13.3-5.4-14.2-12.6-0.9-7.8 4.7-14.9 12.6-15.8 1.4-0.2 34.6-4 81.5-4 47 0 77.4 3.8 78.7 4 7.8 1 13.4 8.2 12.4 16s-8.3 13.4-16 12.4c-0.3 0-30-3.7-75-3.7-45.3 0-77.9 3.7-78.2 3.8-0.7-0.1-1.3-0.1-1.8-0.1z" fill="#211919" /><path d="M504.7 863.6h-0.8c-4.8-0.2-9.1-2.1-13.2-3.9-3.4-1.5-6.6-2.9-9.6-3.1-3.3-0.3-6.8 0.7-10.5 1.7-4.2 1.1-8.6 2.3-13 1.8-4.8-0.6-9-2.8-13-5-3.2-1.7-6.3-3.4-9.2-3.9-3.2-0.5-6.8 0.1-10.6 0.7-4.4 0.7-8.9 1.5-13.3 0.5-4.8-1.1-8.7-3.9-12.5-6.6-2.9-2.1-5.7-4-8.4-4.9-3.1-0.9-6.6-0.9-10.4-0.8-4.5 0.1-9.2 0.2-13.5-1.6-4.7-1.9-8.1-5.4-11.4-8.8-2.5-2.5-4.8-4.9-7.3-6.2-2.7-1.5-6.1-2.2-9.7-2.9-4.6-0.9-9.3-1.9-13.2-4.7-4.1-2.9-6.6-7.3-9-11.4-1.7-3-3.4-5.9-5.5-7.9s-5.1-3.6-8.3-5.2c-4.3-2.2-8.7-4.4-11.8-8.3-3-3.8-4.2-8.6-5.3-13.2-0.9-3.5-1.7-6.8-3.2-9.4-1.5-2.5-3.9-4.7-6.6-7.1-3.5-3.2-7.2-6.5-9.2-11.1-1.9-4.3-1.9-9-2-13.6 0-3.7-0.1-7.3-1.1-10.3-0.9-2.8-2.9-5.5-5.1-8.4-2.8-3.8-5.6-7.6-6.8-12.4-1.1-4.4-0.4-9 0.3-13.4 0.6-3.8 1.1-7.3 0.6-10.5-0.5-2.9-2.2-5.9-4-9.1-2.2-4-4.5-8.2-5.1-13-0.6-4.4 0.6-8.8 1.7-13.1 1-3.7 1.9-7.3 1.6-10.6-0.3-3-1.7-6.2-3.2-9.6-1.9-4.1-3.8-8.4-4-13.2-0.2-4.4 1.2-8.7 2.6-12.9 1.2-3.7 2.4-7.2 2.3-10.5-0.1-3-1.3-6.3-2.7-9.9-1.6-4.2-3.3-8.5-3.3-13.2 0-4.9 1.7-9.6 3.3-14 1.4-3.8 2.7-7.4 2.8-10.8 0.1-3.5-0.9-7.3-2.1-11.2-1.3-4.5-2.6-9.2-2.3-14 0.4-4.9 2.4-9.4 4.4-13.8 1.7-3.7 3.2-7.1 3.6-10.5 0.4-3.5-0.4-7.3-1.2-11.3-0.9-4.6-1.9-9.4-1.1-14.1 0.8-4.9 3.2-9.3 5.6-13.4 2-3.5 3.8-6.8 4.5-10 0.7-3.4 0.3-7.2-0.1-11.3-0.5-4.7-1-9.6 0.3-14.3 1.3-4.9 4.2-8.9 7.1-12.9 2.3-3.2 4.5-6.2 5.5-9.4 1.1-3.3 1.2-7.1 1.2-11.2 0.1-4.8 0.2-9.7 2-14.3 1.9-4.7 5.4-8.4 8.7-12 2.7-2.9 5.2-5.6 6.7-8.5 1.5-3.1 2.1-6.8 2.8-10.7 0.8-4.8 1.6-9.7 4.2-14 2.6-4.4 6.7-7.5 10.6-10.5 3.1-2.4 6-4.6 7.9-7.3 2-2.7 3.2-6.2 4.5-10 1.6-4.6 3.3-9.4 6.6-13.2 3.4-3.9 8-6.1 12.4-8.4 3.5-1.8 6.8-3.4 9.2-5.6 2.4-2.3 4.3-5.4 6.3-8.8 2.5-4.3 5.2-8.7 9.3-11.8 4.1-3.1 9-4.4 13.8-5.7 3.8-1 7.4-2 10.2-3.7 2.8-1.7 5.2-4.4 7.9-7.2 3.4-3.7 6.9-7.5 11.6-9.7 4.5-2.1 9.6-2.4 14.5-2.7 4-0.2 7.7-0.5 10.9-1.6 3.1-1.1 6-3.3 9.1-5.6 4-2.9 8.1-6 13.2-7.3 4.8-1.2 9.7-0.6 14.5-0.1 4 0.5 7.8 0.9 11.2 0.3 3.2-0.6 6.5-2.2 10-4 4.4-2.2 8.9-4.5 14.1-5 4.9-0.4 9.6 0.9 14.1 2.1 3.9 1.1 7.7 2.2 11.1 2h0.2c3.6 0.2 7.2-0.9 11.1-2 4.6-1.3 9.3-2.5 14.1-2.1 5.1 0.5 9.7 2.8 14.1 5 3.5 1.8 6.8 3.4 10 4 3.4 0.6 7.2 0.1 11.2-0.3 4.8-0.6 9.7-1.2 14.5 0.1 5 1.3 9.2 4.4 13.2 7.3 3.1 2.3 6 4.5 9.1 5.5 3.2 1.2 6.9 1.4 10.9 1.6 4.9 0.3 9.9 0.6 14.5 2.7 4.7 2.2 8.2 6 11.5 9.7 2.6 2.8 5.1 5.5 7.9 7.2 2.9 1.7 6.4 2.7 10.2 3.7 4.8 1.3 9.7 2.6 13.8 5.6 4.1 3.1 6.7 7.5 9.3 11.8 2 3.3 3.9 6.5 6.3 8.7 2.4 2.2 5.7 3.9 9.2 5.6 4.4 2.2 9 4.5 12.4 8.4 3.4 3.8 5 8.6 6.7 13.2 1.3 3.7 2.6 7.2 4.5 10 1.9 2.7 4.9 4.9 8 7.3 3.9 3 8 6.1 10.6 10.5 2.5 4.3 3.4 9.2 4.2 14 0.7 3.9 1.3 7.7 2.8 10.7 1.5 3 4 5.7 6.7 8.5 3.4 3.6 6.8 7.2 8.8 12 1.8 4.5 1.9 9.5 2 14.2 0.1 4.1 0.1 7.9 1.2 11.2 1 3.1 3.2 6.2 5.5 9.4 2.8 3.9 5.8 8 7.1 12.9 1.3 4.7 0.8 9.6 0.3 14.3-0.4 4.1-0.8 7.9-0.1 11.3 0.7 3.3 2.5 6.6 4.5 10 2.4 4.2 4.8 8.5 5.6 13.5 0.8 4.8-0.2 9.5-1.1 14.1-0.8 4-1.6 7.8-1.2 11.3 0.4 3.4 2 6.8 3.6 10.5 2 4.3 4 8.8 4.4 13.8 0.4 4.8-1 9.5-2.3 14-1.1 4-2.2 7.7-2.1 11.2 0.1 3.4 1.4 7 2.8 10.8 1.6 4.5 3.3 9.1 3.3 14 0 4.7-1.7 9-3.3 13.2-1.4 3.5-2.6 6.8-2.7 9.9-0.1 3.3 1.1 6.8 2.3 10.5 1.4 4.1 2.8 8.4 2.6 12.9-0.2 4.7-2.1 9-4 13.1-1.5 3.4-3 6.6-3.2 9.6-0.3 3.3 0.7 6.8 1.6 10.5 1.1 4.3 2.3 8.6 1.7 13.1-0.6 4.8-2.9 8.9-5.1 12.9-1.8 3.2-3.4 6.2-4 9.1-0.6 3.2 0 6.7 0.6 10.5 0.7 4.4 1.4 8.9 0.3 13.3-1.2 4.8-4 8.7-6.8 12.4-2.1 2.9-4.1 5.6-5.1 8.4-1 3-1 6.5-1 10.2 0 4.6-0.1 9.3-2 13.6-2 4.6-5.7 7.9-9.2 11.1-2.6 2.4-5.1 4.6-6.5 7.1-1.5 2.6-2.4 5.9-3.2 9.4-1.1 4.6-2.3 9.3-5.3 13.2-3.1 3.9-7.5 6.2-11.7 8.4-3.1 1.6-6.1 3.1-8.3 5.2-2.1 2-3.7 4.9-5.5 7.9-2.4 4.2-4.8 8.5-8.9 11.4-3.9 2.8-8.6 3.8-13.2 4.7-3.6 0.7-7 1.4-9.7 2.9-2.5 1.4-4.8 3.7-7.3 6.3-3.3 3.4-6.8 7-11.4 8.9-4.3 1.7-8.9 1.7-13.5 1.6-3.8-0.1-7.3-0.1-10.4 0.8-2.8 0.9-5.5 2.8-8.4 4.9-3.8 2.7-7.7 5.5-12.6 6.6-4.4 1-8.9 0.3-13.3-0.5-3.8-0.6-7.4-1.2-10.6-0.7-2.9 0.5-6 2.1-9.2 3.9-4 2.2-8.2 4.5-13.1 5-4.3 0.5-8.8-0.7-13.1-1.8-3.8-1-7.2-1.9-10.6-1.7-3 0.2-6.2 1.6-9.6 3.1-4.1 1.8-8.4 3.7-13.2 3.9-4.4 0.2-8.7-1.3-12.8-2.7-3.7-1.3-6.9-2.3-10.4-2.4-3.6-0.2-6.9 1.2-10.6 2.4-3.6 1.8-7.6 3.2-11.8 3.2z m-24.6-14.3c0.5 0 1.1 0 1.6 0.1 4.2 0.3 8.1 2.1 11.9 3.7 3.7 1.6 7.2 3.2 10.6 3.3 2.9 0.1 6.5-1.1 10.2-2.3 4.1-1.4 8.1-2.9 12.9-2.8 4.3 0 8.7 1.4 12.8 2.8 3.6 1.2 7.4 2.6 10.2 2.3 3.4-0.1 6.9-1.7 10.6-3.3 3.8-1.7 7.7-3.4 11.9-3.7 4.6-0.3 8.8 0.8 13 1.9 3.8 1 7.3 1.9 10.4 1.6 3.4-0.4 6.9-2.2 10.5-4.2 3.6-1.9 7.3-4 11.4-4.6 4.4-0.7 8.7 0 12.9 0.7 3.9 0.6 7.5 1.2 10.6 0.5 3.4-0.8 6.6-3.1 10-5.5 3.3-2.3 6.6-4.7 10.5-5.9 4.2-1.3 8.5-1.2 12.6-1.2 3.9 0.1 7.7 0.1 10.7-1.1 3.3-1.3 6.1-4.2 9-7.2 2.7-2.8 5.5-5.7 9-7.6 3.7-2 7.7-2.8 11.7-3.6 4-0.8 7.8-1.6 10.5-3.5 2.8-2 4.8-5.5 6.9-9.2 1.9-3.4 3.9-6.8 6.7-9.5 2.9-2.8 6.5-4.6 9.9-6.4 3.7-1.9 7.3-3.7 9.4-6.4 2.1-2.6 3-6.4 4-10.4 0.9-3.8 1.9-7.8 4-11.3 2-3.4 5-6.1 7.9-8.8 3.1-2.8 6-5.5 7.5-8.7 1.3-2.9 1.3-6.7 1.3-10.7 0-4.1 0.1-8.4 1.4-12.4 1.3-3.8 3.7-7.2 6.1-10.4 2.5-3.3 4.8-6.5 5.6-9.9 0.7-3 0.2-6.7-0.4-10.6-0.6-4.2-1.3-8.5-0.5-12.8 0.7-4.1 2.8-7.8 4.7-11.3 2-3.6 3.9-6.9 4.3-10.4 0.4-3.1-0.5-6.6-1.5-10.4-1.1-4.2-2.2-8.4-1.8-12.9 0.3-4.2 2.1-8.1 3.8-11.9 1.7-3.7 3.2-7.1 3.4-10.5 0.2-3.1-1-6.6-2.2-10.2-1.4-4.1-2.8-8.4-2.7-12.9 0.1-4.3 1.7-8.3 3.2-12.3 1.4-3.7 2.8-7.3 2.8-10.6 0-3.7-1.4-7.5-2.9-11.6-1.5-4.2-3.1-8.5-3.3-13-0.2-4.6 1.1-9.1 2.4-13.4 1.2-4.1 2.3-8 2-11.5-0.3-3.7-2-7.4-3.7-11.4-1.8-4-3.7-8.2-4.2-12.7-0.5-4.6 0.4-9.2 1.3-13.5 0.8-4.2 1.6-8.1 1.1-11.6-0.6-3.7-2.6-7.3-4.8-11-2.1-3.8-4.4-7.7-5.3-12.1-0.9-4.5-0.5-9.1 0-13.5 0.4-4.3 0.8-8.3-0.1-11.7-1-3.6-3.4-7-5.9-10.5-2.5-3.5-5.2-7.1-6.5-11.3-1.4-4.3-1.5-8.9-1.6-13.3-0.1-4.3-0.2-8.4-1.5-11.7-1.4-3.5-4.3-6.5-7.3-9.7-2.9-3.1-6-6.3-7.9-10.3-2-4-2.7-8.5-3.4-12.7-0.7-4.3-1.4-8.4-3.3-11.5-1.9-3.2-5.3-5.8-8.8-8.5-3.4-2.6-6.9-5.2-9.4-8.8-2.6-3.6-4.1-7.7-5.5-11.8-1.5-4.2-2.9-8.1-5.3-10.9-2.5-2.8-6.3-4.7-10.2-6.7-3.8-1.9-7.7-3.8-10.8-6.8-3.2-2.9-5.4-6.7-7.6-10.3-2.3-3.8-4.5-7.5-7.4-9.7-2.9-2.2-7-3.3-11.3-4.4-4.1-1.1-8.3-2.2-12.1-4.5-3.7-2.2-6.6-5.4-9.4-8.5-3-3.3-5.9-6.4-9.3-8-3.3-1.5-7.4-1.8-11.8-2-4.3-0.3-8.7-0.5-12.9-2-4-1.4-7.5-4-10.9-6.5-3.6-2.7-7-5.2-10.7-6.1-3.4-0.9-7.5-0.4-11.8 0.1-4.3 0.5-8.8 1.1-13.3 0.3-4.2-0.7-8.2-2.7-12-4.6-4-2-7.7-3.9-11.5-4.3-3.4-0.4-7.4 0.7-11.5 1.9-4.2 1.2-8.4 2.4-13.2 2.3-4.7 0.2-8.9-1.1-13.2-2.3-4.1-1.1-8-2.3-11.5-1.9-3.8 0.4-7.6 2.3-11.6 4.3-3.8 1.9-7.7 3.9-12 4.7-4.5 0.8-8.9 0.2-13.3-0.3-4.3-0.5-8.4-1-11.9-0.1-3.7 1-7.1 3.5-10.7 6.1-3.4 2.5-6.9 5.1-10.9 6.5-4.2 1.5-8.6 1.8-12.9 2-4.4 0.3-8.5 0.5-11.8 2.1-3.4 1.6-6.3 4.8-9.3 8.1-2.8 3.1-5.8 6.3-9.4 8.5-3.7 2.3-8 3.4-12.1 4.5-4.3 1.2-8.4 2.2-11.3 4.5-3 2.3-5.2 5.9-7.4 9.7-2.2 3.6-4.4 7.4-7.6 10.3-3.2 2.9-7.1 4.9-10.8 6.8-4 2-7.8 3.9-10.2 6.7-2.4 2.8-3.8 6.7-5.3 10.9-1.4 4-2.9 8.2-5.5 11.8-2.5 3.5-6 6.2-9.4 8.8-3.5 2.7-6.9 5.3-8.8 8.5-1.8 3.1-2.5 7.2-3.2 11.5-0.7 4.3-1.4 8.7-3.4 12.7-1.9 3.9-5 7.1-7.9 10.3-3 3.2-5.9 6.3-7.3 9.7-1.3 3.3-1.4 7.4-1.5 11.7-0.1 4.4-0.2 8.9-1.6 13.3-1.4 4.2-4 7.8-6.5 11.3-2.6 3.6-5 6.9-5.9 10.5-0.9 3.4-0.5 7.4-0.1 11.7 0.4 4.4 0.9 9 0 13.5-0.9 4.4-3.1 8.3-5.3 12.1-2.1 3.8-4.2 7.4-4.8 11-0.6 3.5 0.2 7.4 1.1 11.6 0.9 4.4 1.8 8.9 1.3 13.5-0.5 4.5-2.4 8.6-4.2 12.6-1.8 3.9-3.5 7.7-3.7 11.3-0.3 3.5 0.9 7.4 2 11.5 1.2 4.3 2.5 8.8 2.4 13.5-0.2 4.5-1.7 8.8-3.3 13-1.5 4.1-2.9 7.9-2.9 11.6 0 3.4 1.4 6.9 2.8 10.6 1.5 3.9 3.1 8 3.2 12.3 0.1 4.5-1.3 8.8-2.7 12.9-1.2 3.7-2.4 7.2-2.2 10.3 0.2 3.4 1.7 6.9 3.4 10.6 1.7 3.8 3.5 7.7 3.8 11.9 0.4 4.5-0.7 8.8-1.8 12.9-1 3.8-1.9 7.3-1.5 10.4 0.4 3.4 2.3 6.8 4.3 10.4 2 3.6 4 7.3 4.8 11.4 0.8 4.3 0.1 8.7-0.5 12.9-0.6 3.9-1.2 7.6-0.4 10.6 0.8 3.4 3.2 6.5 5.6 9.9 2.4 3.2 4.8 6.5 6.1 10.4 1.3 4.1 1.4 8.3 1.4 12.5 0 4 0.1 7.8 1.4 10.7 1.4 3.2 4.4 5.9 7.5 8.7 2.9 2.6 5.9 5.3 7.9 8.7 2.1 3.5 3.1 7.5 4 11.3 1 4 1.9 7.8 4 10.5s5.7 4.5 9.4 6.4c3.5 1.8 7 3.6 9.9 6.3 2.8 2.7 4.8 6.2 6.7 9.5 2.1 3.7 4.1 7.1 6.9 9.2 2.6 1.9 6.4 2.7 10.4 3.5 3.9 0.8 8 1.6 11.7 3.6 3.5 1.9 6.3 4.8 9 7.6 2.9 3 5.7 5.9 9 7.2 2.9 1.2 6.7 1.1 10.6 1.1 4.1-0.1 8.4-0.1 12.6 1.1 3.9 1.2 7.2 3.6 10.5 5.9 3.4 2.4 6.5 4.7 9.9 5.4 3 0.7 6.7 0.1 10.5-0.6 4.2-0.7 8.5-1.4 12.9-0.7 4.1 0.7 7.8 2.7 11.4 4.6 3.6 1.9 7 3.8 10.4 4.2 3 0.4 6.6-0.6 10.3-1.6 3.1-1.4 6.9-2.4 10.8-2.4z" fill="#211919" /><path d="M800.3 459.7s59.8 55.8 69.5 115.9c6.6 40.9 23.1 163.8-40.8 156.1-19.4 0.8-42.3-31-21.6-73.5 9.3-19.1-5.4-39.8-10.5-56.5-6.3-20.6-12.1-12-12.1-12l15.5-130z" fill="#FFC200" /><path d="M832.8 736.9c-9.7 0-20.2-4.8-27.4-12.8-5.8-6.3-12.1-17.4-9.8-34.4 0.3-1.8 0.4-3.8 0.6-5.9 0.4-5.4 1-11.6 2.9-16.6 5.2-13.4 4.5-18.2 3.3-26-0.5-3.1-1-6.7-1.3-11.2-0.8-13.5 1.8-18 4-19.3 1.7-1 3.9-0.4 4.9 1.3 1 1.7 0.4 3.8-1.2 4.8 0-0.1-1.2 2.4-0.6 12.7 0.3 4.3 0.8 7.6 1.2 10.5 1.3 8.4 2.2 14.4-3.7 29.7-1.6 4-2 9.6-2.5 14.6-0.2 2.2-0.4 4.3-0.6 6.2-1.9 14.3 3.3 23.5 8 28.7 6.1 6.7 15.5 10.7 23.1 10.4 10.1-0.2 18-4 24.2-11.4 17.4-20.9 20.2-68.7 8.3-142.1-7.7-47.5-42.2-90.6-62.1-112-0.8-0.8-1.3-1.4-1.5-1.6-1.3-1.5-1-3.8 0.5-5 1.5-1.3 3.7-1.1 5 0.5 0.2 0.2 0.6 0.6 1.2 1.3 20.5 22 56 66.4 63.9 115.7 12.2 75.5 8.9 125.2-9.9 147.8-7.5 9-17.4 13.7-29.4 14-0.3 0.1-0.7 0.1-1.1 0.1zM389.2 449.9c-24.1 0-48.5-7.3-69.3-22.5l-48-35c-16.5-12-23.5-32.5-17.6-52.1 5.8-19.6 22.8-33 43.2-34l131.6-6.8c25.2-1.4 48.4 11.8 60.3 34.1 11.9 22.3 9.9 48.8-5.2 69.1-23.2 30.8-58.9 47.2-95 47.2z m43.3-122h-2l-131.6 6.8c-12.5 0.6-16.4 10.6-17.3 13.6-0.9 3-3.1 13.5 7.1 20.9l48 35c39.4 28.7 95.3 20.3 124.5-18.8 8.6-11.5 9.7-25.9 2.9-38.5-6.4-12-18.1-19-31.6-19z" fill="#211919" /><path d="M415.5 470.5l116.7-156.3c1.8-2.4 0-5.8-3-5.6L210.7 325c-2.2 0.1-3 2.9-1.3 4.2l196 142.8c3.2 2.3 7.7 1.7 10.1-1.5z" fill="#211919" /><path d="M459 321.2L344.2 427.4l11.2 8.2L469.5 330M328.4 415.8l110.8-102.6-51.2 2.6-86.7 80.3z" fill="#FFFFFF" /><path d="M389.2 442.7c-22.7 0-45.5-6.9-65.1-21.1l-48-35c-14.1-10.2-19.9-27.6-15-44.3 5-16.7 19.4-28 36.8-28.9l131.6-6.8c22.7-1.1 43 10.5 53.6 30.3 10.6 19.9 8.8 43.4-4.6 61.4-21.8 29-55.4 44.4-89.3 44.4z m43.2-121.9c-0.8 0-1.5 0-2.3 0.1l-131.6 6.8c-13.7 0.7-21.2 10.1-23.8 18.7-2.6 8.6-1.3 20.6 9.7 28.7l48 35c42.6 31 102.9 21.9 134.4-20.3 10.1-13.5 11.4-31.2 3.5-46.1-7.5-14.3-21.9-22.9-37.9-22.9z" fill="#FFC200" /><path d="M637.9 470.5L521.2 314.2c-1.8-2.4 0-5.8 3-5.6L842.7 325c2.2 0.1 3 2.9 1.3 4.2L648 472c-3.2 2.3-7.7 1.7-10.1-1.5z" fill="#211919" /><path d="M664.2 449.9c-36.1 0-71.8-16.4-94.9-47.3-15.1-20.3-17.2-46.7-5.2-69.1 11.9-22.3 35-35.5 60.3-34.1l131.6 6.8c20.4 1.1 37.4 14.4 43.2 34s-1.1 40.1-17.6 52.1l-48 35c-20.9 15.2-45.2 22.5-69.4 22.6z m-43.3-122c-13.5 0-25.2 7-31.6 19-6.7 12.6-5.7 27 2.9 38.5 29.2 39.1 85 47.5 124.5 18.8l48-35c10.1-7.4 7.9-17.8 7.1-20.9-0.9-3-4.8-13-17.3-13.6L622.9 328c-0.6-0.1-1.3-0.1-2-0.1z" fill="#211919" /><path d="M763.1 320.9l-18.9-1-117.6 108.9 15.1 4.5zM671.5 316.2l-88 81.5 19.6 26.2c0.1 0.1 0.1 0.2 0.2 0.3l114-105.6-45.8-2.4z" fill="#FFFFFF" /><path d="M664.2 442.7c-33.9 0-67.5-15.4-89.2-44.4-13.5-18-15.3-41.6-4.6-61.4 10.6-19.9 31.4-31.4 53.6-30.3l131.6 6.8c17.4 0.9 31.8 12.3 36.8 28.9s-0.9 34.1-15 44.3l-48.1 35c-19.5 14.2-42.4 21.1-65.1 21.1zM621 320.8c-16 0-30.4 8.6-38 22.8-8 14.9-6.6 32.6 3.5 46.1 31.6 42.2 91.8 51.3 134.4 20.3l48.1-35c11-8 12.2-20.1 9.7-28.7-2.6-8.6-10.1-18-23.8-18.7l-131.6-6.8H621z" fill="#FFC200" /><path d="M477.8 341.1l-2.5-14.1c0.9-0.2 22.6-4 53.2-4 30.7 0 50.6 3.8 51.4 4l-2.8 14c-0.2 0-19.5-3.7-48.7-3.7-29.2 0.1-50.4 3.8-50.6 3.8z" fill="#FFC200" /><path d="M428.5 839.9c-9.8 12.5-22.3 38.4-21 48 2.6 20.3 12.1 18.1 11.8 33.5-0.8 40.3-106.3 48.6-115.1 10.4-7.1-31.1 31-43.7 47.5-47.8 3.8-0.9 4.8-4.7 6.8-8.2 2.9-5.3 1.8-36.3 8.9-48.7" fill="#FEF12F" /><path d="M353.5 962.2c-24.9 0-49.9-8-54.3-27.4-5.4-23.8 12.8-42.8 50.1-52 2.3-0.6 3.9-2.5 4-4.9 0.3-5.8 2.3-16.7 4.4-28.2 1.1-6.2 2.3-12.4 3.1-17.6 0.3-2 2.1-3.3 4.1-3 1.9 0.3 3.3 2.1 3 4.1-0.8 5.2-2 11.4-3.1 17.8-2 10.8-4 21.9-4.3 27.2-0.3 5.5-4.1 10.1-9.5 11.5-19.4 4.8-50.9 16.9-44.8 43.5 4 17.5 32.5 23.9 58.6 21.3 23.5-2.4 49-13.1 49.4-31 0.1-6.5-1.6-9.1-4.1-12.8-2.8-4.1-6.2-9.2-7.7-20.2-1.4-10.8 8.6-32 18.8-45 1.2-1.6 3.4-1.8 5-0.6 1.5 1.2 1.8 3.5 0.6 5-10.1 12.9-18.3 31.8-17.3 39.6 1.2 9.4 3.9 13.3 6.5 17.1 2.7 4 5.5 8.2 5.4 16.9-0.5 22.3-28.4 35.1-55.8 37.9-4.1 0.6-8.1 0.8-12.1 0.8z" fill="#211919" /><path d="M603.7 845.6c9.8 12.5 18.3 32.7 17 42.3-2.6 20.3-12.1 18.1-11.8 33.5 0.8 40.3 106.3 48.6 115.1 10.4 7.1-31.1-31-43.7-47.5-47.8-3.8-0.9-5.7-4.4-6.8-8.2-0.7-2.6-1.4-36.9-3.6-51" fill="#FFC200" /><path d="M674.7 962.2c-4 0-8-0.2-12-0.6-27.5-2.8-55.4-15.6-55.8-37.9-0.2-8.8 2.6-12.9 5.4-16.9 2.6-3.8 5.3-7.8 6.5-17.1 1.1-8.2-5-23-14.4-35-1.2-1.6-0.9-3.8 0.6-5 1.6-1.2 3.8-1 5 0.6 10.8 13.8 17.2 30 15.9 40.3-1.4 11.1-4.9 16.1-7.7 20.2-2.5 3.6-4.3 6.3-4.1 12.8 0.4 17.8 25.9 28.5 49.4 31 26.1 2.6 54.6-3.8 58.6-21.3 6.1-26.7-25.5-38.7-44.8-43.5-5.4-1.3-9.2-6-9.5-11.5l-0.2-3.7c-0.4-9.5-1.1-25.5-3-37.7-0.3-2 1-3.8 3-4.1 1.9-0.3 3.8 1 4.1 3 2 12.6 2.7 28.8 3.1 38.5l0.2 3.7c0.1 2.4 1.7 4.3 4 4.9 37.3 9.3 55.5 28.2 50.1 52-4.5 19.3-29.5 27.3-54.4 27.3z" fill="#211919" /><path d="M148.9 650.3c-7.8-41.8 16.5-61.3 46.9-62.1 3.2-0.1 5-3.6 3.1-6.2-19-25.4-41.4-50-27.7-65.4 8.8-10 28.2 6 36.2 14.3 2.1 2.2 5.8 0.2 5.1-2.8-4.4-18.7-15.8-57.7 6.1-61.9 27.6-5.2 34.7 50.3 36.1 64.4 0.1 1.2 1.6 1.7 2.4 0.8 10.3-11 55.3-54.8 91-21.7 20.3 18.8 14.2 33.9 9.5 40.6-1.6 2.2-4.6 2.8-6.8 1.3-8.3-5.3-29.2-16.6-43.2-7.3-17.8 11.9-22.7 40.5-7.9 49.4 11.1 6.7 26.2-4.9 33-11.1 3.5-3.2 7.6-5.5 12.2-6.3 10.2-1.9 24.8 0.8 17.4 35.7-9.7 45.7-71.4 35.6-85 32.8-1.6-0.3-3.3 0.3-4.2 1.7-6.6 9.5-33.9 45.3-74.1 49.3-22.9 2.1-45.7-21.7-50.1-45.5z" fill="#FEF12F" /><path d="M362.4 611.9c2-9.6 2.3-16.6 1.5-21.9-23 23.9-81.3 31.6-108 19.6-3.8 13.7-60.9 42.8-98.8 60.7 9.6 15.3 25.7 26.9 41.9 25.3 40.2-4 67.5-39.8 74.1-49.3 0.9-1.4 2.6-2 4.2-1.7 13.7 2.9 75.4 13 85.1-32.7z" fill="#FFC200" /><path d="M195.9 699.4c-24 0-46.2-24.7-50.6-48.4-3.7-19.8-0.6-36.4 8.9-48.2 9.1-11.2 23.8-17.7 41.4-18.2-1.9-3.4-4.2-6.4-6.4-9.3-17.9-23.3-34.8-45.2-20.8-61.1 2.5-2.8 5.8-4.3 9.7-4.4 11.8-0.3 25.5 12.3 30.4 17.2l-0.7-3.1c-3.9-16.3-9.9-40.8-1.7-53.5 2.7-4.2 6.7-6.8 11.8-7.8 6.2-1.2 12 0.2 17.1 4 15.1 11.4 20.8 42.1 22.7 58.9 26.7-26.9 64.2-45 92.8-18.5 22.8 21.2 14.6 38.7 10 45.3-2.6 3.8-7.8 4.8-11.7 2.3-7.7-4.9-27-15.5-39.3-7.3-9.1 6.1-15.3 18-15.1 29.1 0.1 3.8 1.1 10.8 7 14.3 9.2 5.5 23.2-5.7 28.7-10.7 4.2-3.8 9-6.3 14-7.2 7.5-1.4 13.7 0.1 17.8 4.3 6.2 6.4 7.4 18 3.7 35.6-10.4 49.2-76.2 38.2-89.2 35.5-8.1 11.1-35.9 47-77.2 51.1-1 0-2.1 0.1-3.3 0.1zM178.5 517h-0.2c-1.9 0-3.3 0.7-4.5 2-10.1 11.4 5.1 31.1 21.1 52 2.3 3 4.6 5.9 6.8 8.9 1.7 2.2 2 5.2 0.8 7.7s-3.8 4.2-6.6 4.2c-15.5 0.4-28.3 5.9-36.1 15.5-8.2 10.1-10.7 24.8-7.5 42.4 4 21.4 25 44.6 46.3 42.4 38.3-3.8 64.4-37.5 71.5-47.8 1.8-2.5 4.9-3.8 7.9-3.2 11.9 2.4 71.8 12.6 80.8-30 3.9-18.5 1.2-26-1.8-29.1-2.4-2.5-6.3-3.3-11.4-2.3-3.7 0.7-7.3 2.6-10.5 5.5-8.4 7.6-24.4 19.3-37.2 11.6-6.5-3.9-10.3-11.1-10.5-20.3-0.3-13.6 7-27.7 18.2-35.2 15.7-10.5 38.2 1.6 47.1 7.3 0.7 0.4 1.5 0.3 2-0.4 4.4-6.2 9-19.2-9-35.9-32.7-30.3-74.1 8.8-86 21.5-1.3 1.4-3.4 1.9-5.2 1.3-1.8-0.6-3.2-2.3-3.4-4.2-2.2-22.5-8.7-49.6-20.4-58.5-3.5-2.6-7.2-3.5-11.5-2.7-3.2 0.6-5.5 2.1-7.1 4.6-6.5 10.1-0.8 33.8 2.6 47.9l1.2 5c0.7 2.9-0.6 5.9-3.3 7.3-2.6 1.5-5.8 0.9-7.9-1.2-7.5-7.9-18.9-16.3-26.2-16.3z" fill="#211919" /><path d="M370.2 476.4a12.4 9.7 0 1 0 24.8 0 12.4 9.7 0 1 0-24.8 0Z" fill="#D13F7B" /><path d="M637.6 476.4a12.4 9.7 0 1 0 24.8 0 12.4 9.7 0 1 0-24.8 0Z" fill="#D13F7B" /></svg>