<svg width="50" height="54" viewBox="0 0 50 54" fill="none" xmlns="http://www.w3.org/2000/svg">
<path d="M1.25315 24.6651C1.52497 25.7229 2.02902 26.7112 2.73077 27.5622C3.43253 28.4131 4.31541 29.1068 5.31894 29.5955C4.71964 30.4479 4.30371 31.409 4.09608 32.4212C3.88845 33.4334 3.8934 34.4759 4.11062 35.4862C4.32785 36.4965 4.75288 37.4538 5.36024 38.3007C5.96761 39.1477 6.7448 39.8668 7.64525 40.4151C8.48434 40.9283 9.42245 41.2698 10.4021 41.4187C11.3819 41.5677 12.3825 41.5209 13.343 41.2813C16.9646 40.3821 20.4328 35.8348 22.8895 31.7709C20.6154 39.1312 15.0717 50.4337 2.40889 50.9215L2.49373 53C15.4381 52.5014 21.5688 41.9378 24.3432 34.1168C24.456 38.3008 25.1676 42.7383 27.3998 44.9562C28.0858 45.6381 28.9064 46.1786 29.8124 46.5456C30.7185 46.9126 31.6914 47.0984 32.6731 47.092L32.7312 47.0917C33.7939 47.0777 34.8427 46.8555 35.8149 46.4385C36.7871 46.0214 37.6625 45.4181 38.3888 44.6646C39.1151 43.9111 39.6772 43.0229 40.0416 42.0534C40.4059 41.0838 40.565 40.0528 40.5092 39.0222C41.569 39.1 42.634 38.9692 43.6405 38.6377C44.647 38.3062 45.5742 37.7807 46.3666 37.0929C47.1589 36.405 47.8002 35.5689 48.2518 34.6346C48.7034 33.7004 48.9562 32.6872 48.9949 31.6557C49.032 30.6936 48.8671 29.7341 48.5101 28.8358C48.1531 27.9376 47.6116 27.1193 46.9184 26.4308C43.9414 23.4734 36.8411 23.0492 31.7018 23.1742C36.2235 20.8777 41.9662 17.2833 43.0862 13.4032C43.5954 11.5106 43.3111 9.49919 42.2956 7.80984C41.2801 6.12048 39.6163 4.89106 37.6689 4.39107C36.5896 4.09116 35.4564 4.02115 34.3467 4.18584C33.237 4.35052 32.177 4.74601 31.2392 5.34525C30.7787 4.41506 30.1296 3.58472 29.3307 2.90402C28.5318 2.22331 27.5996 1.70623 26.5899 1.38379C25.5803 1.06134 24.514 0.940162 23.455 1.02751C22.396 1.11485 21.3661 1.40892 20.4269 1.8921C19.5503 2.34194 18.7772 2.96035 18.1546 3.70967C17.532 4.45899 17.0731 5.32353 16.8056 6.25064C15.665 10.2028 18.7806 16.322 21.4488 20.5782C17.1222 17.8627 10.7469 14.5701 6.58161 15.6033C5.62104 15.8418 4.72049 16.2676 3.9348 16.8548C3.14912 17.4421 2.49472 18.1785 2.01146 19.0192C1.01246 20.7339 0.740558 22.759 1.25344 24.6651L1.25315 24.6651ZM45.3867 27.8849C45.8775 28.3739 46.2607 28.9548 46.513 29.5922C46.7652 30.2296 46.8812 30.9102 46.8539 31.5925C46.8053 33.0236 46.1848 34.3801 45.1238 35.3744C44.4038 36.0734 43.5009 36.5682 42.5125 36.8053C41.5242 37.0424 40.4879 37.0127 39.5155 36.7196L37.5896 36.1209L38.1616 38.0045C38.441 38.9553 38.4477 39.9621 38.181 40.9163C37.9142 41.8705 37.3841 42.7358 36.6479 43.4188C35.6001 44.426 34.1895 44.9973 32.7152 45.0115C32.0117 45.0251 31.3128 44.8981 30.6619 44.6384C30.011 44.3788 29.4221 43.9919 28.9316 43.502C25.751 40.342 26.3417 30.1291 26.9416 25.5412C31.6791 25.0641 42.2068 24.7247 45.3867 27.8849ZM18.8684 6.81213C19.059 6.15484 19.3854 5.54211 19.8277 5.01126C20.27 4.48041 20.819 4.04255 21.4412 3.72435C22.2588 3.29758 23.1728 3.07479 24.101 3.07601C24.6344 3.0765 25.1652 3.14799 25.6786 3.28847C26.662 3.54432 27.5548 4.05622 28.2604 4.76886C28.966 5.48151 29.4578 6.36783 29.6825 7.33209L30.1117 9.25122L31.5054 7.82838C32.2136 7.11802 33.1081 6.60899 34.0924 6.35625C35.0768 6.10351 36.1135 6.11665 37.0907 6.39427C38.4913 6.74487 39.6918 7.62036 40.4289 8.82889C41.1661 10.0374 41.3799 11.4805 41.0234 12.8418C39.7953 17.0967 30.3923 21.7066 26.0009 23.4963C23.2065 19.7508 17.6404 11.0671 18.8684 6.81213L18.8684 6.81213ZM3.87439 20.0459C4.21627 19.4492 4.67963 18.9263 5.23625 18.509C5.79287 18.0917 6.43112 17.7888 7.11214 17.6187C7.51989 17.5219 7.93851 17.4749 8.35824 17.479C13.0179 17.479 20.6637 22.3708 24.1248 24.9256C22.182 29.1481 17.2211 38.1712 12.8125 39.2659C12.131 39.4343 11.4213 39.4661 10.7267 39.3595C10.0321 39.253 9.36715 39.0102 8.77227 38.6461C7.52033 37.8898 6.62089 36.6898 6.26463 35.3004C6.00126 34.3454 6.01153 33.3386 6.29432 32.3888C6.57711 31.439 7.12169 30.5822 7.86926 29.911L9.36614 28.5905L7.40007 28.1298C6.41252 27.8895 5.51134 27.3917 4.79382 26.6903C4.0763 25.9889 3.56972 25.1105 3.32875 24.15H3.32844C2.95415 22.765 3.14998 21.293 3.87439 20.0459Z" fill="#324950" stroke="#FFFAFA" stroke-width="0.7"/>
</svg>
