<svg width="7" height="7" viewBox="0 0 7 7" fill="none" xmlns="http://www.w3.org/2000/svg">
<path fill-rule="evenodd" clip-rule="evenodd" d="M0.828426 5.07107C0.437901 5.46159 0.437901 6.09476 0.828426 6.48528C1.21895 6.87581 1.85211 6.87581 2.24264 6.48528L3.65685 5.07107L5.07107 6.48528C5.46159 6.87581 6.09476 6.87581 6.48528 6.48528C6.8758 6.09476 6.8758 5.46159 6.48528 5.07107L5.07107 3.65685L6.48528 2.24264C6.8758 1.85212 6.8758 1.21895 6.48528 0.828427C6.09476 0.437902 5.46159 0.437903 5.07107 0.828427L3.65685 2.24264L2.24264 0.828427C1.85211 0.437903 1.21895 0.437903 0.828426 0.828427C0.437901 1.21895 0.437901 1.85212 0.828426 2.24264L2.24264 3.65685L0.828426 5.07107Z" fill="#57984C"/>
</svg>
