<svg width="32" height="32" viewBox="0 0 32 32" fill="none" xmlns="http://www.w3.org/2000/svg">
<path d="M15.6 2.80005C22.6 2.80005 28.3 8.50005 28.3 15.5C28.3 22.5 22.6 28.2001 15.6 28.2001C8.59999 28.2001 2.79999 22.6 2.79999 15.6C2.79999 8.60005 8.59999 2.80005 15.6 2.80005ZM15.6 0.300049C7.09999 0.300049 0.299988 7.10005 0.299988 15.6C0.299988 24 7.09999 30.9 15.6 30.9C24 30.9 30.9 24.1 30.9 15.6C30.9 7.10005 24 0.300049 15.6 0.300049Z" fill="#57984C"/>
<path d="M23.7 15.6C23.7 16.7 23.7 17.9 23.7 19C23.7 21 22.5 22.6 20.9 23.3C20.3 23.6 19.6 23.7 18.9 23.7C16.7 23.7 14.5 23.7 12.3 23.7C10.6 23.7 9.3 23 8.3 21.6C7.8 20.9 7.5 20.1 7.5 19.2C7.5 16.9 7.5 14.5 7.5 12.2C7.5 10.3 8.4 8.89998 10.1 8.09998C10.8 7.69998 11.6 7.59998 12.4 7.59998C14.5 7.59998 16.7 7.59998 18.8 7.59998C20.5 7.59998 21.8 8.19998 22.9 9.59998C23.5 10.3 23.7 11.2 23.7 12.1C23.7 13.2 23.7 14.4 23.7 15.6ZM8.7 15.6C8.7 16.8 8.7 18 8.7 19.2C8.7 19.7 8.8 20.2 9.1 20.7C9.8 21.9 10.9 22.5 12.3 22.5C14.5 22.5 16.7 22.5 18.9 22.5C19.4 22.5 20 22.4 20.5 22.2C21.8 21.6 22.6 20.6 22.6 19C22.6 16.7 22.6 14.3 22.6 12C22.6 11.3 22.4 10.7 22 10.2C21.2 9.19998 20.2 8.69998 19 8.69998C16.8 8.69998 14.6 8.69998 12.4 8.69998C11.9 8.69998 11.5 8.79998 11 8.99998C9.8 9.39998 8.7 10.6 8.7 12.3C8.7 13.3 8.7 14.5 8.7 15.6Z" fill="#57984C"/>
<path d="M15.6 19.1C13.5 19.1 11.8 17.4 11.8 15.3C11.8 13.2 13.5 11.5 15.6 11.5C17.7 11.5 19.4 13.2 19.4 15.3C19.4 17.4 17.7 19.1 15.6 19.1ZM15.6 17.9C17 17.9 18.2 16.7 18.2 15.3C18.2 13.9 17 12.8 15.6 12.8C14.2 12.8 13 13.9 13 15.4C13 16.7 14.2 17.9 15.6 17.9Z" fill="#57984C"/>
<path d="M19.9 10.4C20.3 10.4 20.7 10.8 20.7 11.2C20.7 11.7 20.3 12 19.9 12C19.5 12 19.1 11.6 19.1 11.2C19.1 10.8 19.4 10.4 19.9 10.4Z" fill="#57984C"/>
</svg>
