<svg width="49" height="50" viewBox="0 0 49 50" fill="none" xmlns="http://www.w3.org/2000/svg">
<path d="M20.2534 49.4664C16.5312 49.4771 12.8438 48.7495 9.40465 47.3256C5.96551 45.9016 2.84295 43.8097 0.217727 41.1709C0.148737 41.1025 0.0939776 41.0211 0.0566086 40.9314C0.0192395 40.8417 0 40.7455 0 40.6483C0 40.5511 0.0192395 40.4549 0.0566086 40.3652C0.0939776 40.2755 0.148737 40.1941 0.217727 40.1257L39.2292 1.11421C39.2976 1.04522 39.3791 0.990462 39.4687 0.953093C39.5584 0.915724 39.6546 0.896484 39.7518 0.896484C39.849 0.896484 39.9452 0.915724 40.0349 0.953093C40.1246 0.990462 40.206 1.04522 40.2744 1.11421C45.5855 6.42946 48.5689 13.636 48.5689 21.1499C48.5689 28.6639 45.5855 35.8704 40.2744 41.1856C37.6492 43.8194 34.5284 45.9071 31.0921 47.3284C27.6558 48.7497 23.9721 49.4763 20.2534 49.4664ZM1.78555 40.6336C6.8665 45.4433 13.6237 48.0806 20.6194 47.9844C27.6151 47.8881 34.2972 45.066 39.2439 40.1183C44.1884 35.171 47.0078 28.4899 47.1027 21.496C47.1975 14.502 44.5603 7.74695 39.7518 2.66731L1.78555 40.6336Z" fill="#324950"/>
<path d="M20.2535 45.3959C17.0653 45.407 13.9065 44.7856 10.9601 43.5676C8.0137 42.3497 5.33817 40.5593 3.08842 38.3002C2.94982 38.1616 2.87195 37.9736 2.87195 37.7776C2.87195 37.5816 2.94982 37.3936 3.08842 37.255C3.22702 37.1164 3.41501 37.0386 3.61103 37.0386C3.80704 37.0386 3.99503 37.1164 4.13363 37.255C8.41162 41.5251 14.2091 43.9233 20.2535 43.9233C26.2979 43.9233 32.0953 41.5251 36.3733 37.255C40.6434 32.977 43.0416 27.1796 43.0416 21.1352C43.0416 15.0908 40.6434 9.29334 36.3733 5.01535C36.2347 4.87674 36.1568 4.68876 36.1568 4.49274C36.1568 4.29672 36.2347 4.10874 36.3733 3.97013C36.5119 3.83153 36.6999 3.75366 36.8959 3.75366C37.0919 3.75366 37.2799 3.83153 37.4185 3.97013C41.9673 8.52455 44.5223 14.6983 44.5223 21.1352C44.5223 27.5721 41.9673 33.7458 37.4185 38.3002C35.1688 40.5593 32.4932 42.3497 29.5468 43.5676C26.6004 44.7856 23.4417 45.407 20.2535 45.3959Z" fill="#324950"/>
<path d="M34.0253 35.6431C33.9284 35.6436 33.8324 35.625 33.7427 35.5884C33.653 35.5518 33.5714 35.4978 33.5027 35.4296L31.2135 33.1331C31.0929 32.9923 31.0299 32.8111 31.037 32.6259C31.0442 32.4406 31.121 32.2649 31.2521 32.1338C31.3832 32.0027 31.5589 31.9259 31.7442 31.9188C31.9294 31.9116 32.1105 31.9746 32.2513 32.0952L34.5479 34.3844C34.6169 34.4528 34.6716 34.5342 34.709 34.6239C34.7464 34.7136 34.7656 34.8098 34.7656 34.907C34.7656 35.0042 34.7464 35.1004 34.709 35.1901C34.6716 35.2798 34.6169 35.3612 34.5479 35.4296C34.4791 35.4978 34.3975 35.5518 34.3078 35.5884C34.2182 35.625 34.1221 35.6436 34.0253 35.6431Z" fill="#324950"/>
<path d="M37.3449 31.2046C37.2241 31.204 37.1053 31.1736 36.9989 31.1162L34.1504 29.5926C33.9786 29.495 33.8526 29.3331 33.8001 29.1426C33.7477 28.9521 33.7731 28.7486 33.8707 28.5768C33.9683 28.405 34.1301 28.279 34.3206 28.2266C34.5111 28.1741 34.7146 28.1995 34.8864 28.2971L37.735 29.8502C37.8795 29.9282 37.9937 30.0522 38.0596 30.2026C38.1255 30.3529 38.1392 30.521 38.0986 30.6801C38.058 30.8391 37.9654 30.98 37.8355 31.0804C37.7056 31.1808 37.5459 31.2348 37.3817 31.234L37.3449 31.2046Z" fill="#324950"/>
<path d="M39.2881 26.0079C39.2369 26.0152 39.1848 26.0152 39.1335 26.0079L35.9611 25.316C35.7659 25.275 35.595 25.1582 35.4859 24.9912C35.3768 24.8241 35.3386 24.6206 35.3796 24.4254C35.4206 24.2302 35.5375 24.0592 35.7045 23.9502C35.8715 23.8411 36.075 23.8029 36.2703 23.8439L39.4427 24.5358C39.6379 24.5563 39.817 24.6535 39.9405 24.806C40.0641 24.9586 40.122 25.1539 40.1015 25.3492C40.081 25.5444 39.9838 25.7235 39.8312 25.847C39.6787 25.9705 39.4833 26.0284 39.2881 26.0079Z" fill="#324950"/>
<path d="M36.4395 20.7156C36.2443 20.7225 36.0543 20.6515 35.9115 20.5183C35.7686 20.3851 35.6845 20.2006 35.6777 20.0053C35.6708 19.8101 35.7418 19.6202 35.875 19.4773C36.0082 19.3344 36.1928 19.2503 36.388 19.2435L39.6267 19.008C39.7234 19.001 39.8205 19.0131 39.9125 19.0438C40.0045 19.0744 40.0895 19.1229 40.1627 19.1866C40.2359 19.2502 40.2958 19.3276 40.339 19.4144C40.3821 19.5013 40.4077 19.5958 40.4143 19.6925C40.4286 19.8843 40.3674 20.0741 40.2435 20.2213C40.1197 20.3685 39.9432 20.4614 39.7518 20.4801L36.5131 20.7083L36.4395 20.7156Z" fill="#324950"/>
<path d="M35.4606 16.1962C35.3102 16.1967 35.1632 16.1511 35.0395 16.0656C34.9158 15.98 34.8213 15.8586 34.7687 15.7178C34.702 15.5352 34.7102 15.3337 34.7916 15.1572C34.873 14.9807 35.0208 14.8435 35.2029 14.7756L38.2797 13.6347C38.4632 13.5664 38.6663 13.5737 38.8444 13.6552C39.0225 13.7366 39.1609 13.8855 39.2292 14.069C39.2975 14.2525 39.2902 14.4556 39.2087 14.6337C39.1273 14.8117 38.9784 14.9502 38.7949 15.0185L35.755 16.152C35.6609 16.1867 35.5607 16.2017 35.4606 16.1962Z" fill="#324950"/>
<path d="M33.245 12.1405C33.1307 12.1405 33.018 12.1139 32.9158 12.0628C32.8136 12.0117 32.7247 11.9375 32.6561 11.8461C32.539 11.6899 32.4887 11.4936 32.5163 11.3003C32.5439 11.1071 32.6472 10.9327 32.8033 10.8156L35.4017 8.87234C35.5578 8.75521 35.7541 8.70492 35.9474 8.73253C36.1406 8.76014 36.315 8.86338 36.4321 9.01956C36.5493 9.17573 36.5996 9.37204 36.572 9.56529C36.5444 9.75855 36.4411 9.93292 36.2849 10.05L33.6866 11.9933C33.5592 12.0888 33.4042 12.1405 33.245 12.1405Z" fill="#324950"/>
<path d="M29.5867 38.9701C29.4536 38.9697 29.323 38.9332 29.2089 38.8645C29.0949 38.7958 29.0016 38.6975 28.939 38.5799L27.3859 35.7314C27.2883 35.5596 27.2629 35.3561 27.3154 35.1656C27.3678 34.9751 27.4938 34.8132 27.6656 34.7156C27.8374 34.618 28.0409 34.5926 28.2314 34.6451C28.4219 34.6975 28.5838 34.8235 28.6814 34.9953L30.2345 37.8439C30.3263 38.0149 30.3469 38.2152 30.2918 38.4013C30.2366 38.5874 30.1102 38.7442 29.94 38.8376C29.8368 38.9136 29.7145 38.9595 29.5867 38.9701Z" fill="#324950"/>
<path d="M24.3902 40.9059C24.219 40.9097 24.0518 40.8537 23.9175 40.7476C23.7832 40.6415 23.69 40.4918 23.6541 40.3244L22.9622 37.152C22.9212 36.9568 22.9594 36.7533 23.0685 36.5862C23.1775 36.4192 23.3485 36.3023 23.5437 36.2613C23.7389 36.2203 23.9424 36.2586 24.1094 36.3676C24.2765 36.4767 24.3933 36.6476 24.4343 36.8428L25.1262 40.0153C25.1657 40.2045 25.1292 40.4017 25.0245 40.5642C24.9198 40.7267 24.7554 40.8415 24.5668 40.8838C24.5093 40.8998 24.4498 40.9072 24.3902 40.9059Z" fill="#324950"/>
<path d="M18.8623 41.296H18.8107C18.714 41.2895 18.6195 41.2639 18.5327 41.2208C18.4458 41.1776 18.3684 41.1177 18.3048 41.0445C18.2412 40.9713 18.1926 40.8863 18.162 40.7943C18.1314 40.7023 18.1192 40.6052 18.1262 40.5085L18.3617 37.2698C18.369 37.1731 18.3952 37.0788 18.4389 36.9923C18.4826 36.9058 18.5429 36.8287 18.6164 36.7655C18.6898 36.7022 18.775 36.6541 18.8671 36.6238C18.9592 36.5935 19.0563 36.5817 19.153 36.5889C19.2497 36.5962 19.344 36.6224 19.4305 36.6661C19.517 36.7097 19.5941 36.7701 19.6573 36.8435C19.7205 36.917 19.7687 37.0022 19.799 37.0943C19.8293 37.1864 19.8411 37.2835 19.8339 37.3802L19.5983 40.6336C19.58 40.8158 19.4945 40.9846 19.3583 41.1071C19.2222 41.2296 19.0454 41.297 18.8623 41.296Z" fill="#324950"/>
<path d="M13.4448 40.1183C13.3571 40.1174 13.2702 40.1025 13.1872 40.0742C13.012 40.0062 12.8694 39.8738 12.7886 39.7041C12.7079 39.5344 12.6951 39.3403 12.7529 39.1614L13.8938 36.1215C13.9617 35.9394 14.0989 35.7915 14.2754 35.7102C14.4519 35.6288 14.6534 35.6206 14.836 35.6872C14.927 35.7208 15.0105 35.7721 15.0817 35.838C15.1529 35.904 15.2103 35.9834 15.2506 36.0716C15.291 36.1599 15.3135 36.2553 15.3169 36.3522C15.3202 36.4492 15.3044 36.5459 15.2703 36.6367L14.1367 39.6399C14.0841 39.7808 13.9896 39.9022 13.8659 39.9877C13.7422 40.0732 13.5952 40.1188 13.4448 40.1183Z" fill="#324950"/>
<path d="M8.57945 37.4611C8.42019 37.4611 8.26522 37.4095 8.13781 37.3139C7.98164 37.1968 7.87839 37.0224 7.85078 36.8292C7.82318 36.6359 7.87347 36.4396 7.9906 36.2834L9.93381 33.6851C10.0509 33.529 10.2253 33.4257 10.4186 33.3981C10.6118 33.3705 10.8081 33.4208 10.9643 33.5379C11.1205 33.655 11.2237 33.8294 11.2513 34.0227C11.2789 34.2159 11.2286 34.4122 11.1115 34.5684L9.16831 37.1667C9.09974 37.2581 9.01084 37.3323 8.90863 37.3834C8.80642 37.4345 8.69372 37.4611 8.57945 37.4611Z" fill="#324950"/>
</svg>
