<svg width="58" height="59" viewBox="0 0 58 59" fill="none" xmlns="http://www.w3.org/2000/svg">
<mask id="path-1-inside-1_1_631" fill="white">
<path d="M26.5557 0.209978C26.8833 -0.0780946 27.3459 0.00202752 27.7409 0.0387246C28.9069 0.18796 30.059 0.479702 31.1424 0.945143C32.118 1.38123 33.013 1.99346 33.7868 2.73719C34.5131 3.42709 35.178 4.20324 35.6213 5.11455C36.1476 4.49865 36.5897 3.81669 37.0016 3.11761C37.1431 2.89988 37.3003 2.68336 37.5099 2.52862C37.8598 2.31517 38.3344 2.20936 38.6987 2.44911C38.9444 2.58979 39.0378 2.87969 39.2431 3.06379C39.7888 3.59345 40.3585 4.09804 40.9547 4.56776C41.354 4.91271 41.7461 5.26745 42.1194 5.64176C42.6597 6.15797 43.1119 6.75858 43.5745 7.34451C43.9352 7.8864 44.3068 8.42707 44.5441 9.0393C45.2017 8.49619 45.8823 7.97937 46.4977 7.38549C46.7073 7.16347 47.0199 7.10965 47.3102 7.11515C47.5475 7.09864 47.7835 7.19344 47.957 7.35613C48.3936 7.76041 48.6959 8.28212 49.0398 8.76408C49.5349 9.57753 50.0178 10.4112 50.2973 11.3304C50.5508 12.0161 50.6556 12.7433 50.746 13.4662C50.8363 14.6797 50.8068 15.931 50.4159 17.0925C50.7682 17.0478 51.1212 17.0093 51.4729 16.9634C52.1733 16.8619 52.849 16.5402 53.5675 16.6069C53.9378 16.7096 54.3203 16.9451 54.4395 17.339C54.5431 17.6319 54.4082 17.931 54.4118 18.2277C54.4046 19.1322 54.5389 20.0283 54.6009 20.9286C54.6979 22.2931 54.6449 23.6741 54.3672 25.0154C54.2703 25.4454 54.1763 25.8784 53.992 26.2808C54.8563 26.3591 55.7169 26.4821 56.5853 26.5071C56.8629 26.5041 57.0966 26.6839 57.2851 26.8735C57.4471 27.0276 57.5621 27.2399 57.5754 27.468C57.5971 27.9616 57.529 28.4545 57.4296 28.9365C57.3357 29.5848 57.1406 30.2111 56.9641 30.8392C56.7732 31.3952 56.5239 31.9285 56.2523 32.4478C55.8993 33.12 55.4176 33.7102 54.9315 34.2851C54.2329 35.0276 53.4633 35.7291 52.5437 36.175C53.1495 36.7144 53.8246 37.164 54.5196 37.5756C54.7948 37.7762 55.102 37.9952 55.2092 38.3401C55.3362 38.6472 55.3561 39.0221 55.1682 39.3095C55.0285 39.5517 54.7551 39.6551 54.5702 39.8539C54.1613 40.2808 53.7801 40.734 53.4139 41.1994C52.5226 42.3426 51.5072 43.3915 50.3497 44.2581C49.8197 44.6245 49.2873 44.9958 48.6899 45.2435C49.1205 45.7927 49.5433 46.3487 50.0022 46.874C50.2021 47.1168 50.4774 47.3285 50.5424 47.6557C50.5876 47.959 50.6231 48.3022 50.443 48.5707C50.1648 48.9829 49.7288 49.2398 49.3421 49.534C48.8628 49.9009 48.3334 50.1908 47.81 50.4881C46.5273 51.1786 45.0819 51.5468 43.6311 51.5768C42.6657 51.6061 41.6804 51.5266 40.762 51.2043C40.8126 51.6544 40.8379 52.1089 40.936 52.5523C41.0396 53.1584 41.2865 53.7486 41.2348 54.3743C41.1366 54.8661 40.7391 55.3731 40.1983 55.3291C39.2793 55.1664 38.35 55.3523 37.431 55.4177C36.3945 55.5095 35.3478 55.5388 34.312 55.4294C33.4303 55.3339 32.5396 55.1896 31.7181 54.8385C31.6188 55.7242 31.5116 56.6104 31.4808 57.5015C31.4724 57.7737 31.2978 57.9994 31.1177 58.1847C30.9605 58.3529 30.7425 58.4709 30.5106 58.4764C30.0415 58.493 29.5729 58.4312 29.1152 58.3321C27.5307 58.0575 25.9709 57.4862 24.6773 56.5003C23.5782 55.6563 22.5863 54.6208 21.9576 53.3651C21.6505 53.781 21.3036 54.1682 21.0434 54.6183C20.7441 55.0813 20.52 55.6238 20.0654 55.9572C19.7275 56.1602 19.2782 56.2679 18.9187 56.0569C18.694 55.9413 18.579 55.7058 18.4255 55.5168C17.9051 54.959 17.3077 54.4844 16.7181 54.0055C15.9286 53.3236 15.1589 52.608 14.5115 51.7823C13.9303 51.0673 13.3955 50.3009 13.0312 49.4471C12.332 50.008 11.6454 50.5835 10.9799 51.1847C10.7439 51.37 10.4295 51.3725 10.1452 51.3658C9.78448 51.3395 9.51348 51.0551 9.29787 50.7866C8.26804 49.4392 7.3984 47.9236 7.02501 46.2465C6.77147 44.9627 6.69739 43.63 6.92745 42.337C6.97081 42.0135 7.05633 41.6973 7.17678 41.3958C6.60043 41.4624 6.01927 41.5169 5.45557 41.6618C4.98281 41.7719 4.50343 41.9358 4.0126 41.8734C3.65547 41.767 3.2869 41.5444 3.16284 41.1664C3.06046 40.8881 3.15922 40.5958 3.17729 40.3126C3.18632 39.0227 2.91953 37.7493 2.9382 36.4588C2.91351 35.5151 3.01589 34.5725 3.17548 33.6435C3.27967 33.1579 3.38506 32.6686 3.58621 32.2129C2.7226 32.1193 1.85959 32.005 0.990551 31.975C0.774948 31.9732 0.583435 31.8545 0.422637 31.7193C0.215465 31.5628 0.0414175 31.3389 0.010101 31.071C-0.0404874 30.4539 0.110675 29.8472 0.203421 29.2423C0.522006 27.6564 1.11823 26.098 2.12879 24.8313C2.93278 23.8185 3.88312 22.8864 5.04123 22.3047C4.73348 22.0735 4.442 21.8209 4.13365 21.5916C3.71027 21.3016 3.26341 21.0484 2.84244 20.7549C2.507 20.5133 2.29019 20.1188 2.27333 19.7004C2.25707 19.4001 2.40221 19.0968 2.64431 18.9237C2.78403 18.8246 2.92616 18.7267 3.04118 18.5983C3.33327 18.2827 3.62957 17.9702 3.90179 17.6362C4.48897 16.8564 5.13638 16.1243 5.81993 15.4307C6.04577 15.2038 6.28727 14.9952 6.5384 14.7989C7.24905 14.1781 8.02955 13.6277 8.88835 13.2417C8.43245 12.6583 7.9892 12.0631 7.49476 11.5127C7.32734 11.3078 7.1021 11.1304 7.04368 10.857C6.98225 10.5188 6.95395 10.1237 7.18641 9.84175C7.59654 9.34878 8.15723 9.02524 8.66913 8.65521C9.26836 8.2913 9.85615 7.8968 10.5138 7.64787C11.5003 7.2069 12.5693 6.98916 13.6412 6.91821C14.712 6.86745 15.8141 6.91638 16.8313 7.28824C16.7596 6.81729 16.7398 6.3384 16.6326 5.87295C16.5242 5.28764 16.2923 4.71088 16.3471 4.10599C16.4423 3.73412 16.6651 3.35064 17.0403 3.21853C17.289 3.12189 17.5546 3.19223 17.8082 3.22342C18.7711 3.26012 19.7245 3.08153 20.6839 3.02465C21.4692 2.99345 22.2581 2.94942 23.0422 3.03504C24.001 3.13474 24.9796 3.26012 25.8728 3.64911C25.9529 2.78122 26.0691 1.91639 26.0962 1.04423C26.095 0.706001 26.3275 0.430161 26.5557 0.209978ZM27.8987 1.98489C27.8313 2.89865 27.7337 3.81119 27.5988 4.717C28.5515 5.49192 29.2785 6.54635 29.6747 7.71821C29.968 8.74083 29.9825 9.8338 29.8241 10.8809C31.0659 10.9506 32.3017 11.1396 33.5038 11.465C33.4785 10.9708 33.4749 10.4735 33.5098 9.97936C33.561 9.26255 33.8175 8.58793 34.0121 7.90414C34.1 7.62096 34.3018 7.35797 34.2518 7.04604C34.1759 6.16714 33.6929 5.38672 33.1226 4.74574C32.4197 3.95492 31.5965 3.25645 30.6419 2.80141C30.0084 2.46502 29.3092 2.29499 28.6238 2.10722C28.3847 2.04973 28.1414 2.01731 27.8987 1.98489ZM38.2242 4.6907C37.8098 5.43381 37.2485 6.07601 36.7185 6.73411C36.4512 7.05705 36.2759 7.44237 36.0796 7.80995C35.823 8.30292 35.6839 8.84298 35.5177 9.37019C35.4171 9.72676 35.3503 10.0956 35.3406 10.4668C35.3292 11.0301 35.3346 11.6087 35.5255 12.1451C36.8366 12.6521 38.0826 13.3378 39.2311 14.1549C39.3034 14.0026 39.3756 13.843 39.5087 13.7347C39.9514 13.3995 40.2001 12.8668 40.379 12.35C40.5271 11.9708 40.3597 11.5463 40.5428 11.1763C40.709 10.6998 41.3167 10.4827 41.7461 10.7298C42.1128 10.9494 42.3284 11.3812 42.3248 11.8099C42.3284 12.7482 41.9472 13.6448 41.4287 14.4056C41.2348 14.7488 40.9312 15.0063 40.6265 15.2442C40.7542 15.3579 40.8812 15.4717 41.0065 15.5885C41.51 15.3225 41.8972 14.8852 42.2802 14.4705C43.2703 13.2919 43.404 11.5653 42.9427 10.1323C42.7849 9.5078 42.4115 8.97692 42.0604 8.45154C41.6521 7.9335 41.2528 7.402 40.771 6.95002C39.9785 6.13167 39.0396 5.48335 38.2242 4.6907ZM18.3634 5.09559C18.5917 5.91149 18.6326 6.76347 18.7205 7.60261C18.7699 8.17815 18.9813 8.72065 19.1632 9.26255C19.4306 9.83196 19.695 10.4106 20.0641 10.9206C20.5351 11.4803 21.047 12.0313 21.7053 12.3641C21.9166 12.265 22.1425 12.1653 22.3822 12.1983C22.8495 12.235 23.2392 12.679 23.2205 13.1549C23.2205 13.5347 22.9694 13.8913 22.6213 14.0252C21.8233 14.3604 21.0554 14.7671 20.3189 15.2252C20.0051 15.4295 19.5739 15.4393 19.2674 15.2167C18.8795 14.9592 18.7477 14.3904 18.9789 13.983C19.1445 13.6564 19.5089 13.5335 19.7925 13.3402C19.3421 12.9384 18.9277 12.495 18.5465 12.0246C18.0731 11.3506 17.7148 10.602 17.3824 9.84848C17.2926 9.68456 17.1342 9.57447 16.9921 9.46071C16.2369 8.95368 15.3143 8.8075 14.4254 8.78181C13.3443 8.78242 12.2501 8.94756 11.2521 9.38487C10.509 9.68334 9.84109 10.1414 9.18044 10.591C9.75859 11.3035 10.3319 12.0222 10.8776 12.761C12.4578 12.5953 14.1357 12.9904 15.3727 14.0326C15.8942 14.4888 16.3694 15.0008 16.7801 15.5622C16.9704 15.3677 17.2113 15.1989 17.492 15.1965C17.9647 15.1579 18.4182 15.5469 18.4628 16.0258C18.5086 16.3573 18.3544 16.6845 18.1093 16.8974C16.7813 18.0949 15.6383 19.5059 14.7566 21.0723C14.1399 22.1634 13.678 23.3396 13.2877 24.531C12.8523 26.1004 12.5795 27.7298 12.621 29.3646C12.6409 30.3866 12.6933 31.4154 12.9107 32.4166C13.1426 33.6869 13.5593 34.9144 14.0562 36.1016C14.2838 36.5903 14.5494 37.06 14.8096 37.5316C15.9129 39.5456 17.4847 41.2832 19.3264 42.6251C20.0593 43.1903 20.8561 43.6637 21.6806 44.0783C22.1491 44.3175 22.6261 44.5499 23.1338 44.6899C24.6249 45.3334 26.2425 45.6428 27.8572 45.7089C28.2366 45.7419 28.6166 45.7915 28.9978 45.7823C29.5621 45.7505 30.1258 45.7071 30.6889 45.6575C32.2059 45.5395 33.6863 45.1138 35.0931 44.5383C35.3021 44.463 35.4358 44.26 35.6472 44.1903C35.832 44.1291 36.0344 44.123 36.2054 44.0208C38.141 43.0233 39.899 41.6471 41.2853 39.9462C42.3886 38.6686 43.2414 37.1854 43.8997 35.627C44.0075 35.4099 43.9292 35.1554 44.0201 34.9334C44.0876 34.7248 44.2899 34.5964 44.3495 34.3842C44.5441 33.7597 44.7061 33.1248 44.8464 32.4863C44.9566 31.8466 45.0343 31.2013 45.0933 30.5554C45.124 30.1787 45.174 29.8019 45.1523 29.4233C45.1078 28.2386 45.0662 27.0441 44.8006 25.8851C44.5995 24.8515 44.2676 23.8496 43.8846 22.8723C43.8136 22.6717 43.6323 22.5438 43.5407 22.3561C43.4504 22.1805 43.4733 21.9695 43.3751 21.7977C41.6087 18.2026 38.4825 15.317 34.7878 13.8809C34.3993 13.8185 34.0747 13.5787 33.6953 13.4864C31.6368 12.8442 29.4525 12.6136 27.3085 12.8258C26.6738 12.8839 26.1685 12.18 26.3768 11.5769C26.0577 11.5133 25.7589 11.3096 25.6343 10.9965C25.5156 10.7549 25.5945 10.4839 25.5909 10.2289C25.5512 9.76285 25.3922 9.31392 25.1862 8.89924C25.0531 8.61606 24.7556 8.47172 24.6069 8.20078C24.3605 7.8546 24.4063 7.32616 24.7279 7.04482C25.0146 6.76592 25.4632 6.78304 25.8144 6.9072C26.2986 7.15368 26.6171 7.62952 26.8809 8.09374C27.282 8.96774 27.588 9.95306 27.3886 10.9231C27.5651 10.906 27.7427 10.8931 27.9198 10.8827C28.1131 10.0668 28.1215 9.20138 27.9222 8.38548C27.7433 7.75919 27.3856 7.20567 26.9773 6.71026C26.4112 6.08763 25.6957 5.6228 24.9285 5.30048C24.1209 5.04176 23.2747 4.94696 22.434 4.87785C21.9715 4.85033 21.5095 4.8803 21.0476 4.89681C20.1497 4.92128 19.2638 5.11455 18.3634 5.09559ZM45.0367 11.0448C45.003 11.1323 45.0337 11.2313 45.0337 11.3231C45.109 11.939 45.0174 12.5592 44.9138 13.1653C44.835 13.6307 44.6483 14.0662 44.4742 14.5011C43.9978 15.4937 43.2137 16.2962 42.3646 16.9677C43.1945 17.898 43.9141 18.9249 44.5507 19.9995C45.1806 19.2711 45.922 18.6197 46.7898 18.2007C47.162 17.9983 47.5432 17.8148 47.9257 17.6344C48.3882 17.2552 48.611 16.6613 48.7658 16.0962C49.1332 14.3494 48.8953 12.4742 48.1003 10.8803C47.81 10.3482 47.5047 9.82462 47.1626 9.32615C46.4586 9.90475 45.7558 10.4858 45.0367 11.0448ZM9.31353 15.1286C8.87209 15.3781 8.4457 15.6589 8.05063 15.9793C7.70796 16.2827 7.33276 16.5494 7.01899 16.8858C6.66246 17.2778 6.28907 17.6533 5.95242 18.0637C5.51881 18.6075 5.09844 19.164 4.61002 19.6595C5.39414 20.1151 6.06444 20.7359 6.77026 21.3016C7.37732 21.7304 8.05184 22.0594 8.75947 22.2772C9.82062 22.6374 10.9992 22.7414 12.0748 22.3824C12.5915 21.0705 13.2546 19.8203 14.0568 18.6662C13.9249 18.6203 13.7876 18.5818 13.6738 18.498C13.4871 18.3647 13.3859 18.142 13.1944 18.0136C12.8668 17.7861 12.5132 17.591 12.1356 17.4631C11.7677 17.3286 11.3599 17.4882 11.0022 17.3059C10.5168 17.1341 10.3096 16.4821 10.5825 16.0466C10.795 15.7322 11.1552 15.5023 11.5394 15.5145C12.3169 15.4503 13.0643 15.7475 13.7328 16.1212C14.2507 16.4307 14.771 16.7903 15.0674 17.3384C15.1884 17.2032 15.3119 17.0692 15.4329 16.9341C15.2932 16.7573 15.1986 16.5488 15.0475 16.3806C14.6578 15.9225 14.2393 15.4754 13.7243 15.1604C13.092 14.8093 12.3753 14.6289 11.6563 14.6081C10.8492 14.6044 10.0471 14.7904 9.31353 15.1286ZM49.6902 19.0741C49.2036 19.2062 48.714 19.3494 48.2557 19.564C47.8148 19.805 47.3475 20.0013 46.9422 20.3023C46.3833 20.753 45.8479 21.2601 45.4974 21.8992C46.0611 23.2252 46.4785 24.6154 46.7326 26.0368C46.8976 25.9836 47.0705 25.9493 47.2439 25.9775C47.6432 26.0331 48.0407 25.912 48.4105 25.7677C48.6815 25.6625 48.9633 25.5408 49.1554 25.3096C49.3975 25.0013 49.7998 24.7946 50.1931 24.8631C50.5773 24.931 50.8875 25.3004 50.8797 25.6992C50.8742 25.9359 50.8279 26.1824 50.6954 26.3811C50.4346 26.7683 50.0492 27.0472 49.6553 27.2802C48.817 27.6906 47.8817 27.9903 46.9422 27.8478C46.9524 28.0221 46.9633 28.1976 46.9741 28.3726C47.7528 28.5701 48.5851 28.5493 49.362 28.3506C50.8038 27.8827 51.9083 26.6301 52.4039 25.2019C52.6111 24.4454 52.7171 23.6649 52.7737 22.8833C52.8701 21.4698 52.6087 20.0698 52.5605 18.6607C51.6252 18.9292 50.6442 18.9218 49.6902 19.0741ZM4.97016 24.5885C4.33962 25.0918 3.79037 25.6998 3.32906 26.3646C3.02251 26.7677 2.82137 27.2399 2.60034 27.6937C2.29501 28.4814 2.0511 29.3035 1.95474 30.1469C2.85268 30.2197 3.75002 30.3187 4.64134 30.4527C4.73107 30.3542 4.819 30.2539 4.90211 30.1499C5.26586 29.7004 5.74043 29.3646 6.20295 29.0294C6.63898 28.7206 7.14064 28.5298 7.63207 28.3347C8.65227 28.0386 9.73209 28.0545 10.7764 28.1946C10.8456 26.934 11.0642 25.6851 11.3726 24.4631C10.8432 24.509 10.3108 24.4821 9.78208 24.4441C9.05095 24.3659 8.34212 24.1463 7.65375 23.8912C7.40503 23.8099 7.16594 23.6417 6.89252 23.698C6.18067 23.7805 5.517 24.1285 4.97016 24.5885ZM49.9992 30.1334C49.0266 30.4374 47.9859 30.4392 46.9838 30.3151C46.8826 31.5622 46.7417 32.8135 46.3942 34.0184C47.0187 34.0105 47.6498 33.9829 48.2665 34.1053C48.7616 34.1891 49.2289 34.3811 49.7113 34.5144C49.9588 34.5854 50.1811 34.7303 50.431 34.7933C51.0772 34.8025 51.7029 34.5414 52.2335 34.1811C52.9881 33.6563 53.6319 32.9805 54.1745 32.2362C54.6003 31.6667 54.8978 31.0117 55.158 30.3512C55.3652 29.6931 55.529 29.0221 55.6512 28.3432C54.7436 28.2637 53.8367 28.1726 52.9363 28.0313C52.1841 29.0001 51.1452 29.7304 49.9992 30.1334ZM7.29783 30.5622C6.9142 30.8429 6.50468 31.1071 6.22222 31.5016C5.89581 31.8374 5.65913 32.2453 5.44955 32.6631C5.19902 33.0747 5.10206 33.5542 5.00329 34.0209C4.84189 34.9469 4.75095 35.8888 4.79973 36.83C4.82262 37.8306 5.01895 38.819 5.01895 39.8208C5.89099 39.5915 6.79496 39.5548 7.68567 39.4478C8.42462 39.2979 9.14912 39.052 9.81159 38.6832C10.2428 38.4447 10.6842 38.205 11.0365 37.8514C11.4696 37.4398 11.9062 37.0062 12.1579 36.4502C12.1633 36.364 12.1158 36.2863 12.0911 36.2074C11.587 34.9713 11.2311 33.6759 11.001 32.3585C10.7993 32.471 10.571 32.5487 10.3385 32.5065C10.0031 32.4459 9.67668 32.567 9.35689 32.6496C9.00518 32.7732 8.62878 32.9132 8.38728 33.2166C8.19035 33.4374 7.92597 33.6331 7.62304 33.6472C7.2105 33.6894 6.80459 33.3726 6.72991 32.9609C6.69137 32.6417 6.72449 32.2882 6.93407 32.0319C7.38877 31.4294 8.08857 31.0857 8.78115 30.8478C9.43338 30.6509 10.1404 30.4912 10.8125 30.6894C10.7987 30.5065 10.7884 30.323 10.7782 30.1401C9.62188 29.8704 8.32706 29.9004 7.29783 30.5622ZM45.7474 36.0404C45.2096 37.3884 44.529 38.6771 43.7148 39.8734C43.9768 39.9805 44.1255 40.2276 44.3212 40.4166C44.673 40.6918 45.0734 40.9083 45.5004 41.0355C45.8341 41.1438 46.1966 41.0062 46.5218 41.1566C46.9898 41.29 47.2475 41.863 47.0578 42.3144C46.8663 42.7487 46.3857 43 45.9268 42.9878C45.4691 42.9744 45.003 42.9034 44.582 42.7138C43.8256 42.4135 43.0921 41.9689 42.6 41.2985C42.4916 41.4257 42.382 41.5517 42.2706 41.6759C42.3893 41.9854 42.6265 42.2184 42.8409 42.46C43.2733 42.9144 43.7563 43.3529 44.3574 43.5578C44.791 43.764 45.2734 43.8123 45.7425 43.8734C46.8332 43.9046 47.966 43.6477 48.8615 42.9909C50.0251 42.2276 51.0067 41.2123 51.8764 40.1242C52.2275 39.6783 52.5828 39.2349 52.9682 38.819C52.1642 38.3744 51.4988 37.7236 50.7791 37.1585C50.1865 36.7664 49.5487 36.4337 48.867 36.2349C48.3798 36.0728 47.8835 35.9163 47.3674 35.8979C46.8254 35.882 46.2713 35.879 45.7474 36.0404ZM11.4033 39.9358C10.9101 40.2471 10.3964 40.5279 9.85796 40.7505C9.75196 40.7982 9.63814 40.8404 9.55744 40.9285C9.20693 41.2845 9.01121 41.7609 8.85824 42.2312C8.53784 43.4471 8.61011 44.734 8.87149 45.9542C9.15213 47.1297 9.75196 48.1908 10.4313 49.1725C10.7198 48.8893 11.0432 48.6471 11.3539 48.3909C11.7526 48.0722 12.1374 47.7334 12.5632 47.4514C12.4669 46.3872 12.565 45.2832 12.9866 44.2961C13.4196 43.1266 14.323 42.208 15.2902 41.4716C14.4772 40.515 13.7322 39.4949 13.1438 38.3787C12.6102 38.9462 12.0772 39.5364 11.4033 39.9358ZM15.3269 43.9811C15.0342 44.3199 14.8054 44.7107 14.6602 45.1376C14.2706 46.1951 14.3115 47.3866 14.6723 48.4459C14.8451 49.0569 15.2077 49.5866 15.5708 50.0954C16.0617 50.7529 16.5995 51.3749 17.2077 51.9236C17.8895 52.5866 18.6778 53.1236 19.3535 53.7927C19.7088 53.1798 20.1509 52.6275 20.5935 52.0789C21.4583 51.104 21.9353 49.8398 22.1871 48.5688C22.2786 47.8239 22.3033 47.0404 22.0552 46.3224C21.7733 46.2068 21.4903 46.0948 21.218 45.9572C20.2256 45.4673 19.2487 44.9303 18.367 44.2526C18.308 44.4068 18.252 44.5701 18.1328 44.6887C17.9906 44.8312 17.8172 44.9444 17.7082 45.1187C17.4769 45.4899 17.2451 45.874 17.1559 46.3101C17.0879 46.6092 17.1921 46.9272 17.0698 47.2172C16.9753 47.5658 16.6537 47.8441 16.2935 47.852C15.7346 47.8997 15.2842 47.3352 15.2757 46.8019C15.2155 46.1389 15.407 45.4887 15.6816 44.8948C16.0129 44.2514 16.3995 43.5994 17.0174 43.2007C16.8939 43.0844 16.7693 42.9688 16.6452 42.8545C16.1327 43.1328 15.7184 43.5523 15.3269 43.9811ZM37.9001 45.2459C38.4952 45.7994 39.0558 46.4074 39.4557 47.1248C39.6978 47.5805 39.9616 48.0275 40.1369 48.5162C40.1905 48.6881 40.3248 48.8098 40.4585 48.9199C41.133 49.4697 42.0171 49.6251 42.8566 49.6893C44.2189 49.759 45.6064 49.5003 46.8284 48.8746C47.371 48.5762 47.913 48.2704 48.4038 47.8881C47.8167 47.1847 47.2548 46.4575 46.7007 45.7297C46.4219 45.7224 46.146 45.7823 45.8678 45.7676C44.8837 45.7358 43.8979 45.5034 43.03 45.0245C42.1869 44.5395 41.4961 43.8251 40.8981 43.06C39.9737 43.8881 38.9673 44.6196 37.9001 45.2459ZM31.9211 47.4141C32.0548 47.6789 31.9994 47.9737 31.9879 48.2569C32.0716 48.7982 32.2144 49.3566 32.5414 49.8031C32.8202 50.0563 33.1147 50.3633 33.1292 50.7682C33.1653 51.2067 32.816 51.6281 32.3866 51.671C32.0891 51.6869 31.7711 51.6294 31.5344 51.4349C31.0539 51.0624 30.7341 50.5199 30.5149 49.956C30.2312 49.2116 30.0246 48.3951 30.1824 47.5964C30.0078 47.6104 29.8331 47.6239 29.6585 47.6379C29.467 48.4594 29.4645 49.3358 29.6789 50.1535C30.1451 51.6159 31.3845 52.7395 32.7973 53.2281C33.9506 53.5492 35.1563 53.6599 36.3494 53.6018C37.3075 53.5682 38.2573 53.4018 39.2166 53.3878C38.9679 52.5132 38.9492 51.5976 38.8427 50.6997C38.6825 49.8355 38.3747 49.0006 37.9339 48.2434C37.6219 47.6135 37.1383 47.093 36.6246 46.6288C36.4222 46.4808 36.2277 46.285 35.985 46.2233C34.6727 46.7487 33.3201 47.1976 31.9211 47.4141ZM24.0895 47.0288C24.1034 47.378 24.1172 47.7279 24.0938 48.0777C24.0775 49.1407 23.7306 50.1609 23.359 51.1431C23.2753 51.4434 23.3656 51.7615 23.4512 52.0526C23.7198 52.9425 24.3449 53.6563 24.9833 54.2985C25.5259 54.7988 26.1034 55.2765 26.7725 55.5927C27.6699 56.0911 28.678 56.3321 29.6777 56.5131C29.7554 55.5951 29.8494 54.6777 29.9807 53.7664C29.4007 53.3101 28.9364 52.7248 28.5323 52.1083C28.0246 51.2869 27.7054 50.3401 27.6783 49.3664C27.6367 48.7853 27.6777 48.2019 27.7512 47.6251C26.5178 47.523 25.2826 47.3737 24.0895 47.0288Z"/>
</mask>
<path d="M26.5557 0.209978C26.8833 -0.0780946 27.3459 0.00202752 27.7409 0.0387246C28.9069 0.18796 30.059 0.479702 31.1424 0.945143C32.118 1.38123 33.013 1.99346 33.7868 2.73719C34.5131 3.42709 35.178 4.20324 35.6213 5.11455C36.1476 4.49865 36.5897 3.81669 37.0016 3.11761C37.1431 2.89988 37.3003 2.68336 37.5099 2.52862C37.8598 2.31517 38.3344 2.20936 38.6987 2.44911C38.9444 2.58979 39.0378 2.87969 39.2431 3.06379C39.7888 3.59345 40.3585 4.09804 40.9547 4.56776C41.354 4.91271 41.7461 5.26745 42.1194 5.64176C42.6597 6.15797 43.1119 6.75858 43.5745 7.34451C43.9352 7.8864 44.3068 8.42707 44.5441 9.0393C45.2017 8.49619 45.8823 7.97937 46.4977 7.38549C46.7073 7.16347 47.0199 7.10965 47.3102 7.11515C47.5475 7.09864 47.7835 7.19344 47.957 7.35613C48.3936 7.76041 48.6959 8.28212 49.0398 8.76408C49.5349 9.57753 50.0178 10.4112 50.2973 11.3304C50.5508 12.0161 50.6556 12.7433 50.746 13.4662C50.8363 14.6797 50.8068 15.931 50.4159 17.0925C50.7682 17.0478 51.1212 17.0093 51.4729 16.9634C52.1733 16.8619 52.849 16.5402 53.5675 16.6069C53.9378 16.7096 54.3203 16.9451 54.4395 17.339C54.5431 17.6319 54.4082 17.931 54.4118 18.2277C54.4046 19.1322 54.5389 20.0283 54.6009 20.9286C54.6979 22.2931 54.6449 23.6741 54.3672 25.0154C54.2703 25.4454 54.1763 25.8784 53.992 26.2808C54.8563 26.3591 55.7169 26.4821 56.5853 26.5071C56.8629 26.5041 57.0966 26.6839 57.2851 26.8735C57.4471 27.0276 57.5621 27.2399 57.5754 27.468C57.5971 27.9616 57.529 28.4545 57.4296 28.9365C57.3357 29.5848 57.1406 30.2111 56.9641 30.8392C56.7732 31.3952 56.5239 31.9285 56.2523 32.4478C55.8993 33.12 55.4176 33.7102 54.9315 34.2851C54.2329 35.0276 53.4633 35.7291 52.5437 36.175C53.1495 36.7144 53.8246 37.164 54.5196 37.5756C54.7948 37.7762 55.102 37.9952 55.2092 38.3401C55.3362 38.6472 55.3561 39.0221 55.1682 39.3095C55.0285 39.5517 54.7551 39.6551 54.5702 39.8539C54.1613 40.2808 53.7801 40.734 53.4139 41.1994C52.5226 42.3426 51.5072 43.3915 50.3497 44.2581C49.8197 44.6245 49.2873 44.9958 48.6899 45.2435C49.1205 45.7927 49.5433 46.3487 50.0022 46.874C50.2021 47.1168 50.4774 47.3285 50.5424 47.6557C50.5876 47.959 50.6231 48.3022 50.443 48.5707C50.1648 48.9829 49.7288 49.2398 49.3421 49.534C48.8628 49.9009 48.3334 50.1908 47.81 50.4881C46.5273 51.1786 45.0819 51.5468 43.6311 51.5768C42.6657 51.6061 41.6804 51.5266 40.762 51.2043C40.8126 51.6544 40.8379 52.1089 40.936 52.5523C41.0396 53.1584 41.2865 53.7486 41.2348 54.3743C41.1366 54.8661 40.7391 55.3731 40.1983 55.3291C39.2793 55.1664 38.35 55.3523 37.431 55.4177C36.3945 55.5095 35.3478 55.5388 34.312 55.4294C33.4303 55.3339 32.5396 55.1896 31.7181 54.8385C31.6188 55.7242 31.5116 56.6104 31.4808 57.5015C31.4724 57.7737 31.2978 57.9994 31.1177 58.1847C30.9605 58.3529 30.7425 58.4709 30.5106 58.4764C30.0415 58.493 29.5729 58.4312 29.1152 58.3321C27.5307 58.0575 25.9709 57.4862 24.6773 56.5003C23.5782 55.6563 22.5863 54.6208 21.9576 53.3651C21.6505 53.781 21.3036 54.1682 21.0434 54.6183C20.7441 55.0813 20.52 55.6238 20.0654 55.9572C19.7275 56.1602 19.2782 56.2679 18.9187 56.0569C18.694 55.9413 18.579 55.7058 18.4255 55.5168C17.9051 54.959 17.3077 54.4844 16.7181 54.0055C15.9286 53.3236 15.1589 52.608 14.5115 51.7823C13.9303 51.0673 13.3955 50.3009 13.0312 49.4471C12.332 50.008 11.6454 50.5835 10.9799 51.1847C10.7439 51.37 10.4295 51.3725 10.1452 51.3658C9.78448 51.3395 9.51348 51.0551 9.29787 50.7866C8.26804 49.4392 7.3984 47.9236 7.02501 46.2465C6.77147 44.9627 6.69739 43.63 6.92745 42.337C6.97081 42.0135 7.05633 41.6973 7.17678 41.3958C6.60043 41.4624 6.01927 41.5169 5.45557 41.6618C4.98281 41.7719 4.50343 41.9358 4.0126 41.8734C3.65547 41.767 3.2869 41.5444 3.16284 41.1664C3.06046 40.8881 3.15922 40.5958 3.17729 40.3126C3.18632 39.0227 2.91953 37.7493 2.9382 36.4588C2.91351 35.5151 3.01589 34.5725 3.17548 33.6435C3.27967 33.1579 3.38506 32.6686 3.58621 32.2129C2.7226 32.1193 1.85959 32.005 0.990551 31.975C0.774948 31.9732 0.583435 31.8545 0.422637 31.7193C0.215465 31.5628 0.0414175 31.3389 0.010101 31.071C-0.0404874 30.4539 0.110675 29.8472 0.203421 29.2423C0.522006 27.6564 1.11823 26.098 2.12879 24.8313C2.93278 23.8185 3.88312 22.8864 5.04123 22.3047C4.73348 22.0735 4.442 21.8209 4.13365 21.5916C3.71027 21.3016 3.26341 21.0484 2.84244 20.7549C2.507 20.5133 2.29019 20.1188 2.27333 19.7004C2.25707 19.4001 2.40221 19.0968 2.64431 18.9237C2.78403 18.8246 2.92616 18.7267 3.04118 18.5983C3.33327 18.2827 3.62957 17.9702 3.90179 17.6362C4.48897 16.8564 5.13638 16.1243 5.81993 15.4307C6.04577 15.2038 6.28727 14.9952 6.5384 14.7989C7.24905 14.1781 8.02955 13.6277 8.88835 13.2417C8.43245 12.6583 7.9892 12.0631 7.49476 11.5127C7.32734 11.3078 7.1021 11.1304 7.04368 10.857C6.98225 10.5188 6.95395 10.1237 7.18641 9.84175C7.59654 9.34878 8.15723 9.02524 8.66913 8.65521C9.26836 8.2913 9.85615 7.8968 10.5138 7.64787C11.5003 7.2069 12.5693 6.98916 13.6412 6.91821C14.712 6.86745 15.8141 6.91638 16.8313 7.28824C16.7596 6.81729 16.7398 6.3384 16.6326 5.87295C16.5242 5.28764 16.2923 4.71088 16.3471 4.10599C16.4423 3.73412 16.6651 3.35064 17.0403 3.21853C17.289 3.12189 17.5546 3.19223 17.8082 3.22342C18.7711 3.26012 19.7245 3.08153 20.6839 3.02465C21.4692 2.99345 22.2581 2.94942 23.0422 3.03504C24.001 3.13474 24.9796 3.26012 25.8728 3.64911C25.9529 2.78122 26.0691 1.91639 26.0962 1.04423C26.095 0.706001 26.3275 0.430161 26.5557 0.209978ZM27.8987 1.98489C27.8313 2.89865 27.7337 3.81119 27.5988 4.717C28.5515 5.49192 29.2785 6.54635 29.6747 7.71821C29.968 8.74083 29.9825 9.8338 29.8241 10.8809C31.0659 10.9506 32.3017 11.1396 33.5038 11.465C33.4785 10.9708 33.4749 10.4735 33.5098 9.97936C33.561 9.26255 33.8175 8.58793 34.0121 7.90414C34.1 7.62096 34.3018 7.35797 34.2518 7.04604C34.1759 6.16714 33.6929 5.38672 33.1226 4.74574C32.4197 3.95492 31.5965 3.25645 30.6419 2.80141C30.0084 2.46502 29.3092 2.29499 28.6238 2.10722C28.3847 2.04973 28.1414 2.01731 27.8987 1.98489ZM38.2242 4.6907C37.8098 5.43381 37.2485 6.07601 36.7185 6.73411C36.4512 7.05705 36.2759 7.44237 36.0796 7.80995C35.823 8.30292 35.6839 8.84298 35.5177 9.37019C35.4171 9.72676 35.3503 10.0956 35.3406 10.4668C35.3292 11.0301 35.3346 11.6087 35.5255 12.1451C36.8366 12.6521 38.0826 13.3378 39.2311 14.1549C39.3034 14.0026 39.3756 13.843 39.5087 13.7347C39.9514 13.3995 40.2001 12.8668 40.379 12.35C40.5271 11.9708 40.3597 11.5463 40.5428 11.1763C40.709 10.6998 41.3167 10.4827 41.7461 10.7298C42.1128 10.9494 42.3284 11.3812 42.3248 11.8099C42.3284 12.7482 41.9472 13.6448 41.4287 14.4056C41.2348 14.7488 40.9312 15.0063 40.6265 15.2442C40.7542 15.3579 40.8812 15.4717 41.0065 15.5885C41.51 15.3225 41.8972 14.8852 42.2802 14.4705C43.2703 13.2919 43.404 11.5653 42.9427 10.1323C42.7849 9.5078 42.4115 8.97692 42.0604 8.45154C41.6521 7.9335 41.2528 7.402 40.771 6.95002C39.9785 6.13167 39.0396 5.48335 38.2242 4.6907ZM18.3634 5.09559C18.5917 5.91149 18.6326 6.76347 18.7205 7.60261C18.7699 8.17815 18.9813 8.72065 19.1632 9.26255C19.4306 9.83196 19.695 10.4106 20.0641 10.9206C20.5351 11.4803 21.047 12.0313 21.7053 12.3641C21.9166 12.265 22.1425 12.1653 22.3822 12.1983C22.8495 12.235 23.2392 12.679 23.2205 13.1549C23.2205 13.5347 22.9694 13.8913 22.6213 14.0252C21.8233 14.3604 21.0554 14.7671 20.3189 15.2252C20.0051 15.4295 19.5739 15.4393 19.2674 15.2167C18.8795 14.9592 18.7477 14.3904 18.9789 13.983C19.1445 13.6564 19.5089 13.5335 19.7925 13.3402C19.3421 12.9384 18.9277 12.495 18.5465 12.0246C18.0731 11.3506 17.7148 10.602 17.3824 9.84848C17.2926 9.68456 17.1342 9.57447 16.9921 9.46071C16.2369 8.95368 15.3143 8.8075 14.4254 8.78181C13.3443 8.78242 12.2501 8.94756 11.2521 9.38487C10.509 9.68334 9.84109 10.1414 9.18044 10.591C9.75859 11.3035 10.3319 12.0222 10.8776 12.761C12.4578 12.5953 14.1357 12.9904 15.3727 14.0326C15.8942 14.4888 16.3694 15.0008 16.7801 15.5622C16.9704 15.3677 17.2113 15.1989 17.492 15.1965C17.9647 15.1579 18.4182 15.5469 18.4628 16.0258C18.5086 16.3573 18.3544 16.6845 18.1093 16.8974C16.7813 18.0949 15.6383 19.5059 14.7566 21.0723C14.1399 22.1634 13.678 23.3396 13.2877 24.531C12.8523 26.1004 12.5795 27.7298 12.621 29.3646C12.6409 30.3866 12.6933 31.4154 12.9107 32.4166C13.1426 33.6869 13.5593 34.9144 14.0562 36.1016C14.2838 36.5903 14.5494 37.06 14.8096 37.5316C15.9129 39.5456 17.4847 41.2832 19.3264 42.6251C20.0593 43.1903 20.8561 43.6637 21.6806 44.0783C22.1491 44.3175 22.6261 44.5499 23.1338 44.6899C24.6249 45.3334 26.2425 45.6428 27.8572 45.7089C28.2366 45.7419 28.6166 45.7915 28.9978 45.7823C29.5621 45.7505 30.1258 45.7071 30.6889 45.6575C32.2059 45.5395 33.6863 45.1138 35.0931 44.5383C35.3021 44.463 35.4358 44.26 35.6472 44.1903C35.832 44.1291 36.0344 44.123 36.2054 44.0208C38.141 43.0233 39.899 41.6471 41.2853 39.9462C42.3886 38.6686 43.2414 37.1854 43.8997 35.627C44.0075 35.4099 43.9292 35.1554 44.0201 34.9334C44.0876 34.7248 44.2899 34.5964 44.3495 34.3842C44.5441 33.7597 44.7061 33.1248 44.8464 32.4863C44.9566 31.8466 45.0343 31.2013 45.0933 30.5554C45.124 30.1787 45.174 29.8019 45.1523 29.4233C45.1078 28.2386 45.0662 27.0441 44.8006 25.8851C44.5995 24.8515 44.2676 23.8496 43.8846 22.8723C43.8136 22.6717 43.6323 22.5438 43.5407 22.3561C43.4504 22.1805 43.4733 21.9695 43.3751 21.7977C41.6087 18.2026 38.4825 15.317 34.7878 13.8809C34.3993 13.8185 34.0747 13.5787 33.6953 13.4864C31.6368 12.8442 29.4525 12.6136 27.3085 12.8258C26.6738 12.8839 26.1685 12.18 26.3768 11.5769C26.0577 11.5133 25.7589 11.3096 25.6343 10.9965C25.5156 10.7549 25.5945 10.4839 25.5909 10.2289C25.5512 9.76285 25.3922 9.31392 25.1862 8.89924C25.0531 8.61606 24.7556 8.47172 24.6069 8.20078C24.3605 7.8546 24.4063 7.32616 24.7279 7.04482C25.0146 6.76592 25.4632 6.78304 25.8144 6.9072C26.2986 7.15368 26.6171 7.62952 26.8809 8.09374C27.282 8.96774 27.588 9.95306 27.3886 10.9231C27.5651 10.906 27.7427 10.8931 27.9198 10.8827C28.1131 10.0668 28.1215 9.20138 27.9222 8.38548C27.7433 7.75919 27.3856 7.20567 26.9773 6.71026C26.4112 6.08763 25.6957 5.6228 24.9285 5.30048C24.1209 5.04176 23.2747 4.94696 22.434 4.87785C21.9715 4.85033 21.5095 4.8803 21.0476 4.89681C20.1497 4.92128 19.2638 5.11455 18.3634 5.09559ZM45.0367 11.0448C45.003 11.1323 45.0337 11.2313 45.0337 11.3231C45.109 11.939 45.0174 12.5592 44.9138 13.1653C44.835 13.6307 44.6483 14.0662 44.4742 14.5011C43.9978 15.4937 43.2137 16.2962 42.3646 16.9677C43.1945 17.898 43.9141 18.9249 44.5507 19.9995C45.1806 19.2711 45.922 18.6197 46.7898 18.2007C47.162 17.9983 47.5432 17.8148 47.9257 17.6344C48.3882 17.2552 48.611 16.6613 48.7658 16.0962C49.1332 14.3494 48.8953 12.4742 48.1003 10.8803C47.81 10.3482 47.5047 9.82462 47.1626 9.32615C46.4586 9.90475 45.7558 10.4858 45.0367 11.0448ZM9.31353 15.1286C8.87209 15.3781 8.4457 15.6589 8.05063 15.9793C7.70796 16.2827 7.33276 16.5494 7.01899 16.8858C6.66246 17.2778 6.28907 17.6533 5.95242 18.0637C5.51881 18.6075 5.09844 19.164 4.61002 19.6595C5.39414 20.1151 6.06444 20.7359 6.77026 21.3016C7.37732 21.7304 8.05184 22.0594 8.75947 22.2772C9.82062 22.6374 10.9992 22.7414 12.0748 22.3824C12.5915 21.0705 13.2546 19.8203 14.0568 18.6662C13.9249 18.6203 13.7876 18.5818 13.6738 18.498C13.4871 18.3647 13.3859 18.142 13.1944 18.0136C12.8668 17.7861 12.5132 17.591 12.1356 17.4631C11.7677 17.3286 11.3599 17.4882 11.0022 17.3059C10.5168 17.1341 10.3096 16.4821 10.5825 16.0466C10.795 15.7322 11.1552 15.5023 11.5394 15.5145C12.3169 15.4503 13.0643 15.7475 13.7328 16.1212C14.2507 16.4307 14.771 16.7903 15.0674 17.3384C15.1884 17.2032 15.3119 17.0692 15.4329 16.9341C15.2932 16.7573 15.1986 16.5488 15.0475 16.3806C14.6578 15.9225 14.2393 15.4754 13.7243 15.1604C13.092 14.8093 12.3753 14.6289 11.6563 14.6081C10.8492 14.6044 10.0471 14.7904 9.31353 15.1286ZM49.6902 19.0741C49.2036 19.2062 48.714 19.3494 48.2557 19.564C47.8148 19.805 47.3475 20.0013 46.9422 20.3023C46.3833 20.753 45.8479 21.2601 45.4974 21.8992C46.0611 23.2252 46.4785 24.6154 46.7326 26.0368C46.8976 25.9836 47.0705 25.9493 47.2439 25.9775C47.6432 26.0331 48.0407 25.912 48.4105 25.7677C48.6815 25.6625 48.9633 25.5408 49.1554 25.3096C49.3975 25.0013 49.7998 24.7946 50.1931 24.8631C50.5773 24.931 50.8875 25.3004 50.8797 25.6992C50.8742 25.9359 50.8279 26.1824 50.6954 26.3811C50.4346 26.7683 50.0492 27.0472 49.6553 27.2802C48.817 27.6906 47.8817 27.9903 46.9422 27.8478C46.9524 28.0221 46.9633 28.1976 46.9741 28.3726C47.7528 28.5701 48.5851 28.5493 49.362 28.3506C50.8038 27.8827 51.9083 26.6301 52.4039 25.2019C52.6111 24.4454 52.7171 23.6649 52.7737 22.8833C52.8701 21.4698 52.6087 20.0698 52.5605 18.6607C51.6252 18.9292 50.6442 18.9218 49.6902 19.0741ZM4.97016 24.5885C4.33962 25.0918 3.79037 25.6998 3.32906 26.3646C3.02251 26.7677 2.82137 27.2399 2.60034 27.6937C2.29501 28.4814 2.0511 29.3035 1.95474 30.1469C2.85268 30.2197 3.75002 30.3187 4.64134 30.4527C4.73107 30.3542 4.819 30.2539 4.90211 30.1499C5.26586 29.7004 5.74043 29.3646 6.20295 29.0294C6.63898 28.7206 7.14064 28.5298 7.63207 28.3347C8.65227 28.0386 9.73209 28.0545 10.7764 28.1946C10.8456 26.934 11.0642 25.6851 11.3726 24.4631C10.8432 24.509 10.3108 24.4821 9.78208 24.4441C9.05095 24.3659 8.34212 24.1463 7.65375 23.8912C7.40503 23.8099 7.16594 23.6417 6.89252 23.698C6.18067 23.7805 5.517 24.1285 4.97016 24.5885ZM49.9992 30.1334C49.0266 30.4374 47.9859 30.4392 46.9838 30.3151C46.8826 31.5622 46.7417 32.8135 46.3942 34.0184C47.0187 34.0105 47.6498 33.9829 48.2665 34.1053C48.7616 34.1891 49.2289 34.3811 49.7113 34.5144C49.9588 34.5854 50.1811 34.7303 50.431 34.7933C51.0772 34.8025 51.7029 34.5414 52.2335 34.1811C52.9881 33.6563 53.6319 32.9805 54.1745 32.2362C54.6003 31.6667 54.8978 31.0117 55.158 30.3512C55.3652 29.6931 55.529 29.0221 55.6512 28.3432C54.7436 28.2637 53.8367 28.1726 52.9363 28.0313C52.1841 29.0001 51.1452 29.7304 49.9992 30.1334ZM7.29783 30.5622C6.9142 30.8429 6.50468 31.1071 6.22222 31.5016C5.89581 31.8374 5.65913 32.2453 5.44955 32.6631C5.19902 33.0747 5.10206 33.5542 5.00329 34.0209C4.84189 34.9469 4.75095 35.8888 4.79973 36.83C4.82262 37.8306 5.01895 38.819 5.01895 39.8208C5.89099 39.5915 6.79496 39.5548 7.68567 39.4478C8.42462 39.2979 9.14912 39.052 9.81159 38.6832C10.2428 38.4447 10.6842 38.205 11.0365 37.8514C11.4696 37.4398 11.9062 37.0062 12.1579 36.4502C12.1633 36.364 12.1158 36.2863 12.0911 36.2074C11.587 34.9713 11.2311 33.6759 11.001 32.3585C10.7993 32.471 10.571 32.5487 10.3385 32.5065C10.0031 32.4459 9.67668 32.567 9.35689 32.6496C9.00518 32.7732 8.62878 32.9132 8.38728 33.2166C8.19035 33.4374 7.92597 33.6331 7.62304 33.6472C7.2105 33.6894 6.80459 33.3726 6.72991 32.9609C6.69137 32.6417 6.72449 32.2882 6.93407 32.0319C7.38877 31.4294 8.08857 31.0857 8.78115 30.8478C9.43338 30.6509 10.1404 30.4912 10.8125 30.6894C10.7987 30.5065 10.7884 30.323 10.7782 30.1401C9.62188 29.8704 8.32706 29.9004 7.29783 30.5622ZM45.7474 36.0404C45.2096 37.3884 44.529 38.6771 43.7148 39.8734C43.9768 39.9805 44.1255 40.2276 44.3212 40.4166C44.673 40.6918 45.0734 40.9083 45.5004 41.0355C45.8341 41.1438 46.1966 41.0062 46.5218 41.1566C46.9898 41.29 47.2475 41.863 47.0578 42.3144C46.8663 42.7487 46.3857 43 45.9268 42.9878C45.4691 42.9744 45.003 42.9034 44.582 42.7138C43.8256 42.4135 43.0921 41.9689 42.6 41.2985C42.4916 41.4257 42.382 41.5517 42.2706 41.6759C42.3893 41.9854 42.6265 42.2184 42.8409 42.46C43.2733 42.9144 43.7563 43.3529 44.3574 43.5578C44.791 43.764 45.2734 43.8123 45.7425 43.8734C46.8332 43.9046 47.966 43.6477 48.8615 42.9909C50.0251 42.2276 51.0067 41.2123 51.8764 40.1242C52.2275 39.6783 52.5828 39.2349 52.9682 38.819C52.1642 38.3744 51.4988 37.7236 50.7791 37.1585C50.1865 36.7664 49.5487 36.4337 48.867 36.2349C48.3798 36.0728 47.8835 35.9163 47.3674 35.8979C46.8254 35.882 46.2713 35.879 45.7474 36.0404ZM11.4033 39.9358C10.9101 40.2471 10.3964 40.5279 9.85796 40.7505C9.75196 40.7982 9.63814 40.8404 9.55744 40.9285C9.20693 41.2845 9.01121 41.7609 8.85824 42.2312C8.53784 43.4471 8.61011 44.734 8.87149 45.9542C9.15213 47.1297 9.75196 48.1908 10.4313 49.1725C10.7198 48.8893 11.0432 48.6471 11.3539 48.3909C11.7526 48.0722 12.1374 47.7334 12.5632 47.4514C12.4669 46.3872 12.565 45.2832 12.9866 44.2961C13.4196 43.1266 14.323 42.208 15.2902 41.4716C14.4772 40.515 13.7322 39.4949 13.1438 38.3787C12.6102 38.9462 12.0772 39.5364 11.4033 39.9358ZM15.3269 43.9811C15.0342 44.3199 14.8054 44.7107 14.6602 45.1376C14.2706 46.1951 14.3115 47.3866 14.6723 48.4459C14.8451 49.0569 15.2077 49.5866 15.5708 50.0954C16.0617 50.7529 16.5995 51.3749 17.2077 51.9236C17.8895 52.5866 18.6778 53.1236 19.3535 53.7927C19.7088 53.1798 20.1509 52.6275 20.5935 52.0789C21.4583 51.104 21.9353 49.8398 22.1871 48.5688C22.2786 47.8239 22.3033 47.0404 22.0552 46.3224C21.7733 46.2068 21.4903 46.0948 21.218 45.9572C20.2256 45.4673 19.2487 44.9303 18.367 44.2526C18.308 44.4068 18.252 44.5701 18.1328 44.6887C17.9906 44.8312 17.8172 44.9444 17.7082 45.1187C17.4769 45.4899 17.2451 45.874 17.1559 46.3101C17.0879 46.6092 17.1921 46.9272 17.0698 47.2172C16.9753 47.5658 16.6537 47.8441 16.2935 47.852C15.7346 47.8997 15.2842 47.3352 15.2757 46.8019C15.2155 46.1389 15.407 45.4887 15.6816 44.8948C16.0129 44.2514 16.3995 43.5994 17.0174 43.2007C16.8939 43.0844 16.7693 42.9688 16.6452 42.8545C16.1327 43.1328 15.7184 43.5523 15.3269 43.9811ZM37.9001 45.2459C38.4952 45.7994 39.0558 46.4074 39.4557 47.1248C39.6978 47.5805 39.9616 48.0275 40.1369 48.5162C40.1905 48.6881 40.3248 48.8098 40.4585 48.9199C41.133 49.4697 42.0171 49.6251 42.8566 49.6893C44.2189 49.759 45.6064 49.5003 46.8284 48.8746C47.371 48.5762 47.913 48.2704 48.4038 47.8881C47.8167 47.1847 47.2548 46.4575 46.7007 45.7297C46.4219 45.7224 46.146 45.7823 45.8678 45.7676C44.8837 45.7358 43.8979 45.5034 43.03 45.0245C42.1869 44.5395 41.4961 43.8251 40.8981 43.06C39.9737 43.8881 38.9673 44.6196 37.9001 45.2459ZM31.9211 47.4141C32.0548 47.6789 31.9994 47.9737 31.9879 48.2569C32.0716 48.7982 32.2144 49.3566 32.5414 49.8031C32.8202 50.0563 33.1147 50.3633 33.1292 50.7682C33.1653 51.2067 32.816 51.6281 32.3866 51.671C32.0891 51.6869 31.7711 51.6294 31.5344 51.4349C31.0539 51.0624 30.7341 50.5199 30.5149 49.956C30.2312 49.2116 30.0246 48.3951 30.1824 47.5964C30.0078 47.6104 29.8331 47.6239 29.6585 47.6379C29.467 48.4594 29.4645 49.3358 29.6789 50.1535C30.1451 51.6159 31.3845 52.7395 32.7973 53.2281C33.9506 53.5492 35.1563 53.6599 36.3494 53.6018C37.3075 53.5682 38.2573 53.4018 39.2166 53.3878C38.9679 52.5132 38.9492 51.5976 38.8427 50.6997C38.6825 49.8355 38.3747 49.0006 37.9339 48.2434C37.6219 47.6135 37.1383 47.093 36.6246 46.6288C36.4222 46.4808 36.2277 46.285 35.985 46.2233C34.6727 46.7487 33.3201 47.1976 31.9211 47.4141ZM24.0895 47.0288C24.1034 47.378 24.1172 47.7279 24.0938 48.0777C24.0775 49.1407 23.7306 50.1609 23.359 51.1431C23.2753 51.4434 23.3656 51.7615 23.4512 52.0526C23.7198 52.9425 24.3449 53.6563 24.9833 54.2985C25.5259 54.7988 26.1034 55.2765 26.7725 55.5927C27.6699 56.0911 28.678 56.3321 29.6777 56.5131C29.7554 55.5951 29.8494 54.6777 29.9807 53.7664C29.4007 53.3101 28.9364 52.7248 28.5323 52.1083C28.0246 51.2869 27.7054 50.3401 27.6783 49.3664C27.6367 48.7853 27.6777 48.2019 27.7512 47.6251C26.5178 47.523 25.2826 47.3737 24.0895 47.0288Z" fill="#324950" stroke="#EFEDEB" stroke-width="0.6" mask="url(#path-1-inside-1_1_631)"/>
<path d="M30.378 2.90175L30.3781 2.9019L30.3844 2.8986C30.5706 2.80096 30.7872 2.84888 30.9798 3.03993C31.173 3.23156 31.3211 3.55373 31.3323 3.93661L31.332 3.93661L31.3328 3.94531C31.3634 4.2948 31.2735 4.63908 31.1207 4.88731C30.9646 5.14095 30.7673 5.26117 30.5919 5.24688L30.5821 5.24609L30.5724 5.24657C30.4132 5.25434 30.2343 5.15145 30.0858 4.9358C29.9398 4.72382 29.842 4.42599 29.8417 4.10793L29.8419 4.10793L29.8415 4.10029C29.8274 3.82825 29.8843 3.561 29.9864 3.34371C30.0897 3.12409 30.2321 2.96966 30.378 2.90175Z" fill="#324950" stroke="#EFEDEB" stroke-width="0.3"/>
<path d="M32.593 5.60427L32.5929 5.60463L32.6031 5.60801C32.7363 5.65237 32.8523 5.73142 32.9703 5.83111C33.0256 5.87783 33.0792 5.92728 33.1356 5.97919C33.1396 5.98286 33.1436 5.98653 33.1476 5.99022C33.2056 6.04367 33.2666 6.09949 33.3304 6.15221C33.3867 6.2084 33.4453 6.26312 33.5019 6.31605C33.5068 6.32056 33.5116 6.32507 33.5164 6.32956C33.58 6.38904 33.6412 6.4466 33.6989 6.50579C33.8125 6.62234 33.9065 6.73899 33.968 6.87094C34.0694 7.17334 34.0749 7.4941 33.8874 7.70047L33.8872 7.70029L33.8815 7.70731C33.6575 7.98567 33.1805 8.02993 32.903 7.79682L32.9033 7.79646L32.8936 7.78957C32.839 7.75056 32.7962 7.69713 32.7558 7.62833C32.7275 7.58024 32.705 7.53361 32.68 7.48171C32.6665 7.45355 32.6522 7.42384 32.6358 7.3915L32.6288 7.37764L32.619 7.36551C32.5306 7.25511 32.4265 7.15814 32.3239 7.06907C32.2816 7.03229 32.241 6.99803 32.2013 6.96458C32.1405 6.91332 32.082 6.86397 32.023 6.81039C31.8338 6.63842 31.6973 6.47104 31.6587 6.25104L31.6592 6.25095L31.656 6.23882C31.5864 5.97418 31.731 5.67665 31.9928 5.59126C32.1962 5.53341 32.4131 5.52976 32.593 5.60427Z" fill="#324950" stroke="#EFEDEB" stroke-width="0.3"/>
<path d="M23.2321 5.56742L23.2322 5.56755L23.2381 5.56611C23.4488 5.51511 23.6751 5.57537 23.8512 5.71109C24.027 5.8467 24.1398 6.04748 24.1386 6.26265L24.138 6.26265L24.1391 6.27612C24.1724 6.66859 23.8154 7.05156 23.4199 7.0454L23.4199 7.0448L23.4065 7.04578C23.0126 7.07473 22.6354 6.71635 22.6435 6.32458L22.644 6.32459L22.6432 6.31196C22.6215 5.9708 22.891 5.63546 23.2321 5.56742Z" fill="#324950" stroke="#EFEDEB" stroke-width="0.3"/>
<path d="M41.1733 8.28008L41.1734 8.2802L41.1792 8.27832C41.3949 8.2085 41.6344 8.25978 41.8231 8.39487C42.0116 8.52983 42.1342 8.7375 42.1323 8.96299L42.1317 8.96298L42.1328 8.97651C42.1656 9.37524 41.799 9.75941 41.3971 9.74564L41.3971 9.74512L41.3846 9.74573C40.9961 9.76474 40.6299 9.4113 40.637 9.0256L40.6375 9.02561L40.6368 9.01345C40.6164 8.68923 40.8549 8.369 41.1733 8.28008Z" fill="#324950" stroke="#EFEDEB" stroke-width="0.3"/>
<path d="M15.929 10.0522L15.93 10.0522C16.2206 10.0598 16.4942 10.1928 16.7228 10.3743C16.994 10.6039 17.0177 11.0196 16.7829 11.275L16.7829 11.2749L16.7796 11.2787C16.5983 11.4895 16.2632 11.5936 15.9624 11.5248C15.6619 11.3971 15.3478 11.4119 15.0656 11.4332C15.0386 11.4352 15.012 11.4373 14.9856 11.4394C14.7207 11.4601 14.485 11.4785 14.2596 11.4199L14.2593 11.4198C14.0966 11.3778 13.9364 11.2973 13.8205 11.1916C13.7053 11.0866 13.643 10.9662 13.6453 10.838L13.6455 10.838L13.6453 10.8317C13.6412 10.6557 13.728 10.4884 13.8813 10.3527C14.0343 10.2173 14.2441 10.1228 14.4584 10.095C14.9476 10.0548 15.44 10.0362 15.929 10.0522Z" fill="#324950" stroke="#EFEDEB" stroke-width="0.3"/>
<path d="M11.766 10.0873L11.766 10.0874L11.7695 10.0865C12.1286 10.0036 12.5244 10.0549 12.8319 10.191C13.1477 10.3308 13.3241 10.5359 13.3363 10.7303L13.3369 10.7398L13.3386 10.7491C13.3716 10.9222 13.2762 11.1207 13.0465 11.2865C12.8207 11.4495 12.4915 11.5571 12.1393 11.5449L12.1393 11.5446L12.1306 11.5448C11.8122 11.5523 11.5087 11.4612 11.2882 11.3193C11.0635 11.1747 10.9502 10.9963 10.9496 10.8365L10.9496 10.828L10.9486 10.8197C10.9326 10.6823 10.9949 10.5311 11.1416 10.3923C11.2877 10.2542 11.5068 10.1406 11.766 10.0873Z" fill="#324950" stroke="#EFEDEB" stroke-width="0.3"/>
<path d="M24.7825 10.989L24.7825 10.9891L24.7852 10.9881C25.1317 10.864 25.5494 11.021 25.7692 11.4047L25.7691 11.4048L25.7714 11.4085C25.9014 11.6209 25.9574 11.895 25.9364 12.1662C25.9154 12.4377 25.8183 12.6919 25.6596 12.8681L25.6595 12.8681L25.656 12.8723C25.5394 13.0118 25.3925 13.0915 25.2219 13.1515C25.1357 13.1817 25.046 13.2061 24.9513 13.2313C24.9443 13.2331 24.9373 13.235 24.9303 13.2369C24.8439 13.2598 24.753 13.2839 24.6647 13.3131C24.3256 13.4185 23.9252 13.2591 23.713 12.8876L23.7131 12.8876L23.7106 12.8836C23.5804 12.6713 23.5247 12.3977 23.5461 12.127C23.5675 11.856 23.665 11.6021 23.8239 11.4257L23.824 11.4257L23.8276 11.4213C23.9399 11.2867 24.0807 11.2088 24.2445 11.1497C24.3272 11.1199 24.4134 11.0956 24.5047 11.0705C24.5123 11.0685 24.5199 11.0664 24.5276 11.0643C24.6104 11.0416 24.6977 11.0177 24.7825 10.989Z" fill="#324950" stroke="#EFEDEB" stroke-width="0.3"/>
<path d="M47.5143 10.9809L47.5144 10.9811L47.5219 10.978C47.7079 10.9007 47.9234 10.9657 48.1107 11.1752C48.2971 11.3837 48.4319 11.7162 48.43 12.0958L48.4298 12.0958L48.4303 12.1048C48.4489 12.4444 48.3548 12.7713 48.2035 13.0052C48.0491 13.2438 47.8577 13.3567 47.6879 13.3442L47.6785 13.3435L47.6691 13.344C47.5066 13.3524 47.3241 13.2466 47.1741 13.0257C47.0267 12.8086 46.9298 12.5041 46.9346 12.1806L46.9348 12.1806L46.9345 12.1724C46.9233 11.8908 46.9884 11.6168 47.0999 11.3995C47.2129 11.1794 47.3643 11.0339 47.5143 10.9809Z" fill="#324950" stroke="#EFEDEB" stroke-width="0.3"/>
<path d="M47.6657 16.9414L47.6657 16.9411L47.657 16.9418C47.4726 16.9561 47.2902 16.8962 47.154 16.7936C47.0168 16.6901 46.94 16.5548 46.9372 16.4244L46.937 16.4147L46.9355 16.4051C46.9288 16.3607 46.9371 16.3124 46.9603 16.248C46.9716 16.2167 46.985 16.1851 47.0004 16.1489L47.0021 16.1449C47.0176 16.1086 47.0351 16.0673 47.0498 16.0246L47.0562 16.0062L47.0577 15.9869C47.0692 15.8353 47.0571 15.6792 47.0461 15.5371C47.0429 15.4957 47.0398 15.4556 47.0374 15.4171C47.0264 15.2413 47.0279 15.0852 47.075 14.9369C47.1485 14.7836 47.2853 14.6444 47.4655 14.5783C47.6874 14.5046 47.9094 14.5587 48.0862 14.6842C48.265 14.811 48.3807 14.9991 48.3997 15.1682C48.4034 15.2764 48.4094 15.3816 48.4154 15.4848C48.4318 15.7699 48.4472 16.0391 48.4089 16.3117C48.3358 16.6211 48.0526 16.9339 47.6657 16.9414Z" fill="#324950" stroke="#EFEDEB" stroke-width="0.3"/>
<path d="M8.50168 16.3588L8.50181 16.3591L8.51013 16.3544C8.53324 16.3416 8.55195 16.341 8.57636 16.3518C8.60678 16.3652 8.64871 16.399 8.69243 16.4643C8.77942 16.5944 8.84693 16.8108 8.8456 17.0634L8.84545 17.0634L8.84572 17.0702C8.85459 17.2942 8.80753 17.5074 8.73499 17.6565C8.69863 17.7313 8.65928 17.7829 8.62419 17.813C8.5899 17.8423 8.56853 17.8443 8.55861 17.8434L8.54628 17.8422L8.53391 17.843C8.52407 17.8437 8.50331 17.8412 8.47069 17.8139C8.4374 17.7861 8.39985 17.7386 8.36456 17.6695C8.29412 17.5317 8.2457 17.3334 8.24781 17.1197L8.24794 17.1197L8.24775 17.1136C8.24207 16.9273 8.27432 16.7472 8.32842 16.6061C8.38527 16.4579 8.45469 16.3812 8.50168 16.3588Z" fill="#324950" stroke="#EFEDEB" stroke-width="0.3"/>
<path d="M51.0357 23.5614L51.0357 23.5615L51.0387 23.561C51.2765 23.5201 51.5379 23.5468 51.7382 23.6146C51.8384 23.6485 51.9157 23.6901 51.9658 23.7319C52.017 23.7746 52.0259 23.8049 52.0267 23.8178L52.0274 23.8303L52.0302 23.8425C52.0327 23.8534 52.033 23.8719 52.0106 23.9031C51.9867 23.9365 51.9415 23.9764 51.871 24.0147C51.7307 24.0911 51.521 24.1447 51.292 24.1408L51.292 24.1407L51.2857 24.1409C51.0648 24.1465 50.8572 24.0986 50.7125 24.0267C50.64 23.9907 50.5902 23.9521 50.5614 23.9179C50.5332 23.8845 50.5313 23.8638 50.5322 23.8544L50.5333 23.8426L50.5325 23.8308C50.5316 23.8151 50.5428 23.7652 50.6403 23.7001C50.7315 23.6392 50.87 23.5866 51.0357 23.5614Z" fill="#324950" stroke="#EFEDEB" stroke-width="0.3"/>
<path d="M3.76213 26.637L3.87648 26.5399C3.73167 26.3694 3.71772 26.1854 3.79535 26.0025C3.87668 25.8108 4.06223 25.6168 4.32184 25.4688L4.32186 25.4688L4.32494 25.467C4.48504 25.3705 4.63574 25.2683 4.78458 25.1673C5.27474 24.8348 5.74466 24.516 6.46317 24.4623L6.46321 24.4627L6.4746 24.461C6.83918 24.4055 7.22034 24.4716 7.50583 24.608C7.80155 24.7493 7.94454 24.9376 7.94283 25.1006L7.94272 25.1117L7.94424 25.1227C7.96103 25.2443 7.90214 25.3803 7.7484 25.5112C7.59577 25.6411 7.36672 25.7487 7.1003 25.8041L7.08664 25.807L7.07374 25.8123C6.7628 25.9403 6.51423 26.1144 6.28019 26.2783C6.26157 26.2913 6.24304 26.3043 6.22458 26.3172C5.97247 26.4931 5.72884 26.6552 5.41371 26.7633C5.15108 26.837 4.828 26.8605 4.53512 26.8221C4.23543 26.7828 3.99811 26.683 3.87641 26.5399L3.76213 26.637ZM3.76213 26.637C4.07693 27.0073 4.89119 27.0671 5.45836 26.9065L6.452 24.3127C5.68985 24.3697 5.17829 24.7173 4.68235 25.0543C4.53802 25.1524 4.395 25.2496 4.24752 25.3385C3.69003 25.6564 3.39282 26.202 3.76213 26.637Z" fill="#324950" stroke="#EFEDEB" stroke-width="0.3"/>
<path d="M3.70036 27.1952L3.70039 27.1953L3.70612 27.1934C4.04676 27.0802 4.4229 27.1548 4.72102 27.3564C5.019 27.5579 5.22464 27.8765 5.23898 28.2341L5.23842 28.2341L5.24006 28.247C5.32437 28.9096 4.72933 29.5634 4.0621 29.5382L4.06212 29.5376L4.04921 29.5382C3.43105 29.5681 2.85068 29.0139 2.85221 28.3965L2.85265 28.3965L2.85181 28.385C2.81286 27.859 3.19092 27.3421 3.70036 27.1952Z" fill="#324950" stroke="#EFEDEB" stroke-width="0.3"/>
<path d="M53.2319 29.8658L53.2319 29.8659L53.2362 29.8651C53.5987 29.7989 53.9836 29.8652 54.274 30.01C54.5721 30.1585 54.7275 30.364 54.7263 30.5536L54.7262 30.5636L54.7275 30.5735C54.7489 30.7417 54.6468 30.9333 54.4167 31.0918C54.1909 31.2475 53.8685 31.3489 53.5274 31.3379L53.5274 31.3377L53.5191 31.3379C53.196 31.3454 52.8882 31.2522 52.6662 31.1077C52.4401 30.9604 52.3294 30.7798 52.3336 30.6188L52.3338 30.6097L52.333 30.6007C52.3195 30.4588 52.3912 30.3011 52.5547 30.1594C52.717 30.0189 52.956 29.908 53.2319 29.8658Z" fill="#324950" stroke="#EFEDEB" stroke-width="0.3"/>
<path d="M53.8256 32.2458L53.8254 32.2458L53.8266 32.2533C53.8444 32.3656 53.8039 32.4863 53.7016 32.617C53.5992 32.7478 53.4459 32.8736 53.2729 32.9864L53.2729 32.9864L53.2721 32.987C53.163 33.0591 53.0571 33.1318 52.9522 33.2037C52.5698 33.466 52.2001 33.7196 51.736 33.9089C51.4265 34.0114 51.0424 34.0583 50.6846 34.0293C50.3213 33.9998 50.0102 33.8942 49.8258 33.7169L49.8261 33.7166L49.8183 33.7101C49.7092 33.6186 49.656 33.5216 49.6388 33.4309C49.6216 33.3398 49.6383 33.2418 49.6921 33.1441C49.8014 32.9457 50.0639 32.7533 50.4561 32.683L50.4717 32.6802L50.4865 32.6741C50.7877 32.5508 51.0318 32.3771 51.2599 32.2147C51.307 32.1812 51.3534 32.1482 51.3995 32.1162C51.6719 31.927 51.9478 31.7614 52.3304 31.6833C52.7021 31.6177 53.1145 31.6138 53.4116 31.7451C53.6839 31.8674 53.8064 32.0679 53.8256 32.2458Z" fill="#324950" stroke="#EFEDEB" stroke-width="0.3"/>
<path d="M6.01543 33.4942L6.01546 33.4943L6.02021 33.4922C6.22994 33.4005 6.47483 33.4295 6.67648 33.548C6.878 33.6664 7.02029 33.8646 7.03864 34.0919L7.03823 34.092L7.03994 34.103C7.10332 34.51 6.75504 34.9269 6.3448 34.934L6.34479 34.9335L6.33312 34.9347C5.9458 34.9717 5.56392 34.6357 5.55207 34.2482L5.55245 34.2481L5.55136 34.2375C5.51968 33.9277 5.72163 33.6108 6.01543 33.4942Z" fill="#324950" stroke="#EFEDEB" stroke-width="0.3"/>
<path d="M48.9767 40.6563L48.9768 40.6566L48.985 40.6511C49.012 40.6331 49.0315 40.6328 49.0521 40.6398C49.0792 40.6489 49.1193 40.6759 49.1632 40.7349C49.2508 40.8528 49.3236 41.0596 49.3292 41.3117L49.3291 41.3117L49.3295 41.318C49.3443 41.5471 49.3002 41.7714 49.2276 41.9308C49.1911 42.0108 49.1509 42.0671 49.1143 42.1003C49.0783 42.1331 49.0558 42.1355 49.0459 42.1346L49.0331 42.1336L49.0203 42.1347C49.0109 42.1356 48.991 42.1336 48.9591 42.1077C48.9264 42.0811 48.8891 42.0351 48.8536 41.9673C48.783 41.832 48.7334 41.636 48.7337 41.4235L48.7338 41.4235L48.7336 41.4177C48.7269 41.236 48.756 41.0585 48.8067 40.9168C48.8597 40.7689 48.9269 40.6851 48.9767 40.6563Z" fill="#324950" stroke="#EFEDEB" stroke-width="0.3"/>
<path d="M9.69575 41.5764L9.69577 41.5764L9.69991 41.575C9.85836 41.5212 10.0404 41.5232 10.2037 41.5734C10.3678 41.6238 10.4994 41.7182 10.5703 41.8344L10.5701 41.8345L10.5749 41.8415C10.6822 41.9969 10.6625 42.2011 10.5532 42.3974L10.5397 42.4217L10.5357 42.4492C10.5109 42.6235 10.5278 42.803 10.5426 42.9611C10.5458 42.9955 10.549 43.0289 10.5516 43.061C10.5668 43.2493 10.5664 43.4098 10.5044 43.5602C10.4211 43.7314 10.2567 43.8835 10.0446 43.9259C9.89101 43.9495 9.7272 43.9221 9.58663 43.8567C9.44437 43.7905 9.3374 43.691 9.28539 43.5821L9.28576 43.582L9.28027 43.5724C9.2182 43.4638 9.19131 43.3439 9.17846 43.2083C9.172 43.1403 9.16926 43.0707 9.16667 42.997C9.16649 42.9917 9.16631 42.9864 9.16612 42.9811C9.16382 42.915 9.16139 42.8452 9.15594 42.776C9.15502 42.7221 9.15312 42.6716 9.15128 42.6228C9.14804 42.5368 9.14498 42.4558 9.14786 42.3702C9.15213 42.2434 9.16982 42.1287 9.21601 42.0229C9.32872 41.8208 9.47496 41.6443 9.69575 41.5764Z" fill="#324950" stroke="#EFEDEB" stroke-width="0.3"/>
<path d="M9.67856 46.0674L9.67859 46.0675L9.68381 46.0658C9.89206 45.9975 10.124 46.0414 10.3107 46.1655C10.4973 46.2896 10.6251 46.4846 10.6386 46.7022L10.6381 46.7023L10.6398 46.7143C10.6993 47.1292 10.3264 47.5468 9.9079 47.5321L9.90792 47.5316L9.89529 47.5322C9.50811 47.5512 9.14218 47.1989 9.14834 46.8126L9.14882 46.8126L9.14805 46.8006C9.12728 46.4776 9.3631 46.1583 9.67856 46.0674Z" fill="#324950" stroke="#EFEDEB" stroke-width="0.3"/>
<path d="M45.1292 46.9605L45.1292 46.9606L45.1333 46.9598C45.4971 46.8923 45.8838 46.9583 46.1757 47.1034C46.4753 47.2523 46.6311 47.4584 46.6293 47.6483L46.6292 47.6584L46.6305 47.6684C46.6516 47.8366 46.5491 48.0281 46.3187 48.1864C46.0925 48.3419 45.7698 48.443 45.4286 48.4318L45.4286 48.4316L45.4203 48.4318C45.0968 48.4389 44.7887 48.3454 44.567 48.2005C44.3411 48.0529 44.2312 47.8722 44.2363 47.7113L44.2366 47.7021L44.2357 47.6929C44.2228 47.5516 44.2944 47.3949 44.4568 47.254C44.618 47.1141 44.8552 47.0035 45.1292 46.9605Z" fill="#324950" stroke="#EFEDEB" stroke-width="0.3"/>
<path d="M44.0686 47.8105L44.0686 47.8105L44.0686 47.8105ZM44.0686 47.8105C43.9758 48.2143 43.5497 48.4877 43.1127 48.5464C43.0298 48.5498 42.947 48.5536 42.8641 48.5574C42.438 48.5769 42.0115 48.5965 41.5862 48.5692L44.0686 47.8105ZM41.2193 46.9539L41.2193 46.9539L41.2216 46.9534C41.3127 46.9324 41.4125 46.9301 41.5212 46.9363L41.5212 46.9363L41.5246 46.9364C41.5915 46.9387 41.6552 46.9613 41.7473 46.9939L41.7501 46.9948C41.8355 47.0251 41.9473 47.0644 42.0745 47.061C42.2203 47.0609 42.3707 47.0526 42.5161 47.0446C42.5906 47.0405 42.6638 47.0364 42.7345 47.0336C42.9484 47.0251 43.1527 47.0264 43.3519 47.0617C43.53 47.1053 43.6949 47.21 43.8035 47.3435C43.9122 47.4773 43.9574 47.6294 43.9227 47.7758L43.9224 47.7768C43.8494 48.0944 43.4998 48.3408 43.0993 48.3968C43.0175 48.4002 42.9361 48.4039 42.8551 48.4076C42.4301 48.4271 42.0141 48.4461 41.5988 48.4197C41.1814 48.3754 40.7837 48.1388 40.667 47.8143C40.5459 47.4732 40.7913 47.0452 41.2193 46.9539Z" fill="#324950" stroke="#EFEDEB" stroke-width="0.3"/>
<path d="M15.9661 48.7699L15.9662 48.7699L15.9713 48.7682C16.1818 48.6953 16.4185 48.7383 16.6087 48.8642C16.7988 48.99 16.9278 49.1886 16.9378 49.4097L16.9372 49.4097L16.9388 49.4221C16.9902 49.8209 16.6437 50.2227 16.2416 50.2284L16.2415 50.2279L16.2292 50.2291C15.8339 50.2675 15.4469 49.9165 15.4469 49.5218H15.4473L15.4464 49.5102C15.4214 49.188 15.6518 48.866 15.9661 48.7699Z" fill="#324950" stroke="#EFEDEB" stroke-width="0.3"/>
<path d="M24.705 50.7792L24.7048 50.7793L24.7106 50.786C24.7565 50.8384 24.7934 50.9074 24.8297 50.9935C24.8477 51.0361 24.8645 51.0803 24.8825 51.1275L24.8827 51.128C24.9003 51.1745 24.9192 51.2239 24.9397 51.2723L24.9446 51.2838L24.9512 51.2942C25.0693 51.4799 25.2134 51.6439 25.3481 51.7973C25.3896 51.8445 25.4302 51.8907 25.4689 51.9363C25.6373 52.1345 25.7828 52.3331 25.8705 52.5876C25.9685 52.9059 25.9736 53.2812 25.8233 53.5289C25.6533 53.7898 25.3648 53.8752 25.1162 53.8097C24.9503 53.7491 24.8021 53.6282 24.6541 53.4689C24.559 53.3666 24.4735 53.2598 24.3849 53.1492C24.3301 53.0809 24.2742 53.0111 24.2142 52.9401C24.1658 52.8778 24.1096 52.8119 24.0564 52.7497C24.021 52.7083 23.987 52.6685 23.9575 52.6324C23.8766 52.533 23.8059 52.4341 23.7524 52.3198L23.7525 52.3198L23.7494 52.3138C23.6098 52.0474 23.5337 51.7197 23.5423 51.3952C23.5536 51.007 23.7773 50.6762 24.0291 50.5707C24.2554 50.4808 24.525 50.5469 24.705 50.7792Z" fill="#324950" stroke="#EFEDEB" stroke-width="0.3"/>
<path d="M34.0113 51.4697L34.0114 51.4699L34.019 51.4666C34.2052 51.3853 34.4214 51.4474 34.6101 51.6547C34.7981 51.8611 34.9352 52.1932 34.9347 52.5742L34.9344 52.5742L34.9349 52.5829C34.9536 52.9106 34.8668 53.2306 34.7237 53.4651C34.5777 53.7044 34.3936 53.8259 34.228 53.8262L34.2182 53.8263L34.2085 53.8275C34.043 53.8496 33.8544 53.7533 33.6964 53.5342C33.541 53.3188 33.4364 53.0089 33.4399 52.676L33.4401 52.676L33.4397 52.6676C33.4269 52.387 33.4901 52.113 33.6 51.8947C33.7113 51.6736 33.8616 51.5256 34.0113 51.4697Z" fill="#324950" stroke="#EFEDEB" stroke-width="0.3"/>
<path d="M26.7766 54.1641L26.7766 54.1642L26.7821 54.1624C26.9985 54.0919 27.2389 54.1431 27.4281 54.2784C27.6171 54.4136 27.7399 54.6218 27.7376 54.8481L27.737 54.8481L27.7381 54.8617C27.7703 55.2603 27.4029 55.6435 27.0016 55.6293L27.0016 55.6288L26.9891 55.6294C26.6009 55.6479 26.2349 55.2936 26.2421 54.9075L26.2425 54.9075L26.2418 54.8958C26.2224 54.5725 26.4599 54.2541 26.7766 54.1641Z" fill="#324950" stroke="#EFEDEB" stroke-width="0.3"/>
</svg>
