<svg width="80" height="81" viewBox="0 0 80 81" fill="none" xmlns="http://www.w3.org/2000/svg">
<path fill-rule="evenodd" clip-rule="evenodd" d="M40.0445 78.2047C42.1939 81.0573 45.0481 80.4499 46.4583 77.2981C49.0728 80.0743 52.0919 79.0148 52.9502 75.3948C55.9967 77.6939 58.8846 76.5226 59.1332 72.6653C62.5408 74.3418 64.9759 72.2816 64.5294 68.6141C68.2186 69.7138 70.4437 67.3624 69.2765 63.7166C73.0944 64.106 74.9044 61.4167 73.0638 58.0413C76.7611 57.7203 78.2396 54.8943 75.885 51.909C79.546 50.8841 80.0673 47.7339 77.2485 45.2883C80.9562 43.5322 80.7125 40.3426 77.7384 38.5415C80.8187 36.2962 80.2202 33.1517 76.7023 31.8525C79.3844 29.0876 78.4697 25.9527 74.6236 25.3252C76.6291 22.2289 75.412 19.2653 71.586 19.2886C73.0091 15.8086 70.9457 13.396 67.279 14.1088C68.1092 10.3946 65.7474 8.17759 62.1555 9.61272C62.2697 5.94766 59.7132 4.03871 56.46 6.01202C55.8945 2.27858 52.8738 1.26336 50.0904 3.78048C49.0044 0.511205 45.9169 -0.853942 43.3515 2.56979C41.5448 -0.637545 38.3398 -1.01242 36.5813 2.41211C34.1527 -0.464589 31.0178 0.137137 29.9591 3.77404C27.0534 1.33979 23.9064 2.26007 23.5452 6.17049C20.2888 4.3814 17.3775 5.61945 17.668 9.51217C13.834 8.25642 11.785 10.5869 12.715 14.0653C9.00406 13.5087 6.78781 15.8963 8.47473 19.4061C4.86276 19.5517 2.95782 22.1508 5.1596 25.2809C1.52108 26.1047 0.522767 29.1254 3.25145 31.7519C-0.235827 33.2015 -0.931676 36.4073 2.37219 38.5455C-0.638053 40.5526 -1.00246 43.7953 2.55319 45.3229C-0.0918281 47.9108 0.5107 51.0538 4.23529 51.8639C2.13488 54.7897 2.91439 57.9512 6.76689 58.1434C5.20787 61.4867 6.87549 64.1961 10.6323 63.6659C9.65727 67.2514 11.6716 69.8304 15.3745 68.5747C15.0945 72.2534 17.5159 74.4689 20.9195 72.5462C21.325 76.0754 23.9732 77.9755 26.9625 75.5694C28.0349 79.0776 31.0717 80.0646 33.5228 77.1509C35.1438 80.3502 38.1146 81.0517 40.0445 78.2047Z" fill="#CF2333"/>
<path d="M41.9114 53.35C43.8432 57.9485 49.8348 61.0277 52.5196 62.2058L52.6178 62.2545C52.7324 62.3114 52.8634 62.3439 52.9944 62.3439C53.1008 62.3439 53.2072 62.3195 53.3054 62.2789C53.5837 62.1652 53.7801 61.9133 53.8129 61.6127C54.2385 57.3879 53.8047 51.7008 51.4309 47.6304C49.27 50.7177 45.8485 52.8788 41.9114 53.35Z" fill="white"/>
<path d="M65.657 39.0019C62.7103 36.9382 59.6899 35.5002 56.6859 34.7447C54.9751 34.314 53.5427 34.1759 52.5195 34.1597C53.3708 35.9145 53.8456 37.8889 53.8456 39.9687C53.8456 41.8292 53.4609 43.6004 52.7651 45.2171C53.0679 45.2497 53.3708 45.2659 53.6818 45.2659C58.3884 45.2659 63.3979 41.9917 65.567 40.3993L65.6325 40.3424C65.8289 40.2125 65.9681 40.0012 65.9926 39.7656C66.0336 39.465 65.9026 39.1806 65.657 39.0019Z" fill="white"/>
<path d="M38.8908 53.3826C34.9209 53.0008 31.4503 50.9046 29.2321 47.8579C26.138 51.7902 26.359 58.4604 26.6292 61.3528L26.6373 61.434C26.6455 61.6696 26.7601 61.889 26.9484 62.0434C27.0957 62.1571 27.2758 62.214 27.4559 62.214C27.5623 62.214 27.6769 62.1896 27.7751 62.149C31.5731 60.5322 36.5089 57.3474 38.8908 53.3826Z" fill="white"/>
<path d="M39.2099 26.515C37.3109 22.2984 31.352 18.943 27.2103 17.6674C26.9647 17.5861 26.6946 17.6268 26.4818 17.7812C26.2689 17.9274 26.138 18.1711 26.138 18.4311C26.0725 23.582 27.3085 28.4243 29.4776 31.7472C31.7695 28.798 35.2564 26.8156 39.2099 26.515Z" fill="white"/>
<path d="M27.7834 45.4774H27.8488C27.0794 43.7956 26.6538 41.927 26.6538 39.969C26.6538 38.0191 27.0712 36.1667 27.8325 34.493C22.7493 33.6318 16.8805 37.426 14.433 39.2378L14.3676 39.2946C14.1711 39.4246 14.0319 39.6359 14.0074 39.8715C13.9665 40.164 14.0974 40.4564 14.343 40.6352C17.2488 42.6744 20.2282 44.0962 23.2159 44.8599C25.1476 45.3556 26.7192 45.4774 27.7834 45.4774Z" fill="white"/>
<path d="M40.4214 54.0083C39.2852 55.9586 37.6059 57.7253 35.7336 59.2416C37.4278 62.8049 39.9793 65.5906 40.1104 65.7401C40.2659 65.9026 40.4869 66.0001 40.7161 66.0001H40.7979C41.0517 65.9757 41.2809 65.8295 41.4118 65.6102C42.7385 63.4475 43.7311 61.2746 44.3922 59.1141C42.7416 57.6928 41.2669 55.9885 40.4214 54.0083Z" fill="white"/>
<path d="M40.5033 25.4504C41.4824 23.776 42.8665 22.1542 44.5343 20.6501C43.1002 17.1868 40.962 14.4574 40.847 14.3117C40.6833 14.1086 40.4378 13.9785 40.184 14.0029C39.9221 14.0111 39.6847 14.1329 39.5374 14.3441C38.0822 16.3662 36.9452 18.4264 36.1257 20.4933C37.9584 21.907 39.5543 23.5763 40.5033 25.4504Z" fill="white"/>
<path d="M21.2678 33.6743C23.6102 32.8656 26.026 32.4955 28.3072 32.9253C27.0557 31.0991 26.0799 28.8356 25.4281 26.3204C21.5953 25.9687 18.0567 26.6394 17.8709 26.6776C17.6171 26.7263 17.4043 26.8888 17.2897 27.1245C17.1751 27.3519 17.1833 27.62 17.2979 27.8475C18.4577 30.0642 19.7879 32.0102 21.2678 33.6743Z" fill="white"/>
<path d="M20.8164 45.8301C18.559 48.8771 17.3214 52.1717 17.2569 52.3509C17.1669 52.5865 17.1996 52.8547 17.3388 53.074C17.4779 53.2852 17.7153 53.4234 17.969 53.4396C18.7221 53.4883 19.4588 53.5127 20.1873 53.5127C21.9853 53.5127 23.6915 53.3396 25.3186 53.0303C25.7376 50.9042 26.4829 48.8163 27.7587 47.1025C25.7051 47.1025 23.3422 46.7119 20.8164 45.8301Z" fill="white"/>
<path d="M58.8898 45.897C56.8626 46.6246 54.7946 47.0317 52.8713 46.8583C53.9532 48.7427 54.6603 50.9201 55.0832 53.1438C55.8623 53.2106 56.6264 53.2442 57.3406 53.2442C59.9435 53.2442 61.9571 52.8949 62.088 52.8705C62.3418 52.8299 62.5628 52.6674 62.6774 52.4399C62.792 52.2124 62.8002 51.9443 62.6856 51.7168C61.5879 49.5162 60.317 47.5726 58.8898 45.897Z" fill="white"/>
<path d="M59.2365 33.8335C61.563 30.9952 62.9367 27.9463 63.0131 27.782C63.1113 27.5464 63.1031 27.2783 62.9721 27.0589C62.8493 26.8314 62.6202 26.6852 62.3664 26.6527C59.8755 26.3297 57.5075 26.304 55.2865 26.5585C54.9448 28.7797 54.2893 30.9097 53.1169 32.5511C55.193 32.6656 57.2466 33.1318 59.2365 33.8335Z" fill="white"/>
<path d="M51.3408 32.1776C54.4185 28.7328 54.091 21.3314 53.7718 18.0409L53.7636 17.9597C53.7473 17.7159 53.6245 17.4884 53.428 17.3422C53.1825 17.1716 52.8632 17.1391 52.5931 17.2691C48.4186 19.2352 43.9739 22.5094 41.7476 26.5554C45.701 26.986 49.1471 29.1065 51.3408 32.1776Z" fill="white"/>
<path d="M39.9588 28C33.3541 28 28 33.3144 28 39.8699C28 46.4256 33.3541 51.7399 39.9588 51.7399C46.5635 51.7399 51.9176 46.4256 51.9176 39.8699C51.9176 33.3144 46.5635 28 39.9588 28ZM39.0264 30.7203C39.0264 31.1923 38.6379 31.578 38.1623 31.578C37.6946 31.578 37.3061 31.1923 37.3061 30.7203C37.3061 29.5913 39.0264 29.6012 39.0264 30.7203ZM31.573 36.1324C32.0486 36.1324 32.4292 36.5101 32.4292 36.9822C32.4292 37.4543 32.0486 37.8399 31.573 37.8399C31.0973 37.8399 30.7168 37.4543 30.7168 36.9822C30.7168 36.5101 31.0973 36.1324 31.573 36.1324ZM31.1675 38.8449C31.6431 38.8449 32.0236 39.2305 32.0236 39.7026C32.0236 40.1747 31.6431 40.5524 31.1675 40.5524C30.0291 40.5524 30.0397 38.8449 31.1675 38.8449ZM31.1675 43.5628C30.0402 43.5628 30.0283 41.8553 31.1675 41.8553C31.6431 41.8553 32.0236 42.233 32.0236 42.7051C32.0236 43.1772 31.6431 43.5628 31.1675 43.5628ZM32.4292 46.7445C31.3019 46.7445 31.29 45.037 32.4292 45.037C32.9048 45.037 33.2854 45.4147 33.2854 45.8868C33.2854 46.3589 32.9048 46.7445 32.4292 46.7445ZM32.553 34.6434C32.0773 34.6434 31.6968 34.2578 31.6968 33.7857C31.6968 33.3136 32.0773 32.9359 32.553 32.9359C33.0286 32.9359 33.4092 33.3136 33.4092 33.7857C33.4092 34.2578 33.0286 34.6434 32.553 34.6434ZM35.6238 31.574C35.6238 32.0461 35.2354 32.4317 34.7597 32.4317C34.2841 32.4317 33.9035 32.0461 33.9035 31.574C33.9036 30.4423 35.6238 30.4557 35.6238 31.574ZM34.7614 37.4646C34.2857 37.4646 33.9052 37.0869 33.9052 36.6148C33.9052 36.1427 34.2857 35.7571 34.7614 35.7571C35.237 35.7571 35.6254 36.1427 35.6254 36.6148C35.6255 37.0869 35.237 37.4646 34.7614 37.4646ZM35.6255 39.66C35.6255 40.1321 35.237 40.5177 34.7614 40.5177C34.2857 40.5177 33.9052 40.1321 33.9052 39.66C33.9052 39.1878 34.2857 38.8101 34.7614 38.8101C35.237 38.8101 35.6255 39.1878 35.6255 39.66ZM33.9052 42.713C33.9052 42.2409 34.2857 41.8553 34.7614 41.8553C35.237 41.8553 35.6254 42.2409 35.6254 42.713C35.6254 43.1851 35.237 43.5628 34.7614 43.5628C34.2857 43.5628 33.9052 43.1851 33.9052 42.713ZM35.0574 48.9606C34.5896 48.9606 34.2012 48.575 34.2012 48.1029C34.2012 47.6308 34.5896 47.2531 35.0574 47.2531C35.533 47.2531 35.9214 47.6308 35.9214 48.1029C35.9214 48.575 35.533 48.9606 35.0574 48.9606ZM35.2917 46.4192C34.8161 46.4192 34.4356 46.0336 34.4356 45.5615C34.4356 45.0894 34.8161 44.7117 35.2917 44.7117C35.7674 44.7117 36.1559 45.0894 36.1559 45.5615C36.1559 46.0336 35.7674 46.4192 35.2917 46.4192ZM35.9174 35.0877C35.4418 35.0877 35.0613 34.7021 35.0613 34.2301C35.0613 33.7579 35.4418 33.3802 35.9174 33.3802C36.3931 33.3802 36.7816 33.7579 36.7816 34.2301C36.7816 34.7021 36.3931 35.0877 35.9174 35.0877ZM38.1623 49.4196C37.6946 49.4196 37.3061 49.034 37.3061 48.5619C37.3061 48.0898 37.6946 47.7121 38.1623 47.7121C38.638 47.7121 39.0264 48.0898 39.0264 48.5619C39.0264 49.034 38.6379 49.4196 38.1623 49.4196ZM38.1623 46.6159C37.6946 46.6159 37.3061 46.2303 37.3061 45.7582C37.3061 45.2861 37.6946 44.9083 38.1623 44.9083C38.638 44.9083 39.0264 45.2861 39.0264 45.7582C39.0264 46.2303 38.6379 46.6159 38.1623 46.6159ZM38.1623 43.5628C37.6946 43.5628 37.3061 43.1851 37.3061 42.713C37.3061 42.2409 37.6946 41.8553 38.1623 41.8553C38.638 41.8553 39.0264 42.2409 39.0264 42.713C39.0264 43.1851 38.6379 43.5628 38.1623 43.5628ZM38.1623 40.5177C37.6946 40.5177 37.3061 40.1321 37.3061 39.66C37.3061 39.1878 37.6946 38.8101 38.1623 38.8101C38.638 38.8101 39.0264 39.1878 39.0264 39.66C39.0264 40.1321 38.6379 40.5177 38.1623 40.5177ZM38.1623 37.4646C37.6946 37.4646 37.3061 37.0869 37.3061 36.6148C37.3061 36.1427 37.6946 35.7571 38.1623 35.7571C38.638 35.7571 39.0264 36.1427 39.0264 36.6148C39.0264 37.0869 38.6379 37.4646 38.1623 37.4646ZM38.5973 34.4194C38.1296 34.4194 37.7411 34.0338 37.7411 33.5618C37.7411 33.0897 38.1296 32.7119 38.5973 32.7119C39.073 32.7119 39.4614 33.0897 39.4614 33.5618C39.4614 34.0338 39.073 34.4194 38.5973 34.4194ZM41.5711 29.8704C42.0468 29.8704 42.4353 30.2482 42.4353 30.7203C42.4353 31.1923 42.0468 31.578 41.5711 31.578C41.0955 31.578 40.715 31.1923 40.715 30.7203C40.715 30.2482 41.0955 29.8704 41.5711 29.8704ZM41.5711 49.4196C41.0955 49.4196 40.715 49.034 40.715 48.5619C40.715 48.0898 41.0955 47.7121 41.5711 47.7121C42.0468 47.7121 42.4353 48.0898 42.4353 48.5619C42.4353 49.034 42.0468 49.4196 41.5711 49.4196ZM41.5711 46.6159C41.0955 46.6159 40.715 46.2303 40.715 45.7582C40.715 45.2861 41.0955 44.9083 41.5711 44.9083C42.0468 44.9083 42.4353 45.2861 42.4353 45.7582C42.4353 46.2303 42.0468 46.6159 41.5711 46.6159ZM41.5711 43.5628C41.0955 43.5628 40.715 43.1851 40.715 42.713C40.715 42.2409 41.0955 41.8553 41.5711 41.8553C42.0468 41.8553 42.4353 42.2409 42.4353 42.713C42.4353 43.1851 42.0468 43.5628 41.5711 43.5628ZM41.5711 40.5177C41.0955 40.5177 40.715 40.1321 40.715 39.66C40.715 39.1878 41.0955 38.8101 41.5711 38.8101C42.0468 38.8101 42.4353 39.1878 42.4353 39.66C42.4353 40.1321 42.0468 40.5177 41.5711 40.5177ZM41.5711 37.4646C41.0955 37.4646 40.715 37.0869 40.715 36.6148C40.715 36.1427 41.0955 35.7571 41.5711 35.7571C42.0468 35.7571 42.4353 36.1427 42.4353 36.6148C42.4353 37.0869 42.0468 37.4646 41.5711 37.4646ZM42.1921 34.6434C41.7164 34.6434 41.3359 34.2578 41.3359 33.7857C41.3359 33.3136 41.7164 32.9359 42.1921 32.9359C42.6677 32.9359 43.0562 33.3136 43.0562 33.7857C43.0562 34.2578 42.6677 34.6434 42.1921 34.6434ZM43.5292 31.9588C43.5292 31.4867 43.9098 31.109 44.3854 31.109C44.8611 31.109 45.2416 31.4867 45.2416 31.9588C45.2416 32.4309 44.8611 32.8165 44.3854 32.8165C43.9098 32.8165 43.5292 32.4309 43.5292 31.9588ZM44.681 44.5685C45.1567 44.5685 45.5372 44.9462 45.5372 45.4183C45.5372 45.8904 45.1567 46.276 44.681 46.276C44.2054 46.276 43.8248 45.8904 43.8248 45.4183C43.8248 44.9462 44.2054 44.5685 44.681 44.5685ZM44.677 49.1245C44.2014 49.1245 43.8208 48.7389 43.8208 48.2669C43.8208 47.7947 44.2014 47.417 44.677 47.417C45.1527 47.417 45.5412 47.7947 45.5412 48.2669C45.5412 48.7389 45.1527 49.1245 44.677 49.1245ZM44.9799 43.5628C44.5043 43.5628 44.1238 43.1851 44.1238 42.713C44.1238 42.2409 44.5043 41.8553 44.9799 41.8553C45.4557 41.8553 45.8361 42.2409 45.8361 42.713C45.8361 43.1851 45.4557 43.5628 44.9799 43.5628ZM44.9799 40.5177C44.5043 40.5177 44.1238 40.1321 44.1238 39.66C44.1238 39.1878 44.5043 38.8101 44.9799 38.8101C45.4557 38.8101 45.8361 39.1878 45.8361 39.66C45.8361 40.1321 45.4557 40.5177 44.9799 40.5177ZM44.9799 37.4646C44.5043 37.4646 44.1238 37.0869 44.1238 36.6148C44.1238 36.1427 44.5043 35.7571 44.9799 35.7571C45.4557 35.7571 45.8361 36.1427 45.8361 36.6148C45.8361 37.0869 45.4557 37.4646 44.9799 37.4646ZM45.3657 33.7935C45.3657 33.3215 45.7463 32.9359 46.2219 32.9359C46.6976 32.9359 47.0781 33.3215 47.0781 33.7935C47.0781 34.2656 46.6976 34.6434 46.2219 34.6434C45.7463 34.6434 45.3657 34.2656 45.3657 33.7935ZM47.3619 46.276C46.8862 46.276 46.5057 45.8983 46.5057 45.4262C46.5057 44.9541 46.8862 44.5685 47.3619 44.5685C47.8376 44.5685 48.2181 44.9541 48.2181 45.4262C48.2181 45.8983 47.8376 46.276 47.3619 46.276ZM48.6332 43.1502C48.1576 43.1502 47.777 42.7725 47.777 42.3004C47.777 41.8283 48.1576 41.4427 48.6332 41.4427C49.1089 41.4427 49.4894 41.8283 49.4894 42.3004C49.4894 42.7725 49.1089 43.1502 48.6332 43.1502ZM49.3581 39.4746C49.3581 39.9467 48.9777 40.3323 48.5019 40.3323C48.0263 40.3323 47.6458 39.9467 47.6458 39.4746C47.6458 39.0025 48.0263 38.6248 48.5019 38.6248C48.9776 38.6248 49.3581 39.0025 49.3581 39.4746ZM48.9287 36.1363C48.9287 36.6085 48.5482 36.9862 48.0725 36.9862C47.5969 36.9862 47.2163 36.6085 47.2163 36.1363C47.2163 35.6643 47.5969 35.2787 48.0725 35.2787C48.5482 35.2787 48.9287 35.6643 48.9287 36.1363Z" fill="white"/>
</svg>
