<svg width="80" height="81" viewBox="0 0 80 81" fill="none" xmlns="http://www.w3.org/2000/svg">
<path fill-rule="evenodd" clip-rule="evenodd" d="M40.0445 78.2047C42.1939 81.0573 45.0481 80.4499 46.4583 77.2981C49.0728 80.0743 52.0919 79.0148 52.9502 75.3948C55.9967 77.6939 58.8846 76.5226 59.1332 72.6653C62.5408 74.3418 64.9759 72.2816 64.5294 68.6141C68.2186 69.7138 70.4437 67.3624 69.2765 63.7166C73.0944 64.106 74.9044 61.4167 73.0638 58.0413C76.7611 57.7203 78.2396 54.8943 75.885 51.909C79.546 50.8841 80.0673 47.7339 77.2485 45.2883C80.9562 43.5322 80.7125 40.3426 77.7384 38.5415C80.8187 36.2962 80.2202 33.1517 76.7023 31.8525C79.3844 29.0876 78.4697 25.9527 74.6236 25.3252C76.6291 22.2289 75.412 19.2653 71.586 19.2886C73.0091 15.8086 70.9457 13.396 67.279 14.1088C68.1092 10.3946 65.7474 8.17759 62.1555 9.61272C62.2697 5.94766 59.7132 4.03871 56.46 6.01202C55.8945 2.27858 52.8738 1.26336 50.0904 3.78048C49.0044 0.511205 45.9169 -0.853942 43.3515 2.56979C41.5448 -0.637545 38.3398 -1.01242 36.5813 2.41211C34.1527 -0.464589 31.0178 0.137137 29.9591 3.77404C27.0534 1.33979 23.9064 2.26007 23.5452 6.17049C20.2888 4.3814 17.3775 5.61945 17.668 9.51217C13.834 8.25642 11.785 10.5869 12.715 14.0653C9.00406 13.5087 6.78781 15.8963 8.47473 19.4061C4.86276 19.5517 2.95782 22.1508 5.1596 25.2809C1.52108 26.1047 0.522767 29.1254 3.25145 31.7519C-0.235827 33.2015 -0.931676 36.4073 2.37219 38.5455C-0.638053 40.5526 -1.00246 43.7953 2.55319 45.3229C-0.0918281 47.9108 0.5107 51.0538 4.23529 51.8639C2.13488 54.7897 2.91439 57.9512 6.76689 58.1434C5.20787 61.4867 6.87549 64.1961 10.6323 63.6659C9.65727 67.2514 11.6716 69.8304 15.3745 68.5747C15.0945 72.2534 17.5159 74.4689 20.9195 72.5462C21.325 76.0754 23.9732 77.9755 26.9625 75.5694C28.0349 79.0776 31.0717 80.0646 33.5228 77.1509C35.1438 80.3502 38.1146 81.0517 40.0445 78.2047Z" fill="#CF2333"/>
<path fill-rule="evenodd" clip-rule="evenodd" d="M29.1503 27.9909C25.1517 27.9525 22.1196 26.3495 20.5897 25.3271L20.5902 25.3275C20.5193 25.2801 20.4584 25.2192 20.411 25.1482C20.3636 25.0773 20.3307 24.9977 20.3141 24.9141C20.2974 24.8304 20.2974 24.7443 20.3141 24.6606C20.3307 24.577 20.3637 24.4974 20.4111 24.4265C20.4585 24.3555 20.5194 24.2947 20.5903 24.2473C20.6613 24.1999 20.7408 24.1669 20.8245 24.1503C20.9082 24.1337 20.9943 24.1337 21.078 24.1503C21.1616 24.167 21.2412 24.1999 21.3121 24.2473C22.8664 25.2867 26.1129 26.9808 30.3744 26.6511C35.6592 26.2438 38.9302 22.8937 40.005 21.7927C40.1132 21.6819 40.2014 21.5916 40.2693 21.5266C40.3911 21.4094 40.5271 21.2731 40.6777 21.122L40.6816 21.1181C42.1736 19.6221 45.2785 16.5092 50.4684 16.1133C52.633 15.9473 57.0498 16.6168 61.6268 18.4752C61.7864 18.54 61.9138 18.6656 61.9808 18.8243C62.0479 18.983 62.0491 19.1618 61.9843 19.3214C61.9195 19.481 61.794 19.6084 61.6353 19.6754C61.4766 19.7425 61.2977 19.7438 61.1381 19.6789C57.0923 18.0361 53.4021 17.4417 51.3875 17.3934C48.3801 20.0546 49.2698 23.7163 50.3279 26.0446C51.3048 25.0972 52.3698 25.2343 53.4916 25.3801L53.4964 25.3807C54.0108 25.4473 54.5031 25.511 54.9659 25.4525C54.1453 26.2315 53.1124 26.2987 52.7025 26.2909H52.6901C52.5251 26.2909 52.3664 26.3538 52.2461 26.4666C52.1257 26.5794 52.0528 26.7337 52.0421 26.8983C51.9671 28.0469 52.663 28.5784 53.2222 29.0055C53.4177 29.1483 53.6039 29.3035 53.7797 29.47C53.6769 29.4981 53.5683 29.5284 53.454 29.5609C53.2634 29.6199 53.0699 29.6692 52.8743 29.7087C52.1379 29.7798 51.6617 29.2793 51.2787 28.8765C50.9799 28.5621 50.6409 28.2057 50.147 28.3493C50.0404 28.3802 49.9435 28.438 49.8656 28.5171C49.7876 28.5961 49.7313 28.6939 49.7018 28.8009C49.3769 29.9835 48.634 30.5193 48.0914 30.9107L48.0912 30.9108C47.9553 31.0049 47.8245 31.1061 47.6993 31.214C47.6117 31.2944 47.532 31.383 47.4612 31.4785C47.4466 31.2685 47.4545 31.0574 47.4848 30.849C47.5737 30.2598 47.8323 29.7092 48.2288 29.2645C48.3294 29.1522 48.3877 29.0085 48.394 28.858C48.4002 28.7074 48.3539 28.5594 48.2629 28.4392C48.172 28.319 48.0421 28.2342 47.8955 28.1993C47.749 28.1644 47.5948 28.1815 47.4594 28.2477C46.711 28.6116 45.8721 28.7473 45.047 28.6381C44.9316 28.6218 44.8171 28.5989 44.7043 28.5696C45.0165 28.4522 45.3143 28.2996 45.592 28.1149C45.8704 27.9286 46.1489 27.7035 46.4438 27.4652L46.4438 27.4651L46.4459 27.4635C47.1705 26.878 47.9785 26.2261 48.918 26.0623C48.2448 24.4319 47.9495 22.8771 48.0418 21.4264C48.1171 20.0157 48.6184 18.661 49.4795 17.5411C45.4263 18.2046 42.9706 20.6639 41.6024 22.0375C41.4431 22.1973 41.2994 22.3413 41.1708 22.4649C41.1162 22.5174 41.0471 22.5882 40.9632 22.6741L40.9629 22.6744L40.9629 22.6744L40.9356 22.7024C40.203 23.4699 39.4107 24.1781 38.5662 24.8206C35.616 28.4173 36.9358 31.5839 38.605 35.587C39.6326 38.0516 40.7828 40.8123 41.0084 44.0276C41.8648 42.9446 42.7213 43.0427 43.7053 43.1564C44.1804 43.2117 44.6689 43.268 45.1439 43.1723C44.3915 44.0197 43.3664 44.1739 42.9571 44.2007C42.7904 44.2116 42.6343 44.2864 42.5213 44.4093C42.4082 44.5323 42.3469 44.6941 42.35 44.8611C42.3717 46.0106 43.1086 46.4814 43.7013 46.8601L43.7033 46.8614C43.9102 46.9873 44.1088 47.1262 44.298 47.2773C44.1979 47.314 44.0922 47.3533 43.9809 47.3953C43.796 47.4702 43.6075 47.5356 43.416 47.5914C42.6882 47.7246 42.1718 47.266 41.7564 46.897L41.756 46.8967C41.4318 46.6085 41.0638 46.2825 40.5838 46.4665C40.4802 46.5063 40.3885 46.572 40.3175 46.6573C40.2465 46.7426 40.1986 46.8446 40.1782 46.9537C39.9541 48.1596 39.2589 48.7562 38.7511 49.1917C38.6236 49.2966 38.5018 49.4083 38.3863 49.5263C38.3057 49.6135 38.2336 49.7083 38.1711 49.8092C38.1389 49.6011 38.129 49.3902 38.1415 49.18C38.1804 48.5853 38.3917 48.0148 38.7496 47.5383C38.8403 47.418 38.8864 47.2699 38.8799 47.1193C38.8734 46.9688 38.8148 46.8251 38.7141 46.7131C38.6133 46.601 38.4768 46.5274 38.3278 46.505C38.1787 46.4825 38.0266 46.5125 37.8973 46.5899C37.182 47.0153 36.3576 47.2212 35.5264 47.1821C35.4099 47.1757 35.294 47.1625 35.179 47.1426C35.4804 46.9994 35.7644 46.8222 36.0255 46.6145C36.3074 46.3889 36.623 46.0751 36.9882 45.712L36.9891 45.7111C37.7464 44.9583 38.7323 43.9789 39.6687 43.6C39.3832 40.8299 38.3802 38.4242 37.4052 36.0858C36.0353 32.8006 34.7275 29.6622 36.1084 26.3569C34.6938 27.0796 33.1731 27.5721 31.6034 27.816C28.7444 29.3195 29.034 30.9407 29.4361 33.1761C29.6644 34.4452 29.9145 35.8362 29.5637 37.3073C30.5542 37.4885 31.3222 38.1611 32.0682 38.8152C32.4055 39.125 32.7625 39.4128 33.1368 39.6768C33.5316 39.9385 33.9611 40.1435 34.4128 40.2859C34.1882 40.3625 33.9571 40.4183 33.7223 40.4527C32.7564 40.5806 31.7743 40.4217 30.8981 39.9958C30.7627 39.9295 30.6086 39.9124 30.462 39.9474C30.3154 39.9823 30.1855 40.0671 30.0946 40.1873C30.0037 40.3074 29.9573 40.4555 29.9636 40.606C29.9698 40.7566 30.0281 40.9003 30.1287 41.0126C30.5963 41.5372 30.901 42.1866 31.0056 42.8816C31.0539 43.2147 31.0539 43.5531 31.0056 43.8862C30.8936 43.7016 30.7568 43.5331 30.5992 43.3855C30.4581 43.2642 30.3107 43.1504 30.1576 43.0446L30.1573 43.0444C29.5231 42.5869 28.6544 41.9604 28.2726 40.5704C28.2432 40.4634 28.1869 40.3656 28.1089 40.2866C28.031 40.2075 27.9341 40.1497 27.8275 40.1187C27.7553 40.0975 27.6805 40.0865 27.6052 40.0863C27.2063 40.0863 26.8999 40.4085 26.6247 40.6979C26.1707 41.1759 25.6038 41.7697 24.7144 41.6831C24.4841 41.6376 24.2565 41.5798 24.0324 41.5099C23.8412 41.4557 23.6649 41.4063 23.5019 41.3639C23.7364 41.1212 23.9923 40.9002 24.2664 40.7035C24.9225 40.2023 25.6661 39.6341 25.5839 38.3674C25.5738 38.2004 25.4994 38.0437 25.3762 37.9304C25.2531 37.8172 25.0908 37.756 24.9235 37.76C24.4325 37.77 23.1939 37.6876 22.2204 36.7355C22.1639 36.6797 22.1108 36.6206 22.0613 36.5585C22.6619 36.7086 23.3645 36.6855 24.1037 36.6611L24.1039 36.6611C25.4062 36.6182 26.8685 36.5706 28.1818 37.4053C28.6312 36.0432 28.3914 34.7068 28.1573 33.4061C27.8397 31.6402 27.4894 29.6906 29.1503 27.9909ZM32.7076 47.5647C33.2957 47.9105 33.929 48.1731 34.5894 48.3448C32.6705 51.0837 32.0535 54.3878 32.8889 57.3981C30.7535 59.2053 27.9827 60.1599 25.0867 60.1599C23.6531 60.1573 22.2289 59.9291 20.8663 59.4834C17.7206 58.4597 15.1254 56.3943 13.5587 53.6681C12.0043 50.9629 11.6506 47.9304 12.5627 45.1276C13.8088 41.2984 17.2404 38.5462 21.5571 37.8855C22.3033 38.5073 23.2137 38.8995 24.1782 39.0145C24.0575 39.2185 23.8338 39.3986 23.4779 39.6705L23.4773 39.6709C22.9284 40.0902 22.2454 40.612 21.8042 41.6258C21.7547 41.7394 21.7388 41.8648 21.7583 41.9872C21.7778 42.1096 21.8319 42.2239 21.9142 42.3165C21.9966 42.4092 22.1037 42.4763 22.223 42.5101C22.3422 42.5438 22.4687 42.5427 22.5873 42.5069H22.5898C22.7901 42.5069 23.3606 42.6689 23.6746 42.758L23.6774 42.7588C23.975 42.8545 24.2796 42.9269 24.5884 42.9754C25.9175 43.1052 26.8087 42.3618 27.3519 41.815C27.9321 43.0412 28.8235 43.684 29.3979 44.0982L29.398 44.0982L29.398 44.0982C29.5376 44.1986 29.6581 44.2859 29.7294 44.3502C29.9116 44.5144 30.1229 44.9718 30.2771 45.3057L30.2772 45.3058L30.2772 45.3058L30.2772 45.3059L30.2802 45.3123C30.3722 45.5109 30.459 45.6984 30.5479 45.8515C30.6049 45.9498 30.6867 46.0314 30.7852 46.0882C30.8836 46.1449 30.9952 46.1749 31.1089 46.175H31.1096C31.2232 46.175 31.3347 46.1453 31.4332 46.0887C31.5316 46.0322 31.6135 45.9508 31.6707 45.8527C32.2262 44.8998 32.445 43.7879 32.2921 42.6956C32.2429 42.3588 32.1579 42.0282 32.0386 41.7094C32.4208 41.7739 32.8083 41.8024 33.1958 41.7944C34.1833 42.8112 34.9867 43.9916 35.5703 45.2832C35.4389 45.4078 35.3191 45.5161 35.2138 45.6004C34.2886 46.3401 33.0561 46.3618 33.0461 46.3618C32.9048 46.3621 32.7675 46.4086 32.6549 46.494C32.5424 46.5795 32.4608 46.6993 32.4225 46.8354C32.3843 46.9714 32.3914 47.1162 32.4428 47.2478C32.4942 47.3794 32.5872 47.4906 32.7076 47.5647ZM14.4275 52.1151C14.5964 52.1487 14.7718 52.1139 14.9151 52.0183C14.9861 51.9709 15.047 51.91 15.0944 51.8391C15.1419 51.7681 15.1749 51.6885 15.1915 51.6048C15.2082 51.5211 15.2082 51.435 15.1915 51.3513C15.1749 51.2676 15.1419 51.188 15.0945 51.117C13.4386 48.6361 15.0334 45.9857 15.1058 45.8681C15.197 45.7219 15.2263 45.5455 15.1874 45.3777C15.1485 45.2098 15.0445 45.0643 14.8983 44.9732C14.7522 44.882 14.5757 44.8526 14.4079 44.8915C14.2401 44.9305 14.0946 45.0344 14.0034 45.1806C13.9161 45.3214 11.8843 48.6476 14.0142 51.8387C14.1099 51.982 14.2585 52.0814 14.4275 52.1151ZM63.3911 32.8202C62.3193 29.5261 59.3713 27.1541 55.6594 26.5735C55.0392 27.0825 54.2926 27.4138 53.4991 27.5322C53.6545 27.6964 53.8262 27.8444 54.0116 27.974C54.4974 28.3451 55.1023 28.8076 55.4955 29.7105C55.5445 29.823 55.5606 29.9471 55.5419 30.0684C55.5233 30.1897 55.4707 30.3032 55.3902 30.3958C55.3097 30.4885 55.2046 30.5564 55.0871 30.5917C54.9696 30.6271 54.8445 30.6285 54.7262 30.5956C54.5505 30.6011 54.0722 30.7369 53.8098 30.8115C53.546 30.8972 53.2756 30.9611 53.0014 31.0026C51.8707 31.1136 51.0976 30.5247 50.6081 30.0485C50.0853 31.076 49.3118 31.6339 48.8523 31.9653L48.8521 31.9655L48.8473 31.9689L48.8472 31.969C48.7343 32.0504 48.6283 32.1269 48.5706 32.1792C48.4248 32.3107 48.2374 32.7163 48.1135 32.9846C48.0318 33.1616 47.9545 33.3288 47.8741 33.4672C47.8171 33.5654 47.7352 33.647 47.6368 33.7038C47.5383 33.7605 47.4267 33.7904 47.313 33.7905H47.3124C47.1989 33.7905 47.0873 33.7608 46.9889 33.7042C46.8905 33.6477 46.8086 33.5663 46.7514 33.4682C46.2581 32.622 46.0636 31.6344 46.1992 30.6643C46.2354 30.4116 46.2941 30.1626 46.3746 29.9203C46.095 29.9601 45.8126 29.9782 45.5302 29.9744C42.9908 32.612 42.0611 36.2103 43.1063 39.4216C43.3981 40.3184 43.8345 41.1615 44.3982 41.9176C44.6155 41.9429 44.8357 41.9198 45.043 41.8501C45.2334 41.7303 45.4115 41.5919 45.5748 41.4371C45.7841 41.2387 46.015 41.0643 46.2632 40.9175C46.373 40.8606 46.4966 40.8362 46.6197 40.8472C46.7428 40.8582 46.8603 40.9041 46.9582 40.9794C47.0561 41.0548 47.1306 41.1565 47.1727 41.2727C47.2148 41.3889 47.223 41.5147 47.1961 41.6353C47.0885 42.106 46.9374 42.5657 46.7449 43.0085C49.1211 43.3185 51.2485 44.3031 52.8789 45.7979C54.0114 45.7672 55.1334 45.5731 56.2104 45.2215C61.803 43.4016 65.0242 37.8384 63.3911 32.8202ZM43.8542 45.3679C44.635 45.1833 45.3511 44.7904 45.9263 44.2312C49.6739 44.4972 52.8107 46.6124 54.1566 49.804C55.1447 52.1481 55.0607 54.7829 53.92 57.2234C52.7689 59.6863 50.6828 61.6547 48.0462 62.7663C42.6273 65.0504 36.5505 62.9535 34.5002 58.0906C33.1883 54.9787 33.8116 51.3152 36.1196 48.4729C36.4014 48.4531 36.6813 48.4114 36.9566 48.3482C36.8967 48.596 36.8591 48.8487 36.8442 49.1032C36.7905 50.0816 37.0674 51.0496 37.6305 51.8514C37.6905 51.9367 37.77 52.0063 37.8625 52.0544C37.955 52.1024 38.0577 52.1275 38.1619 52.1275C38.1804 52.1275 38.1989 52.1268 38.2175 52.1251C38.3308 52.1154 38.4395 52.0762 38.5328 52.0113C38.6261 51.9464 38.7008 51.8582 38.7493 51.7554C38.8167 51.6128 38.8787 51.4424 38.9443 51.262L38.9468 51.2553C39.0477 50.9771 39.2003 50.557 39.3346 50.4135C39.3887 50.3558 39.4898 50.2689 39.5971 50.177L39.5993 50.1751C40.0294 49.8056 40.7518 49.1851 41.1854 48.1188C41.7134 48.5521 42.5323 49.0728 43.6507 48.868C43.9204 48.8035 44.1844 48.717 44.4399 48.6095C44.695 48.5131 45.1602 48.3374 45.3349 48.3172C45.4555 48.3399 45.5801 48.3281 45.6943 48.283C45.8084 48.2379 45.9074 48.1613 45.9799 48.0623C46.0523 47.9632 46.0952 47.8456 46.1036 47.7232C46.1119 47.6007 46.0854 47.4784 46.0272 47.3704C45.5594 46.5034 44.9178 46.0941 44.4022 45.7652L44.4022 45.7651C44.2066 45.6515 44.023 45.5184 43.8542 45.3679Z" fill="white"/>
</svg>
