<svg width="59" height="53" viewBox="0 0 59 53" fill="none" xmlns="http://www.w3.org/2000/svg">
<path d="M17.8005 46.2752C16.1819 46.2185 14.7011 45.6251 13.4492 44.5026C10.8978 42.2115 10.767 39.73 11.1084 38.0498C11.8235 34.5218 15.3209 31.0487 19.6133 29.6038C25.3647 27.6673 27.7625 20.2925 27.7855 20.2176L29.0493 20.6283C28.9446 20.958 26.4138 28.7309 20.0301 30.8797C16.2283 32.1598 13.0231 35.2885 12.4086 38.3192C12.0168 40.2571 12.6634 41.9988 14.3297 43.4954C16.6904 45.6148 19.4702 45.0137 21.3806 44.1382C27.0753 41.5306 33.2134 32.691 33.2022 22.9568L34.5292 22.9533C34.5408 33.2252 27.997 42.5835 21.9262 45.363C20.4961 46.0189 19.103 46.3209 17.8005 46.2752Z" fill="#324950"/>
<path d="M35.4594 23.8919L34.9252 23.8213C29.5231 23.1131 26.8686 19.9954 26.7591 19.8621L26.5401 19.5993L26.6215 19.2651C26.9357 17.9911 27.9805 17.5581 28.8688 17.576C29.9919 16.8975 31.0102 16.5692 31.8974 16.6003C34.7181 16.6991 35.2329 20.072 35.3204 21.0444C35.9312 21.818 35.8173 22.8502 35.6379 23.3748L35.4594 23.8919ZM28.0419 19.273C28.7566 19.9684 30.8902 21.7552 34.4516 22.3878C34.4408 22.1873 34.383 21.9701 34.22 21.8137L34.0249 21.6255L34.0135 21.3525C34.0122 21.3187 33.8504 18.0144 31.851 17.9444C31.1837 17.921 30.3534 18.219 29.3856 18.8317L29.1761 18.9638L28.9313 18.9258L28.9264 18.9256C28.4175 18.9078 28.1675 19.0885 28.0419 19.273Z" fill="#324950"/>
<path d="M33.2829 17.483L31.9614 17.3792C31.9747 17.159 32.1998 15.1689 35.7098 13.0976L36.3772 14.2603C33.4942 15.9597 33.2852 17.4681 33.2829 17.483Z" fill="#324950"/>
<path d="M39.1434 52.3713L35.5543 52.2455L37.3748 0.27742L40.9638 0.403146L39.1434 52.3713ZM36.928 50.948L37.8651 50.9808L39.5915 1.70014L38.6543 1.66731L36.928 50.948Z" fill="#324950"/>
<path d="M36.8159 16.6175C36.8009 16.5345 36.4421 14.5559 34.2402 13.17C31.4625 11.4193 26.9329 11.4107 21.1418 13.1438L20.7668 11.8544C27.048 9.97524 31.8322 10.0422 34.982 12.0522C37.6811 13.7739 38.108 16.2926 38.1258 16.3989L36.8167 16.6132L37.4713 16.5061L36.8159 16.6175Z" fill="#324950"/>
<path d="M3.93817 23.3612C2.12053 23.2975 0.942066 22.7216 0.435577 21.6476C-0.539493 19.5799 1.5574 16.5674 1.98744 15.9847C5.84748 11.263 12.1555 5.72725 20.3885 6.01566C24.8143 6.17069 29.3471 8.00722 33.8617 11.4733L34.2527 11.7753L34.0809 12.2427C33.952 12.5946 32.6269 15.6216 25.1684 15.8725C24.5511 17.593 21.9304 23.1266 13.8368 23.0857C10.8373 23.0701 7.77982 23.1618 4.74954 23.3571C4.44871 23.3684 4.18401 23.3698 3.93817 23.3612ZM20.3408 7.36031C12.6469 7.09079 6.68033 12.354 3.0286 16.8172C2.32336 17.7717 1.09419 19.9286 1.63236 21.0667C1.95567 21.7522 2.95842 22.0787 4.68242 22.0153C7.72817 21.8187 10.8172 21.7262 13.845 21.7409C22.3383 21.7846 24.0232 15.1226 24.0385 15.0556L24.1599 14.549L24.6735 14.5401C29.953 14.4499 31.9147 12.9203 32.5609 12.1706C28.4365 9.11779 24.3266 7.49993 20.3408 7.36031Z" fill="#324950"/>
<path d="M36.4629 32.242C35.394 31.1472 34.8978 29.9898 34.9887 28.8024C35.131 26.9595 36.6679 25.7921 36.7344 25.7432C39.3846 23.8762 40.7571 22.084 40.7177 20.5487C40.6797 19.0972 39.3614 18.2513 39.3488 18.2433L40.0398 17.0951C40.1183 17.1435 41.9781 18.311 42.0447 20.4945C42.1052 22.5377 40.5782 24.6722 37.5043 26.8363C37.5043 26.8363 36.4014 27.6931 36.3118 28.915C36.2537 29.6928 36.6229 30.4936 37.4054 31.2952L36.4629 32.242Z" fill="#324950"/>
<path d="M35.9203 47.7317C34.8513 46.638 34.3551 45.4807 34.4461 44.2933C34.5884 42.4504 36.1253 41.2824 36.1918 41.2328C38.842 39.3659 40.2144 37.5743 40.175 36.0396C40.1395 34.5882 38.8188 33.7415 38.8061 33.733L39.4972 32.5847C39.5757 32.6337 41.4354 33.8013 41.5021 35.9848C41.5625 38.0286 40.0356 40.1625 36.9616 42.3266C36.9616 42.3266 35.8563 43.1827 35.7691 44.4059C35.711 45.183 36.0802 45.9839 36.8628 46.7848L35.9203 47.7317Z" fill="#324950"/>
<path d="M40.4883 12.8167L39.2591 12.3152C39.3469 12.097 41.453 6.97367 47.7957 5.4856L48.0946 6.79612C42.415 8.12733 40.5078 12.7698 40.4883 12.8167Z" fill="#324950"/>
<path d="M41.915 21.2579L40.8232 20.4961C40.9351 20.3306 43.6178 16.4456 48.8025 17.1969L48.6139 18.5279C44.2824 17.9021 42.0099 21.1205 41.915 21.2579Z" fill="#324950"/>
<path d="M56.8431 24.172L56.7929 24.0371C56.1521 22.5714 52.8244 21.9402 49.9211 21.8385C49.5607 21.8258 49.341 21.8275 49.333 21.8273C48.8843 21.9028 48.3545 21.9356 47.8517 21.9179C44.3292 21.7945 43.0353 19.3011 42.9817 19.1948L42.7683 18.7702L43.0944 18.4246C45.2511 16.1345 47.4151 15.0103 49.5273 15.0843C54.5618 15.2607 57.4763 22.1219 58.0218 23.5261C58.0479 23.592 58.0739 23.6599 58.0974 23.7288L56.8431 24.172ZM49.9688 20.4945C51.5301 20.5491 53.7991 20.7612 55.5634 21.4665C54.3277 19.2852 52.2307 16.5241 49.4808 16.4278C47.877 16.3716 46.1777 17.2257 44.4264 18.9684C44.8737 19.5281 45.9302 20.5043 47.8994 20.5733C48.3215 20.5881 48.7679 20.5599 49.2318 20.4899C49.3258 20.4826 49.5671 20.4804 49.9688 20.4945Z" fill="#324950"/>
<path d="M18.4195 42.5156L17.8977 41.2798C18.5586 40.9928 19.1944 40.683 19.7919 40.3557L20.4217 41.5396C19.7902 41.8845 19.1143 42.2129 18.4195 42.5156Z" fill="#324950"/>
<path d="M23.1508 39.7967L22.3664 38.7131C29.3356 33.5356 30.342 26.062 30.352 25.9879L31.6694 26.1548C31.6264 26.4841 30.5784 34.2808 23.1508 39.7967Z" fill="#324950"/>
</svg>
