<svg width="1046" height="1047" viewBox="0 0 1046 1047" fill="none" xmlns="http://www.w3.org/2000/svg">
<g opacity="0.8">
<path d="M561.448 791.541C600.306 884.042 720.83 945.981 774.836 969.678L776.812 970.658C779.117 971.803 781.751 972.456 784.386 972.456C786.527 972.456 788.667 971.965 790.643 971.148C796.241 968.861 800.192 963.794 800.851 957.747C809.413 872.765 800.687 758.365 752.937 676.488C709.47 738.59 640.645 782.062 561.448 791.541Z" fill="white"/>
<path d="M1039.1 502.925C979.825 461.414 919.069 432.487 858.642 417.289C824.229 408.627 795.415 405.849 774.834 405.521C791.957 440.821 801.508 480.535 801.508 522.373C801.508 559.798 793.769 595.425 779.773 627.947C785.865 628.601 791.957 628.927 798.214 628.927C892.889 628.927 993.656 563.066 1037.29 531.034L1038.61 529.89C1042.56 527.276 1045.36 523.026 1045.85 518.287C1046.67 512.241 1044.04 506.52 1039.1 502.925Z" fill="white"/>
<path d="M500.69 792.199C420.834 784.518 351.022 742.353 306.401 681.068C244.163 760.168 248.608 894.342 254.042 952.523L254.207 954.157C254.372 958.896 256.677 963.309 260.464 966.414C263.427 968.702 267.049 969.846 270.672 969.846C272.813 969.846 275.118 969.356 277.094 968.539C353.491 936.016 452.777 871.952 500.69 792.199Z" fill="white"/>
<path d="M507.109 251.742C468.909 166.923 349.044 99.4266 265.73 73.7684C260.791 72.1334 255.357 72.9514 251.076 76.0565C246.795 78.9981 244.161 83.9007 244.161 89.1306C242.843 192.744 267.706 290.147 311.338 356.99C357.441 297.665 427.582 257.788 507.109 251.742Z" fill="white"/>
<path d="M277.257 633.181H278.574C263.097 599.351 254.536 561.762 254.536 522.377C254.536 483.154 262.932 445.893 278.245 412.225C175.996 394.902 57.9418 471.224 8.71003 507.668L7.39364 508.812C3.44217 511.426 0.642436 515.676 0.148976 520.416C-0.674116 526.299 1.95998 532.182 6.89919 535.778C65.3503 576.798 125.284 605.398 185.382 620.76C224.239 630.73 255.852 633.181 277.257 633.181Z" fill="white"/>
<path d="M531.479 804.781C508.623 844.012 474.843 879.551 437.183 910.052C471.262 981.727 522.587 1037.76 525.223 1040.77C528.351 1044.04 532.796 1046 537.407 1046H539.053C544.157 1045.51 548.768 1042.57 551.402 1038.16C578.089 994.655 598.055 950.946 611.354 907.486C578.151 878.896 548.486 844.613 531.479 804.781Z" fill="white"/>
<path d="M533.125 230.33C552.822 196.648 580.662 164.026 614.21 133.769C585.364 64.1045 542.352 9.20083 540.04 6.26926C536.747 2.18355 531.808 -0.431784 526.704 0.0589906C521.435 0.222582 516.66 2.67335 513.697 6.92264C484.425 47.5971 461.554 89.0387 445.069 130.615C481.934 159.052 514.035 192.631 533.125 230.33Z" fill="white"/>
<path d="M146.196 395.752C193.313 379.484 241.908 372.04 287.795 380.686C262.622 343.951 242.993 298.42 229.88 247.825C152.783 240.75 81.6028 254.241 77.8643 255.009C72.7602 255.99 68.4791 259.259 66.1748 263.999C63.8695 268.574 64.0343 273.968 66.3386 278.543C89.6695 323.134 116.426 362.277 146.196 395.752Z" fill="white"/>
<path d="M137.115 640.273C91.7067 701.566 66.8119 767.837 65.5146 771.443C63.7036 776.182 64.3619 781.575 67.1618 785.988C69.9606 790.236 74.7351 793.015 79.8393 793.342C94.9879 794.322 109.806 794.813 124.46 794.813C160.627 794.813 194.95 791.33 227.68 785.108C236.106 742.341 251.099 700.343 276.763 665.868C235.453 665.868 187.923 658.012 137.115 640.273Z" fill="white"/>
<path d="M902.978 641.623C862.199 656.259 820.6 664.449 781.913 660.961C803.675 698.867 817.899 742.665 826.406 787.396C842.078 788.74 857.447 789.416 871.813 789.416C924.172 789.416 964.677 782.388 967.311 781.899C972.415 781.081 976.861 777.813 979.165 773.236C981.47 768.661 981.635 763.268 979.33 758.691C957.25 714.426 931.686 675.328 902.978 641.623Z" fill="white"/>
<path d="M909.95 398.959C956.75 341.867 984.381 280.537 985.918 277.232C987.893 272.492 987.729 267.1 985.094 262.687C982.624 258.11 978.015 255.169 972.91 254.515C922.804 248.019 875.171 247.501 830.496 252.621C823.621 297.301 810.437 340.147 786.854 373.164C828.613 375.467 869.924 384.845 909.95 398.959Z" fill="white"/>
<path d="M751.125 365.65C813.034 296.357 806.448 147.474 800.027 81.2847L799.862 79.6508C799.533 74.7481 797.063 70.1716 793.111 67.2301C788.172 63.7987 781.75 63.1444 776.317 65.7597C692.344 105.309 602.939 171.17 558.154 252.558C637.68 261.219 706.999 303.875 751.125 365.65Z" fill="white"/>
<path d="M522.172 281.615C389.316 281.615 281.615 388.516 281.615 520.384C281.615 652.252 389.316 759.152 522.172 759.152C655.026 759.152 762.727 652.252 762.727 520.384C762.727 388.516 655.026 281.615 522.172 281.615ZM503.415 336.334C503.415 345.83 495.602 353.588 486.034 353.588C476.625 353.588 468.811 345.83 468.811 336.334C468.811 313.624 503.415 313.823 503.415 336.334ZM353.488 445.202C363.055 445.202 370.71 452.8 370.71 462.296C370.71 471.793 363.055 479.549 353.488 479.549C343.918 479.549 336.265 471.793 336.265 462.296C336.265 452.8 343.918 445.202 353.488 445.202ZM345.33 499.764C354.898 499.764 362.552 507.521 362.552 517.018C362.552 526.514 354.898 534.112 345.33 534.112C322.432 534.112 322.645 499.764 345.33 499.764ZM345.33 594.667C322.655 594.667 322.416 560.32 345.33 560.32C354.898 560.32 362.552 567.918 362.552 577.415C362.552 586.911 354.898 594.667 345.33 594.667ZM370.71 658.668C348.035 658.668 347.796 624.321 370.71 624.321C380.278 624.321 387.932 631.92 387.932 641.416C387.932 650.912 380.278 658.668 370.71 658.668ZM373.201 415.249C363.633 415.249 355.978 407.493 355.978 397.996C355.978 388.5 363.633 380.902 373.201 380.902C382.768 380.902 390.424 388.5 390.424 397.996C390.424 407.493 382.768 415.249 373.201 415.249ZM434.972 353.508C434.972 363.005 427.159 370.762 417.589 370.762C408.022 370.762 400.367 363.005 400.367 353.508C400.368 330.743 434.972 331.013 434.972 353.508ZM417.623 471.999C408.054 471.999 400.401 464.402 400.401 454.905C400.401 445.408 408.054 437.652 417.623 437.652C427.191 437.652 435.004 445.408 435.004 454.905C435.004 464.401 427.191 471.999 417.623 471.999ZM435.004 516.16C435.004 525.656 427.191 533.413 417.623 533.413C408.055 533.413 400.401 525.656 400.401 516.16C400.401 506.663 408.055 499.065 417.623 499.065C427.191 499.065 435.004 506.663 435.004 516.16ZM400.401 577.573C400.401 568.076 408.054 560.32 417.623 560.32C427.191 560.32 435.004 568.076 435.004 577.573C435.004 587.069 427.191 594.667 417.623 594.667C408.055 594.667 400.401 587.069 400.401 577.573ZM423.577 703.247C414.168 703.247 406.354 695.489 406.354 685.993C406.354 676.497 414.168 668.898 423.577 668.898C433.144 668.898 440.958 676.497 440.958 685.993C440.958 695.489 433.144 703.247 423.577 703.247ZM428.291 652.124C418.724 652.124 411.07 644.368 411.07 634.872C411.07 625.375 418.724 617.777 428.291 617.777C437.86 617.777 445.674 625.375 445.674 634.872C445.674 644.368 437.86 652.124 428.291 652.124ZM440.877 424.188C431.31 424.188 423.655 416.431 423.655 406.935C423.655 397.438 431.31 389.84 440.877 389.84C450.447 389.84 458.26 397.438 458.26 406.935C458.26 416.431 450.446 424.188 440.877 424.188ZM486.034 712.479C476.625 712.479 468.811 704.723 468.811 695.226C468.811 685.73 476.625 678.132 486.034 678.132C495.602 678.132 503.415 685.73 503.415 695.226C503.415 704.723 495.602 712.479 486.034 712.479ZM486.034 656.08C476.625 656.08 468.811 648.324 468.811 638.828C468.811 629.331 476.625 621.733 486.034 621.733C495.602 621.733 503.415 629.331 503.415 638.828C503.415 648.324 495.602 656.08 486.034 656.08ZM486.034 594.667C476.625 594.667 468.811 587.069 468.811 577.573C468.811 568.076 476.625 560.32 486.034 560.32C495.602 560.32 503.415 568.076 503.415 577.573C503.415 587.069 495.602 594.667 486.034 594.667ZM486.034 533.413C476.625 533.413 468.811 525.656 468.811 516.16C468.811 506.663 476.625 499.065 486.034 499.065C495.602 499.065 503.415 506.663 503.415 516.16C503.415 525.656 495.602 533.413 486.034 533.413ZM486.034 471.999C476.625 471.999 468.811 464.402 468.811 454.905C468.811 445.408 476.625 437.652 486.034 437.652C495.602 437.652 503.415 445.408 503.415 454.905C503.415 464.401 495.602 471.999 486.034 471.999ZM494.785 410.745C485.376 410.745 477.562 402.988 477.562 393.492C477.562 383.996 485.376 376.397 494.785 376.397C504.353 376.397 512.166 383.996 512.166 393.492C512.166 402.988 504.353 410.745 494.785 410.745ZM554.604 319.239C564.172 319.239 571.986 326.838 571.986 336.334C571.986 345.83 564.172 353.588 554.604 353.588C545.037 353.588 537.382 345.83 537.382 336.334C537.382 326.838 545.036 319.239 554.604 319.239ZM554.604 712.479C545.037 712.479 537.382 704.723 537.382 695.226C537.382 685.73 545.036 678.132 554.604 678.132C564.172 678.132 571.986 685.73 571.986 695.226C571.986 704.723 564.172 712.479 554.604 712.479ZM554.604 656.08C545.037 656.08 537.382 648.324 537.382 638.828C537.382 629.331 545.036 621.733 554.604 621.733C564.172 621.733 571.986 629.331 571.986 638.828C571.986 648.324 564.172 656.08 554.604 656.08ZM554.604 594.667C545.037 594.667 537.382 587.069 537.382 577.573C537.382 568.076 545.036 560.32 554.604 560.32C564.172 560.32 571.986 568.076 571.986 577.573C571.986 587.069 564.172 594.667 554.604 594.667ZM554.604 533.413C545.037 533.413 537.382 525.656 537.382 516.16C537.382 506.663 545.036 499.065 554.604 499.065C564.172 499.065 571.986 506.663 571.986 516.16C571.986 525.656 564.172 533.413 554.604 533.413ZM554.604 471.999C545.037 471.999 537.382 464.402 537.382 454.905C537.382 445.408 545.036 437.652 554.604 437.652C564.172 437.652 571.986 445.408 571.986 454.905C571.986 464.401 564.172 471.999 554.604 471.999ZM567.094 415.249C557.527 415.249 549.872 407.493 549.872 397.996C549.872 388.5 557.527 380.902 567.094 380.902C576.662 380.902 584.477 388.5 584.477 397.996C584.477 407.493 576.662 415.249 567.094 415.249ZM593.992 361.247C593.992 351.751 601.646 344.153 611.214 344.153C620.783 344.153 628.436 351.751 628.436 361.247C628.436 370.745 620.783 378.501 611.214 378.501C601.647 378.501 593.992 370.745 593.992 361.247ZM617.161 614.896C626.729 614.896 634.383 622.495 634.383 631.991C634.383 641.487 626.729 649.245 617.161 649.245C607.593 649.245 599.938 641.487 599.938 631.991C599.938 622.495 607.593 614.896 617.161 614.896ZM617.08 706.543C607.513 706.543 599.858 698.787 599.858 689.291C599.858 679.794 607.513 672.196 617.08 672.196C626.649 672.196 634.463 679.794 634.463 689.291C634.463 698.787 626.649 706.543 617.08 706.543ZM623.174 594.667C613.606 594.667 605.952 587.069 605.952 577.573C605.952 568.076 613.606 560.32 623.174 560.32C632.743 560.32 640.396 568.076 640.396 577.573C640.396 587.069 632.743 594.667 623.174 594.667ZM623.174 533.413C613.606 533.413 605.952 525.656 605.952 516.16C605.952 506.663 613.606 499.065 623.174 499.065C632.743 499.065 640.396 506.663 640.396 516.16C640.396 525.656 632.743 533.413 623.174 533.413ZM623.174 471.999C613.606 471.999 605.952 464.402 605.952 454.905C605.952 445.408 613.606 437.652 623.174 437.652C632.743 437.652 640.396 445.408 640.396 454.905C640.396 464.401 632.743 471.999 623.174 471.999ZM630.934 398.155C630.934 388.659 638.588 380.902 648.157 380.902C657.725 380.902 665.379 388.659 665.379 398.155C665.379 407.65 657.725 415.249 648.157 415.249C638.588 415.249 630.934 407.65 630.934 398.155ZM671.088 649.245C661.519 649.245 653.865 641.646 653.865 632.15C653.865 622.653 661.519 614.896 671.088 614.896C680.656 614.896 688.309 622.653 688.309 632.15C688.309 641.646 680.656 649.245 671.088 649.245ZM696.661 586.367C687.093 586.367 679.438 578.769 679.438 569.273C679.438 559.776 687.093 552.02 696.661 552.02C706.229 552.02 713.883 559.776 713.883 569.273C713.882 578.769 706.229 586.367 696.661 586.367ZM711.243 512.431C711.243 521.929 703.589 529.685 694.02 529.685C684.453 529.685 676.798 521.929 676.798 512.431C676.798 502.935 684.453 495.337 694.02 495.337C703.589 495.337 711.243 502.935 711.243 512.431ZM702.605 445.281C702.605 454.778 694.95 462.376 685.382 462.376C675.815 462.376 668.159 454.778 668.159 445.281C668.159 435.785 675.815 428.028 685.382 428.028C694.95 428.028 702.605 435.785 702.605 445.281Z" fill="white"/>
</g>
</svg>
