<svg width="43" height="51" viewBox="0 0 43 51" fill="none" xmlns="http://www.w3.org/2000/svg">
<path d="M39.1408 37.8473C39.921 38.3242 40.699 39.0923 41.06 40.3371C41.0968 40.4655 41.1715 40.5718 41.2677 40.6488C41.4221 40.7723 41.6336 40.8202 41.8386 40.7584C42.1721 40.6574 42.3638 40.3054 42.2676 39.9722C41.4972 37.3138 39.3164 36.3549 38.0496 36.0152C38.4342 35.2252 38.859 33.9019 38.681 32.0954C38.2697 27.9256 34.9818 23.4203 28.91 18.7246C14.9258 7.88886 14.9973 2.80284 15.6758 1.11633C15.8061 0.792135 15.6499 0.424953 15.3293 0.298947C15.0074 0.17192 14.6408 0.331771 14.51 0.655626C13.7262 2.60098 13.8808 6.65645 21.2665 13.8355C19.1206 13.3762 16.2247 13.4807 13.6357 16.0068C13.2759 15.2401 12.4461 14.2872 10.6127 13.3529C10.3044 13.1958 9.92475 13.3205 9.76488 13.631C9.60501 13.9415 9.72252 14.3221 10.0326 14.4778C11.0707 15.0065 11.6931 15.5088 12.069 15.9354C8.77838 14.3692 4.69534 15.223 2.29643 18.2203C-0.496487 21.7099 0.0381556 26.7946 3.48774 29.5555C5.45072 31.1265 7.93972 31.6071 10.2367 31.0903C10.2353 33.4443 11.2508 35.7686 13.2142 37.34C16.6634 40.1006 21.7416 39.5082 24.5345 36.0186C26.6638 33.3582 26.8539 29.7735 25.2995 26.9953C25.6988 27.3072 26.0933 27.6914 26.4367 28.1717C26.6355 28.4508 27.0304 28.5155 27.3135 28.31C27.5966 28.1052 27.6624 27.711 27.4614 27.4294C26.3783 25.9123 24.9148 25.1681 23.9805 24.8235C24.7004 23.9284 26.1587 22.429 28.0568 22.1019C29.4996 21.8538 30.9791 22.327 32.4424 23.5207C36.0976 27.2531 37.2136 30.1937 37.4237 32.1763C37.5708 33.5627 37.3047 34.5902 37.0316 35.24C36.1547 33.9607 34.391 31.872 32.3129 32.091C31.9672 32.1278 31.7131 32.4384 31.7455 32.7841C31.7785 33.1318 32.0857 33.3819 32.4305 33.3451C33.2705 33.2563 34.146 33.8574 34.8821 34.6083C31.8015 33.6366 28.2812 34.5955 26.1237 37.2912C23.3308 40.7808 23.8654 45.8655 27.315 48.6263C30.7657 51.3867 35.844 50.7943 38.6369 47.3047C40.8791 44.5032 40.973 40.6769 39.1408 37.8473ZM4.27965 28.5669C1.36898 26.2373 0.918118 21.9469 3.27466 19.0025C4.88655 16.9885 7.40095 16.119 9.76035 16.5156C8.98314 16.8092 8.23472 17.3808 7.63988 18.3873C7.47818 18.6617 7.54443 19.007 7.78348 19.1983C7.80687 19.2171 7.83165 19.2341 7.85891 19.2488C8.15703 19.4239 8.54251 19.3215 8.72087 19.0202C8.86868 18.7693 10.2124 16.6692 12.7148 17.8523C12.9313 18.5374 13.4628 20.7348 11.9871 22.2909C11.7461 22.5449 11.7541 22.9439 12.0047 23.1818C12.0173 23.1948 12.0314 23.206 12.0454 23.2172C12.2964 23.4181 12.6652 23.3949 12.8936 23.1541C14.0006 21.9871 14.2691 20.5993 14.2435 19.4507C15.0387 20.6709 15.4054 22.1117 15.3234 23.5463C14.0727 24.054 12.9273 24.8748 12.0232 26.0044C11.1191 27.1341 10.5693 28.4314 10.3486 29.7621C8.31085 30.3438 6.04399 29.979 4.27965 28.5669ZM23.5583 35.2365C21.2017 38.1809 16.9168 38.681 14.0061 36.3514C11.0954 34.0219 10.6446 29.7315 13.0011 26.7871C14.4966 24.9185 16.7679 24.038 18.9724 24.2358C18.4271 24.4157 17.9162 24.7255 17.5094 25.2337C17.2907 25.507 17.3331 25.9031 17.6027 26.1189C17.8724 26.3347 18.2685 26.2889 18.4869 26.016C19.4361 24.83 21.5992 25.3907 22.3991 25.6511C22.5206 26.3965 22.7127 28.3032 21.8155 29.7031C21.6398 29.9776 21.7015 30.3355 21.9482 30.533C21.9652 30.5466 21.9834 30.5597 22.0026 30.5723C22.2937 30.7587 22.6834 30.6702 22.8722 30.3759C23.5782 29.2741 23.759 27.9792 23.7599 26.9372C25.5292 29.3501 25.536 32.7655 23.5583 35.2365ZM27.8501 20.8605C25.668 21.2399 24.036 22.7986 23.1536 23.8532C22.7167 22.8427 21.8971 21.4821 20.5434 21.0715C20.2122 20.9709 19.8594 21.1588 19.7554 21.4928C19.6513 21.826 19.8343 22.1772 20.1667 22.278C20.7844 22.4653 21.2762 23.034 21.6384 23.6486C20.0393 22.9307 18.268 22.7697 16.596 23.1464C16.5964 21.3917 16.0322 19.6545 14.9311 18.2324C15.561 18.4436 16.2111 18.8502 16.5637 19.633C16.7067 19.9486 17.0788 20.0862 17.3953 19.9392C17.7123 19.7926 17.8529 19.418 17.711 19.1018C17.0186 17.5684 15.6344 17.0275 14.5744 16.8428C18.6268 12.9774 23.4296 15.9177 23.7582 16.127C25.0486 17.2586 26.4973 18.4548 28.1365 19.725C28.6174 20.098 29.0708 20.4644 29.505 20.826C28.9539 20.7605 28.4023 20.7652 27.8501 20.8605ZM28.1077 47.6377C25.1966 45.3078 24.7458 41.0173 27.1023 38.073C28.8055 35.9449 31.5154 35.1006 33.9862 35.6718C33.3127 35.807 32.6527 36.0885 32.1396 36.6232C31.8974 36.8762 31.903 37.2746 32.1515 37.5152C32.4117 37.7637 32.7993 37.7442 33.0413 37.4924C33.8883 36.6093 35.6632 36.7859 36.5683 36.9907C36.9309 38.0949 37.4299 40.3695 36.5515 41.3763C36.322 41.6396 36.3459 42.0378 36.6063 42.2652C36.6139 42.2714 36.6207 42.2768 36.628 42.2826C36.8878 42.4906 37.2697 42.4573 37.4936 42.2002C38.2782 41.3018 38.3793 39.9941 38.2568 38.8271C39.6195 41.1822 39.4782 44.2517 37.6607 46.5226C35.3034 49.4671 31.0184 49.9672 28.1077 47.6377Z" fill="#324950"/>
</svg>
