<svg width="22" height="53" viewBox="0 0 22 53" fill="none" xmlns="http://www.w3.org/2000/svg">
<path d="M22 0.545453C22 0.244363 21.7479 0 21.436 0C21.1242 0 20.8721 0.244363 20.8721 0.545453V14.8281C16.7851 15.0556 13.2812 17.7414 11.5645 21.5601V0.545453C11.5645 0.244363 11.3119 0 11.0006 0C10.6893 0 10.4366 0.244363 10.4366 0.545453V21.5601C8.71992 17.7414 5.21548 15.055 1.12792 14.8276V0.545453C1.12792 0.244363 0.875263 0 0.563958 0C0.252653 0 0 0.244363 0 0.545453V15.3572C0 18.5656 1.15047 21.4827 3.01999 23.6454C2.22989 23.4468 1.4082 23.3383 0.563958 23.3383C0.252653 23.3383 0 23.5826 0 23.8837C0 27.0932 1.1516 30.0119 3.02281 32.1752C2.23158 31.9766 1.40933 31.8681 0.563958 31.8681C0.252653 31.8681 0 32.1119 0 32.4135C0 35.6219 1.15104 38.539 3.02112 40.7022C2.23045 40.5037 1.40877 40.3951 0.563958 40.3951C0.252653 40.3951 0 40.639 0 40.9406C0 47.5902 4.93463 53 11.0006 53C17.0659 53 22 47.5902 22 40.9406C22 40.639 21.7479 40.3951 21.436 40.3951C20.5912 40.3951 19.7695 40.5037 18.9794 40.7022C20.849 38.5395 22 35.6224 22 32.4141C22 32.1124 21.7479 31.8686 21.436 31.8686C20.5907 31.8686 19.7684 31.9772 18.9778 32.1757C20.8484 30.0124 22 27.0943 22 23.8843C22 23.5832 21.7479 23.3388 21.436 23.3388C20.5918 23.3388 19.7707 23.4474 18.9806 23.6459C20.8495 21.4832 22 18.5661 22 15.3578V0.545453ZM20.8456 15.9359C20.5828 21.4963 16.5854 25.963 11.591 26.2941C11.8538 20.7337 15.8512 16.2665 20.8456 15.9359ZM10.4366 30.0866C9.94371 28.9903 9.30305 27.9888 8.54396 27.1112C9.15755 27.265 9.78918 27.3664 10.4366 27.4025V30.0866ZM10.4101 34.8212C5.41512 34.4906 1.41723 30.0233 1.15442 24.463C6.1494 24.7936 10.1473 29.2603 10.4101 34.8212ZM10.4366 38.6153C9.94314 37.5179 9.30192 36.5159 8.54227 35.6377C9.15642 35.7921 9.78862 35.8935 10.4366 35.9295V38.6153ZM10.4101 43.3493C5.41512 43.0188 1.41723 38.552 1.15442 32.9922C6.1494 33.3228 10.1473 37.789 10.4101 43.3493ZM10.4366 47.1424C9.94371 46.0455 9.30249 45.044 8.5434 44.1658C9.15699 44.3202 9.78918 44.4217 10.4366 44.4577V47.1424ZM11.5645 44.4577C12.2119 44.4217 12.8441 44.3202 13.4572 44.1664C12.6981 45.044 12.0574 46.0455 11.5645 47.1418V44.4577ZM11.5645 38.6148V35.9295C12.2125 35.8935 12.8453 35.7921 13.4583 35.6377C12.6992 36.5159 12.0574 37.5179 11.5645 38.6148ZM20.8456 32.9917C20.5828 38.5515 16.5854 43.0182 11.591 43.3488C11.8538 37.789 15.8512 33.3228 20.8456 32.9917ZM11.5645 30.0861V27.4025C12.2114 27.3664 12.8436 27.265 13.456 27.1112C12.6981 27.9888 12.0569 28.9903 11.5645 30.0861ZM20.8456 24.463C20.5828 30.0233 16.5854 34.4906 11.591 34.8212C11.8538 29.2603 15.8512 24.7936 20.8456 24.463ZM10.4101 26.2941C5.41512 25.9635 1.41723 21.4963 1.15442 15.9359C6.1494 16.2665 10.1473 20.7337 10.4101 26.2941ZM1.15442 41.5188C6.1494 41.8493 10.1473 46.316 10.4101 51.8758C5.41512 51.5453 1.41723 47.0791 1.15442 41.5188ZM11.591 51.8758C11.8538 46.316 15.8512 41.8493 20.8456 41.5188C20.5828 47.0791 16.5854 51.5453 11.591 51.8758Z" fill="#324950"/>
</svg>
